G04 start of page 2 for group 12 layer_idx 5 *
G04 Title: (unknown), bottom_silk *
G04 Creator: pcb-rnd 3.1.4-dev *
G04 CreationDate: 2024-02-11 09:55:08 UTC *
G04 For: STEM4ukraine *
G04 Format: Gerber/RS-274X *
G04 PCB-Dimensions: 334646 393701 *
G04 PCB-Coordinate-Origin: lower left *
%MOIN*%
%FSLAX25Y25*%
%LNBOTTOM_SILK_NONE_12*%
%ADD50C,0.0070*%
%ADD49C,0.0137*%
%ADD48C,0.0200*%
%ADD47C,0.0080*%
%ADD46C,0.0100*%
%ADD45C,0.0001*%
G54D45*G36*
X113305Y57024D02*X114187Y57533D01*
X114908Y58254D01*
X115417Y59136D01*
X115681Y60120D01*
Y61139D01*
X115417Y62124D01*
X114908Y63006D01*
X114187Y63727D01*
X113305Y64236D01*
X112321Y64500D01*
X111302D01*
X110317Y64236D01*
X109435Y63727D01*
X108714Y63006D01*
X108205Y62124D01*
X107941Y61139D01*
Y60120D01*
X108205Y59136D01*
X108714Y58254D01*
X109435Y57533D01*
X110317Y57024D01*
X107882Y51145D01*
X106477Y51752D01*
X103418Y49691D01*
X100728Y52429D01*
X102842Y55451D01*
X101762Y58124D01*
X98141Y58830D01*
X98175Y62668D01*
X101807Y63310D01*
X102933Y65964D01*
X100873Y69023D01*
X103610Y71713D01*
X106633Y69599D01*
X109305Y70679D01*
X110011Y74300D01*
X113849Y74266D01*
X114492Y70634D01*
X117145Y69507D01*
X120204Y71568D01*
X122894Y68831D01*
X120780Y65808D01*
X121860Y63135D01*
X125481Y62430D01*
X125447Y58592D01*
X121815Y57949D01*
X120689Y55296D01*
X122750Y52237D01*
X120012Y49547D01*
X116989Y51661D01*
X115740Y51145D01*
X113305Y57024D01*
G37*
G54D46*X176710Y61151D02*X181360D01*
G54D47*X174680Y57701D02*X175100Y57281D01*
X174680Y57701D02*Y55721D01*
X174530Y53051D02*X174350Y53021D01*
X174200Y52931D01*
G54D46*X172090Y54161D02*X176710D01*
G54D47*X174980Y52751D02*X174920Y52871D01*
X174800Y52961D01*
X174680Y53021D02*X174530Y53051D01*
X174200Y52931D02*X174110Y52781D01*
X174800Y52961D02*X174680Y53021D01*
X174110Y52781D02*X174080Y52601D01*
X174140Y52361D01*
X174110Y51071D02*X174950D01*
X174140Y52361D02*X174950Y51071D01*
X174590Y48401D02*X175100D01*
X174620Y47531D02*X174470Y47501D01*
X174320Y47381D01*
X174230Y47261D01*
X174590Y47531D02*X174890D01*
X174200Y47081D02*Y46901D01*
X174230Y46721D01*
Y47261D02*X174200Y47081D01*
X174230Y46721D02*X174350Y46571D01*
X174200Y48011D02*X174230Y47831D01*
X174350Y47681D01*
X174500Y47561D01*
X174710Y47531D01*
X174350Y46571D02*X174500Y46481D01*
X174590Y48401D02*X174440Y48371D01*
X174680Y46451D02*X175100D01*
X174500Y46481D02*X174680Y46451D01*
X175100Y42221D02*X174680Y43781D01*
X174350Y42671D02*Y41801D01*
X175100Y39131D02*Y38231D01*
X174680D02*X175100D01*
X174680D02*X174500Y38201D01*
X174350Y38111D01*
Y37271D02*X174500Y37181D01*
X174680Y37151D01*
G54D46*X176710Y61151D02*Y33281D01*
G54D47*X174680Y37151D02*X175100D01*
X174470Y33581D02*X174980D01*
Y33731D02*X174920Y34001D01*
X174800Y34241D01*
X174590Y34391D01*
X174320Y34481D01*
X174470Y33581D02*X174320Y33551D01*
X174200Y33461D01*
Y37781D02*Y37601D01*
X174230Y37961D02*X174200Y37781D01*
Y37601D02*X174230Y37421D01*
X174350Y37271D01*
Y38111D02*X174230Y37961D01*
X174440Y48371D02*X174320Y48311D01*
X174230Y48161D01*
X174200Y48011D01*
Y39131D02*X175100D01*
X174200Y33461D02*X174110Y33341D01*
X174020Y42221D02*X175100D01*
X174110Y33341D02*X174080Y33191D01*
G54D48*X258220Y19134D02*Y60866D01*
X305622Y19134D02*Y60866D01*
X258220D02*X305622D01*
Y19134D02*X258220D01*
G54D46*X181360Y61151D02*Y33281D01*
X172090Y49541D02*X176710D01*
X172090Y44891D02*X176710D01*
X172090Y40241D02*X176710D01*
X172090Y44891D02*Y35591D01*
X161050Y29801D02*X164530D01*
X162790Y54161D02*Y30941D01*
X162220Y28631D02*X163360D01*
X162790Y35591D02*X176710D01*
G54D47*X174080Y33191D02*Y32891D01*
X174860Y32621D02*X174950Y32741D01*
X174980Y32891D01*
X174320Y32531D02*X174470Y32501D01*
X174590D02*X174740Y32531D01*
X174860Y32621D01*
X174080Y32891D02*X174110Y32741D01*
X174200Y32621D01*
X174320Y32531D01*
G54D46*X176710Y33281D02*X181360D01*
G54D47*X174980Y33731D02*Y32891D01*
X174470Y32501D02*X174590D01*
G54D48*X164669Y369685D02*X169976D01*
X173512Y368221D02*X181606Y360126D01*
X161134Y368221D02*X153039Y360126D01*
G54D47*X165190Y64961D02*X164110Y67931D01*
X163390Y66581D02*Y65321D01*
X162400Y66941D02*X163030D01*
X163255Y66851D02*X163030Y66941D01*
Y64961D02*X163255Y65051D01*
X163390Y65321D01*
X160645Y66941D02*X161275D01*
X161635Y66581D02*X161545Y66851D01*
X161275Y66941D01*
X160645Y64961D02*X161275D01*
X161635Y66581D02*Y65321D01*
X161275Y64961D02*X161545Y65051D01*
X161635Y65321D01*
X165190Y64961D02*X166225Y67931D01*
X163390Y66581D02*X163255Y66851D01*
G54D46*X159880Y30941D02*X165700D01*
G54D47*X162400Y64961D02*X163030D01*
X152805Y65676D02*Y64326D01*
X181360Y62701D02*X181630D01*
X181090Y62791D02*X181360Y62701D01*
X181540D02*X181855Y62791D01*
G54D46*X189047Y164173D02*X184397Y159523D01*
X184010Y129821D02*X184190Y129941D01*
X184400Y129971D01*
X184640Y129941D01*
X184820Y129821D01*
X184397Y159523D02*Y129343D01*
X183830Y129401D02*X183890Y129641D01*
X184010Y129821D01*
X183890Y129191D02*X183830Y129401D01*
X184820Y129821D02*X184940Y129641D01*
X185000Y129401D01*
X184940Y129191D01*
X184400Y128831D02*X184190Y128861D01*
X184010Y128981D01*
X183890Y129191D01*
X184940D02*X184820Y128981D01*
X184640Y128861D01*
X184400Y128831D01*
X182701Y123576D02*X186181D01*
X184441Y128598D02*Y125118D01*
X183871Y122436D02*X185041D01*
X181561Y124746D02*X187351D01*
G54D47*X181855Y62791D02*X182080Y62926D01*
X182260Y63196D01*
X182305Y63466D01*
G54D46*X172787Y160693D02*X171647Y159523D01*
X173327Y160123D02*X171647Y159523D01*
X172787Y161863D02*X176267Y164173D01*
X171647Y159523D02*X175127Y161863D01*
X174707Y161053D02*X173537Y159883D01*
X175247Y160483D02*X173537Y159883D01*
X172787Y161863D02*X175127D01*
X173537Y159883D02*X177017Y162223D01*
X174707D02*X177017D01*
X174707D02*X178187Y164533D01*
X179747Y164173D02*X189047D01*
X184397Y159523D02*X179747Y164173D01*
G54D47*X177836Y156186D02*Y153216D01*
X176576Y156186D02*X177836D01*
X176576Y153216D02*X177836D01*
X176846Y154836D02*X177836D01*
G54D46*X179747Y159523D02*X189047D01*
G54D47*X179861Y156186D02*Y153216D01*
X178601D02*X179861D01*
X174776Y156186D02*X175811D01*
X174776D02*X174551Y156141D01*
X174371Y156006D01*
X174236Y155826D01*
X172796Y156186D02*X173426Y155556D01*
X174776Y153216D02*X175811D01*
X174551Y153261D02*X174776Y153216D01*
G54D46*X144489Y129373D02*X184465D01*
G54D47*X174191Y155601D02*Y153801D01*
X174236Y153576D01*
X174371Y153396D01*
X174551Y153261D01*
X174236Y155826D02*X174191Y155601D01*
X172796Y156186D02*Y153216D01*
X175811Y156186D02*Y153216D01*
G54D46*X181517Y208303D02*X187307D01*
X183890Y203941D02*X184010Y204121D01*
X184190Y204241D01*
X184400Y204271D02*X184640Y204241D01*
X184820Y204121D01*
X184940Y203941D01*
X144489Y203673D02*X184465D01*
X183830Y203701D02*X183890Y203941D01*
X184190Y204241D02*X184400Y204271D01*
X184010Y203281D02*X183890Y203491D01*
X183830Y203701D01*
X184397Y208303D02*Y194383D01*
X184400Y203131D02*X184190Y203161D01*
X184010Y203281D01*
X182087Y194383D02*X186737D01*
X184940Y203941D02*X185000Y203701D01*
X184940Y203491D01*
X184820Y203281D01*
X184640Y203161D01*
X184400Y203131D01*
G54D47*X186431Y209626D02*X187466Y212596D01*
G54D46*X203488Y237042D02*Y228360D01*
G54D47*X186431Y209626D02*X185396Y212596D01*
X183641Y209626D02*X184271D01*
X184541Y209716D01*
X181886Y209626D02*X182561D01*
X182786Y209716D01*
X183641Y211606D02*X184271D01*
X184541Y211516D02*X184271Y211606D01*
X182876Y211246D02*Y209986D01*
X181886Y211606D02*X182561D01*
X182876Y211246D02*X182786Y211516D01*
X182561Y211606D01*
X184631Y211246D02*Y209986D01*
Y211246D02*X184541Y211516D01*
Y209716D02*X184631Y209986D01*
X182786Y209716D02*X182876Y209986D01*
X179341Y193018D02*Y190048D01*
X178396Y191398D02*X179341D01*
X178396Y193018D02*X179341D01*
X178711Y186043D02*X179341Y185413D01*
X177946Y185548D02*X177856Y185773D01*
X177676Y185908D01*
X177496Y185998D01*
X177271Y186043D01*
X177001Y185998D01*
G54D46*X182087Y194383D02*Y180433D01*
G54D47*X178711Y186043D02*Y183073D01*
X176641D02*X177946D01*
X176686Y184963D02*X177946Y183073D01*
X177001Y185998D02*X176776Y185818D01*
X176641Y185593D01*
X176596Y185323D01*
X176686Y184963D01*
X174841Y185863D02*X174976Y185998D01*
X174841Y185863D02*X174526Y185278D01*
X172771Y184423D02*X173671D01*
X172771Y186043D02*X173671D01*
X175426Y185863D02*X175336Y185998D01*
X174526Y185278D02*X174436Y184603D01*
X173671Y186043D02*Y183073D01*
X172051Y185323D02*Y185098D01*
X172096Y185593D02*X172051Y185323D01*
Y185098D02*X172096Y184828D01*
X172276Y184603D01*
X172681Y184423D02*X172051Y183073D01*
X172276Y184603D02*X172501Y184468D01*
X172771Y184423D01*
Y186043D02*X172501Y185998D01*
X172276Y185818D01*
X172096Y185593D01*
X174436Y184603D02*Y184513D01*
X175831Y184603D02*Y184513D01*
X175741Y183838D02*X175831Y184513D01*
X174436D02*X174526Y183838D01*
X175831Y184603D02*X175741Y185278D01*
X175426Y185863D01*
X175336Y185998D02*X175156Y186043D01*
X174976Y185998D01*
X174841Y183253D02*X174976Y183118D01*
X175336D02*X175426Y183253D01*
X175741Y183838D01*
X174526D02*X174841Y183253D01*
X174976Y183118D02*X175156Y183073D01*
X175336Y183118D01*
G54D46*X186737Y194383D02*Y180433D01*
X182087D02*X186737D01*
X184397D02*Y164173D01*
G54D47*X177721Y192298D02*Y192073D01*
X177766Y192568D02*X177721Y192298D01*
Y192073D02*X177766Y191803D01*
X177901Y191578D01*
X178351Y191398D02*X177721Y190048D01*
X177901Y191578D02*X178126Y191443D01*
X178396Y191398D01*
Y193018D02*X178126Y192928D01*
X177901Y192793D01*
X177766Y192568D01*
X176326Y193018D02*X176956Y192343D01*
X176326Y193018D02*Y190048D01*
X180640Y65671D02*Y63466D01*
X178660Y65626D02*X178345Y65491D01*
X176545Y65671D02*X177445D01*
X176545D02*X176320Y65626D01*
X176095Y65491D01*
X179020Y65671D02*X178660Y65626D01*
X177445Y65671D02*Y62701D01*
X176635Y64321D02*X177445D01*
X176095Y65491D02*X175960Y65266D01*
X175915Y65041D01*
X179020Y65671D02*X179245D01*
X178525Y63916D02*X178300Y63646D01*
X178165Y63286D01*
X182305Y65671D02*Y63466D01*
X176500Y62701D02*X177445D01*
X176230Y62791D02*X176500Y62701D01*
X175825Y63601D02*Y63376D01*
X175870Y63826D02*X175825Y63511D01*
Y63421D02*X175870Y63151D01*
X176005Y62926D01*
X176230Y62791D01*
X176635Y64321D02*X176320Y64276D01*
X176365Y64411D02*X176635Y64321D01*
X176320Y64276D02*X176050Y64096D01*
X175870Y63826D01*
X175915Y65041D02*X175960Y64771D01*
X176140Y64546D01*
X176365Y64411D01*
X179425Y64366D02*X178525Y63916D01*
X178165Y63286D02*Y63196D01*
X178210Y63016D01*
X178660Y62701D02*X179020D01*
X178210Y63016D02*X178300Y62836D01*
X178480Y62746D01*
X178660Y62701D01*
X179020D02*X179470Y62791D01*
X179830Y63016D01*
X179425Y64366D02*X179740Y64636D01*
X179875Y65041D01*
X179830Y65266D01*
X179695Y65491D01*
X179470Y65626D01*
X179245Y65671D01*
X180640Y63466D02*X180685Y63196D01*
X180865Y62926D01*
X181090Y62791D01*
G54D46*X159880Y63461D02*X165700D01*
X153490Y58811D02*X176710D01*
X162790Y63461D02*Y58811D01*
G54D47*X151500Y65676D02*X152805D01*
X151905Y64281D02*X151680Y64146D01*
X151545Y63921D01*
X152175Y64326D02*X152805D01*
X151500Y63651D02*Y63426D01*
X152175Y64326D02*X151905Y64281D01*
X151545Y63921D02*X151500Y63651D01*
X149700Y62706D02*X150735Y65676D01*
X149700Y62706D02*X148665Y65676D01*
G54D46*X142209Y194383D02*X146859D01*
X144519Y203653D02*Y194383D01*
Y159523D02*Y129343D01*
Y180433D02*Y164173D01*
G54D47*X138441Y193018D02*X139341D01*
X137721Y192298D02*Y192073D01*
X138441Y193018D02*X138126Y192928D01*
X137946Y192793D02*X137766Y192568D01*
X137721Y192298D01*
X138126Y192928D02*X137946Y192793D01*
X137721Y192073D02*X137766Y191803D01*
X137946Y191578D01*
X139341Y193018D02*Y190048D01*
X138441Y191398D02*X139341D01*
X138351D02*X137721Y190048D01*
X137946Y191578D02*X138126Y191443D01*
X138441Y191398D01*
X135651Y190048D02*X136956D01*
X135696Y191938D02*X136956Y190048D01*
Y192523D02*X136866Y192703D01*
X136326Y193018D02*X136056Y192928D01*
X135831Y192793D01*
X135651Y192568D01*
X135606Y192298D01*
X136866Y192703D02*X136731Y192883D01*
X136506Y192973D01*
X136326Y193018D01*
X135606Y192298D02*X135696Y191938D01*
G54D46*X116488Y240042D02*Y231360D01*
G54D47*X137633Y185528D02*X137543Y185753D01*
X137408Y185888D01*
X137228Y185978D01*
X137003Y186023D01*
X136733Y185978D01*
X136508Y185798D01*
G54D46*X142209Y194383D02*Y180433D01*
G54D47*X138398Y186023D02*X139028Y185393D01*
X136373Y183053D02*X137633D01*
X136373Y184943D02*X137633Y183053D01*
X136508Y185798D02*X136373Y185573D01*
X136283Y185303D01*
X136418Y184943D01*
X134573Y185843D02*X134663Y185978D01*
X134573Y185843D02*X134258Y185258D01*
X132458Y184403D02*X133403D01*
X132458Y186023D02*X133403D01*
X135113Y185843D02*X135023Y185978D01*
X134258Y185258D02*X134168Y184583D01*
X133403Y186023D02*Y183053D01*
X131783Y185303D02*Y185078D01*
X131828Y185573D02*X131783Y185303D01*
Y185078D02*X131828Y184808D01*
X131963Y184583D01*
X132413Y184403D02*X131783Y183053D01*
X131963Y184583D02*X132188Y184448D01*
X132458Y184403D01*
Y186023D02*X132188Y185978D01*
X131963Y185798D01*
X131828Y185573D01*
X134168Y184583D02*Y184493D01*
X135563Y184583D02*Y184493D01*
X135428Y183818D02*X135563Y184493D01*
X134168D02*X134258Y183818D01*
X135563Y184583D02*X135428Y185258D01*
X135113Y185843D01*
X135023Y185978D02*X134843Y186023D01*
X134663Y185978D01*
X134573Y183233D02*X134663Y183098D01*
X135023D02*X135113Y183233D01*
X135428Y183818D01*
X134258D02*X134573Y183233D01*
X134663Y183098D02*X134843Y183053D01*
X135023Y183098D01*
G54D46*X146859Y194383D02*Y180433D01*
X142209D02*X146859D01*
G54D47*X138398Y186023D02*Y183053D01*
X135339Y160483D02*X133659Y159883D01*
X134799Y162223D02*X137139D01*
X134799Y161053D02*X133659Y159883D01*
X137139Y162223D01*
G54D46*X149169Y164173D02*X144519Y159523D01*
X139869Y164173D02*X149169D01*
X139869Y159523D02*X149169D01*
X144519D02*X139869Y164173D01*
G54D47*X131739Y159523D02*X135219Y161863D01*
X132909D02*X135219D01*
X132909Y160693D02*X131739Y159523D01*
X133419Y160123D02*X131739Y159523D01*
X132909Y161863D02*X136389Y164173D01*
X134799Y162223D02*X138279Y164533D01*
X137725Y156196D02*Y153226D01*
X136420Y156196D02*X137725D01*
X136735Y154846D02*X137725D01*
X134620Y156196D02*X135655D01*
X134620Y153226D02*X135655D01*
Y156196D02*Y153226D01*
X134620Y156196D02*X134395Y156151D01*
X139750Y156196D02*Y153226D01*
X138445D02*X139750D01*
X136420D02*X137725D01*
X134395Y156151D02*X134215Y156016D01*
X134080Y155836D01*
X134035Y155611D01*
Y153811D01*
X134080Y153586D01*
X134215Y153406D01*
X132055Y155116D02*X133270Y153226D01*
Y155701D02*X133180Y155926D01*
X133045Y156061D01*
X132865Y156151D01*
X132370D02*X132145Y155971D01*
X131920Y155476D02*X132055Y155116D01*
X134215Y153406D02*X134395Y153271D01*
X134620Y153226D01*
X132010D02*X133270D01*
X132865Y156151D02*X132640Y156196D01*
X132370Y156151D01*
X132145Y155971D02*X132010Y155746D01*
X131920Y155476D01*
G54D46*X148870Y61151D02*X153490D01*
G54D47*X151500Y63426D02*X151545Y63156D01*
X151680Y62931D01*
X151905Y62796D01*
X152175Y62706D01*
G54D46*X153490Y61151D02*Y51851D01*
X148870Y61151D02*Y51851D01*
G54D47*X152175Y62706D02*X152805D01*
G54D46*X95681Y30843D02*X94681Y29843D01*
X95681Y32843D02*X94681Y33843D01*
X91681D02*X94681D01*
X91681Y29843D02*Y38843D01*
X94681Y29843D02*X91681D01*
X95681Y32843D02*Y30843D01*
X148870Y51851D02*X153490D01*
Y54161D02*X162790D01*
X40000Y23701D02*X20000D01*
Y33701D02*Y23701D01*
Y33701D02*X40000D01*
X30000Y23701D02*Y33701D01*
X40000D02*X30000D01*
X97681Y32843D02*X98681Y33843D01*
X40000Y23701D02*Y33701D01*
X97681Y32843D02*Y29843D01*
X106681Y33843D02*X103681D01*
X107681Y32843D02*X106681Y33843D01*
X107681D02*Y29843D01*
X117681Y30843D02*X118681Y29843D01*
Y33843D02*X117681Y32843D01*
Y30843D02*Y32843D01*
X114681Y31843D02*X110681D01*
X130681Y33843D02*X129681Y32843D01*
X127681D02*X126681Y33843D01*
X127681Y32843D02*Y30843D01*
X130681Y29843D02*X129681Y30843D01*
X127681D02*X126681Y29843D01*
X129681Y32843D02*Y30843D01*
X130681Y29843D02*X133681D01*
Y33843D02*X130681D01*
X133681D02*Y25843D01*
X118681Y33843D02*X121681D01*
X126681D02*X123681D01*
X121681Y29843D02*X118681D01*
X126681D02*X123681D01*
X121681Y38843D02*Y29843D01*
X100681Y33843D02*X98681D01*
X101681Y32843D02*X100681Y33843D01*
X101681D02*Y29843D01*
G54D48*X164669Y369685D02*G75*G03X161134Y368221I0J-5000D01*G01*
X169976Y369685D02*G75*G02X173512Y368221I0J-5000D01*G01*
X153039Y360126D02*G75*G03X151575Y356590I3536J-3536D01*G01*
X181606Y360126D02*G75*G02X183071Y356590I-3536J-3536D01*G01*
G54D46*X92681Y39843D02*G75*G02X90681Y39843I-1000J0D01*G01*
G75*G02X92681Y39843I1000J0D01*G01*
X122681D02*G75*G02X120681Y39843I-1000J0D01*G01*
G75*G02X122681Y39843I1000J0D01*G01*
X134681Y24843D02*G75*G02X132681Y24843I-1000J0D01*G01*
G75*G02X134681Y24843I1000J0D01*G01*
X116488Y240042D02*G75*G02X129512Y231360I6512J-4341D01*G01*
X129512Y231360D02*G75*G02X116488Y231360I-6512J4341D01*G01*
X203488Y237042D02*G75*G02X216512Y228360I6512J-4341D01*G01*
X216512Y228360D02*G75*G02X203488Y228360I-6512J4341D01*G01*
G54D49*X217853Y322056D02*Y308780D01*
X217221Y322056D02*Y308780D01*
X219752Y322056D02*X212166D01*
X210271Y321424D01*
X209635Y320792D01*
X209004Y319528D01*
Y318261D01*
X209635Y316997D01*
X210271Y316365D01*
X212166Y315734D01*
Y322056D02*X210903Y321424D01*
X210271Y320792D01*
X209635Y319528D01*
Y318261D01*
X210271Y316997D01*
X210903Y316365D01*
X212166Y315734D01*
X217221D02*X212166D01*
X210271Y315102D01*
X209635Y314470D01*
X209004Y313206D01*
Y311311D01*
X209635Y310044D01*
X210271Y309412D01*
X212166Y308780D01*
X219752D01*
X212166Y315734D02*X210903Y315102D01*
X210271Y314470D01*
X209635Y313206D01*
Y311311D01*
X210271Y310044D01*
X210903Y309412D01*
X212166Y308780D01*
X198255Y317629D02*X200151Y316997D01*
X201414Y315734D01*
X202050Y313838D01*
Y312575D01*
X201414Y310679D01*
X200151Y309412D01*
X198255Y308780D01*
X196992D01*
X195096Y309412D01*
X193833Y310679D01*
X193197Y312575D01*
Y313838D01*
X193833Y315734D01*
X195096Y316997D01*
X196992Y317629D01*
X198255D01*
X199519Y316997D01*
X200782Y315734D01*
X201414Y313838D01*
Y312575D01*
X200782Y310679D01*
X199519Y309412D01*
X198255Y308780D01*
X196992D02*X195728Y309412D01*
X194464Y310679D01*
X193833Y312575D01*
Y313838D01*
X194464Y315734D01*
X195728Y316997D01*
X196992Y317629D01*
X186239Y313838D02*X178658D01*
Y315102D01*
X179289Y316365D01*
X179921Y316997D01*
X181185Y317629D01*
X183080D01*
X184976Y316997D01*
X186239Y315734D01*
X186875Y313838D01*
Y312575D01*
X186239Y310679D01*
X184976Y309412D01*
X183080Y308780D01*
X181817D01*
X179921Y309412D01*
X178658Y310679D01*
X179289Y313838D02*Y315734D01*
X179921Y316997D01*
X183080Y317629D02*X184344Y316997D01*
X185607Y315734D01*
X186239Y313838D01*
Y312575D01*
X185607Y310679D01*
X184344Y309412D01*
X183080Y308780D01*
X170436Y317629D02*Y308780D01*
X169805Y317629D02*Y308780D01*
X163487Y317629D02*Y308780D01*
X162855Y317629D02*Y308780D01*
X172336Y317629D02*X167909D01*
X165382D02*X160956D01*
X169805Y313206D02*X163487D01*
X172336Y308780D02*X167909D01*
X165382D02*X160956D01*
X152103Y317629D02*Y308780D01*
X151471Y317629D02*Y308780D01*
X145153Y317629D02*Y308780D01*
X144521Y317629D02*Y308780D01*
X154002Y317629D02*X149575D01*
X147048D02*X142622D01*
X151471Y313206D02*X145153D01*
X154002Y308780D02*X149575D01*
X147048D02*X142622D01*
X131873Y317629D02*X133769Y316997D01*
X135032Y315734D01*
X135668Y313838D01*
Y312575D01*
X135032Y310679D01*
X133769Y309412D01*
X131873Y308780D01*
X130610D01*
X128714Y309412D01*
X127451Y310679D01*
X126815Y312575D01*
Y313838D01*
X127451Y315734D01*
X128714Y316997D01*
X130610Y317629D01*
X131873D01*
X133137Y316997D01*
X134400Y315734D01*
X135032Y313838D01*
Y312575D01*
X134400Y310679D01*
X133137Y309412D01*
X131873Y308780D01*
X130610D02*X129346Y309412D01*
X128082Y310679D01*
X127451Y312575D01*
Y313838D01*
X128082Y315734D01*
X129346Y316997D01*
X130610Y317629D01*
X119857Y313838D02*X112276D01*
Y315102D01*
X112907Y316365D01*
X113539Y316997D01*
X114803Y317629D01*
X116698D01*
X118594Y316997D01*
X119857Y315734D01*
X120493Y313838D01*
Y312575D01*
X119857Y310679D01*
X118594Y309412D01*
X116698Y308780D01*
X115435D01*
X113539Y309412D01*
X112276Y310679D01*
X112907Y313838D02*Y315734D01*
X113539Y316997D01*
X116698Y317629D02*X117962Y316997D01*
X119225Y315734D01*
X119857Y313838D01*
Y312575D01*
X119225Y310679D01*
X117962Y309412D01*
X116698Y308780D01*
X259979Y286920D02*Y278071D01*
X259347Y286920D02*Y278071D01*
X253029Y286920D02*Y278071D01*
X252397Y286920D02*Y278071D01*
X261878Y286920D02*X250498D01*
X261878Y278071D02*X257451D01*
X254924D02*X250498D01*
X241645Y286920D02*Y273645D01*
X241013Y286920D02*Y273645D01*
Y285025D02*X239749Y286289D01*
X238486Y286920D01*
X237222D01*
X235327Y286289D01*
X234063Y285025D01*
X233427Y283130D01*
Y281866D01*
X234063Y279971D01*
X235327Y278703D01*
X237222Y278071D01*
X238486D01*
X239749Y278703D01*
X241013Y279971D01*
X237222Y286920D02*X235959Y286289D01*
X234695Y285025D01*
X234063Y283130D01*
Y281866D01*
X234695Y279971D01*
X235959Y278703D01*
X237222Y278071D01*
X243544Y286920D02*X241013D01*
X243544Y273645D02*X239118D01*
X225838Y283130D02*X218256D01*
Y284393D01*
X218888Y285657D01*
X219520Y286289D01*
X220784Y286920D01*
X222679D01*
X224574Y286289D01*
X225838Y285025D01*
X226474Y283130D01*
Y281866D01*
X225838Y279971D01*
X224574Y278703D01*
X222679Y278071D01*
X221415D01*
X219520Y278703D01*
X218256Y279971D01*
X218888Y283130D02*Y285025D01*
X219520Y286289D01*
X222679Y286920D02*X223943Y286289D01*
X225206Y285025D01*
X225838Y283130D01*
Y281866D01*
X225206Y279971D01*
X223943Y278703D01*
X222679Y278071D01*
X204349Y285025D02*X204981Y284393D01*
X204349Y283761D01*
X203717Y284393D01*
Y285025D01*
X204981Y286289D01*
X206244Y286920D01*
X208140D01*
X210035Y286289D01*
X211299Y285025D01*
X211935Y283130D01*
Y281866D01*
X211299Y279971D01*
X210035Y278703D01*
X208140Y278071D01*
X206876D01*
X204981Y278703D01*
X203717Y279971D01*
X208140Y286920D02*X209403Y286289D01*
X210667Y285025D01*
X211299Y283130D01*
Y281866D01*
X210667Y279971D01*
X209403Y278703D01*
X208140Y278071D01*
X193604Y286920D02*Y278071D01*
X192973Y286920D02*Y278071D01*
X196763Y286920D02*X197395Y283761D01*
Y286920D01*
X189178D01*
Y283761D01*
X189814Y286920D01*
X195500Y278071D02*X191077D01*
X182220Y286920D02*X178430Y278071D01*
X181589Y286920D02*X178430Y279335D01*
X174639Y286920D02*X178430Y278071D01*
X179693Y275540D01*
X180957Y274277D01*
X182220Y273645D01*
X182856D01*
X183488Y274277D01*
X182856Y274908D01*
X182220Y274277D01*
X183488Y286920D02*X179693D01*
X177166D02*X173371D01*
X165782D02*Y278071D01*
X165150Y286920D02*Y278071D01*
X158832Y286920D02*Y278071D01*
X158200Y286920D02*Y278071D01*
X167681Y286920D02*X156301D01*
X167681Y278071D02*X163255D01*
X160727D02*X156301D01*
X146184Y286920D02*Y284393D01*
X146816Y280602D01*
X147448Y278703D01*
X148084Y278071D01*
X148715D01*
X149347Y278703D01*
X148715Y279335D01*
X148084Y278703D01*
X140498Y286920D02*Y278071D01*
X139866Y286920D02*Y278071D01*
X148084Y286920D02*X137967D01*
X142394Y278071D02*X137967D01*
X130378Y283130D02*X122796D01*
Y284393D01*
X123428Y285657D01*
X124060Y286289D01*
X125323Y286920D01*
X127219D01*
X129114Y286289D01*
X130378Y285025D01*
X131013Y283130D01*
Y281866D01*
X130378Y279971D01*
X129114Y278703D01*
X127219Y278071D01*
X125955D01*
X124060Y278703D01*
X122796Y279971D01*
X123428Y283130D02*Y285025D01*
X124060Y286289D01*
X127219Y286920D02*X128482Y286289D01*
X129746Y285025D01*
X130378Y283130D01*
Y281866D01*
X129746Y279971D01*
X128482Y278703D01*
X127219Y278071D01*
X114575Y286920D02*Y278071D01*
X113943Y286920D02*Y278071D01*
X107625Y286920D02*Y278071D01*
X106993Y286920D02*Y278071D01*
X116474Y286920D02*X112048D01*
X109520D02*X105094D01*
X113943Y282498D02*X107625D01*
X116474Y278071D02*X112048D01*
X109520D02*X105094D01*
X96241Y286920D02*Y278071D01*
X95609Y286920D02*Y278071D01*
X89291Y286920D02*Y278071D01*
X88659Y286920D02*Y278071D01*
X98140Y286920D02*X93714D01*
X91186D02*X86760D01*
X98140Y278071D02*X93714D01*
X91186D02*X86760D01*
X89291Y286289D02*X95609Y278703D01*
X79171Y283130D02*X71589D01*
Y284393D01*
X72221Y285657D01*
X72853Y286289D01*
X74116Y286920D01*
X76012D01*
X77907Y286289D01*
X79171Y285025D01*
X79806Y283130D01*
Y281866D01*
X79171Y279971D01*
X77907Y278703D01*
X76012Y278071D01*
X74748D01*
X72853Y278703D01*
X71589Y279971D01*
X72221Y283130D02*Y285025D01*
X72853Y286289D01*
X76012Y286920D02*X77275Y286289D01*
X78539Y285025D01*
X79171Y283130D01*
Y281866D01*
X78539Y279971D01*
X77275Y278703D01*
X76012Y278071D01*
G54D50*X119181Y37343D02*Y35843D01*
Y37343D02*X118681Y37843D01*
X118181D01*
X117681Y37343D01*
Y35843D01*
Y37343D02*X117181Y37843D01*
X116681D01*
X116181Y37343D01*
Y35843D01*
X119681Y37843D02*X119181Y37343D01*
X113481Y37843D02*X112981Y37343D01*
X114481Y37843D02*X113481D01*
X114981Y37343D02*X114481Y37843D01*
X114981Y37343D02*Y36343D01*
X114481Y35843D01*
X112981Y37843D02*Y36343D01*
X112481Y35843D01*
X114481D02*X113481D01*
X112981Y36343D01*
X109281Y39843D02*Y35843D01*
X109781D02*X109281Y36343D01*
X110781Y35843D02*X109781D01*
X111281Y36343D02*X110781Y35843D01*
X111281Y37343D02*Y36343D01*
Y37343D02*X110781Y37843D01*
X109781D01*
X109281Y37343D01*
X107581Y35843D02*X106081D01*
X108081Y36343D02*X107581Y35843D01*
X108081Y37343D02*Y36343D01*
Y37343D02*X107581Y37843D01*
X106581D01*
X106081Y37343D01*
X108081Y36843D02*X106081D01*
Y37343D01*
X103081Y37843D02*Y36343D01*
X102581Y35843D01*
X102081D01*
X101581Y36343D01*
Y37843D02*Y36343D01*
X101081Y35843D01*
X100581D01*
X100081Y36343D01*
Y37843D02*Y36343D01*
X98881Y38843D02*Y38743D01*
Y37343D02*Y35843D01*
X97381Y39843D02*Y36343D01*
X96881Y35843D01*
X97881Y38343D02*X96881D01*
X95881Y39843D02*Y35843D01*
Y37343D02*X95381Y37843D01*
X94381D01*
X93881Y37343D01*
Y35843D01*
X216000Y246701D02*Y242701D01*
X214000D01*
X212800Y244901D02*X211300D01*
X212800Y242701D02*X210800D01*
X212800Y246701D02*Y242701D01*
Y246701D02*X210800D01*
X209100D02*Y242701D01*
X207800Y246701D02*X207100Y246001D01*
Y243401D01*
X207800Y242701D02*X207100Y243401D01*
X209600Y242701D02*X207800D01*
X209600Y246701D02*X207800D01*
X205900Y246201D02*X205400Y246701D01*
X203900D01*
X203400Y246201D01*
Y245201D01*
X205900Y242701D02*X203400Y245201D01*
X205900Y242701D02*X203400D01*
X129000Y249701D02*Y245701D01*
X127000D01*
X125800Y247901D02*X124300D01*
X125800Y245701D02*X123800D01*
X125800Y249701D02*Y245701D01*
Y249701D02*X123800D01*
X122100D02*Y245701D01*
X120800Y249701D02*X120100Y249001D01*
Y246401D01*
X120800Y245701D02*X120100Y246401D01*
X122600Y245701D02*X120800D01*
X122600Y249701D02*X120800D01*
X118900Y248901D02*X118100Y249701D01*
Y245701D01*
X118900D02*X117400D01*
X17536Y26282D02*X17916Y26091D01*
X18297Y25711D01*
X18488Y25330D01*
Y24568D01*
X18297Y24187D01*
X17916Y23806D01*
X17536Y23616D01*
X16964Y23425D01*
X16011D01*
X15440Y23616D01*
X15059Y23806D01*
X14679Y24187D01*
X14488Y24568D01*
Y25330D01*
X14679Y25711D01*
X15059Y26091D01*
X15440Y26282D01*
X16011D01*
Y25330D02*Y26282D01*
X18488Y27482D02*X14488D01*
X18488D02*X14488Y30148D01*
X18488D02*X14488D01*
X18488Y31348D02*X14488D01*
X18488D02*Y32682D01*
X18297Y33253D01*
X17916Y33634D01*
X17536Y33824D01*
X16964Y34014D01*
X16011D01*
X15440Y33824D01*
X15059Y33634D01*
X14679Y33253D01*
X14488Y32682D01*
Y31348D01*
X193143Y104249D02*X193334Y104629D01*
X193715Y105010D01*
X194095Y105201D01*
X194858D01*
X195238Y105010D01*
X195620Y104629D01*
X195810Y104249D01*
X196000Y103677D01*
Y102724D01*
X195810Y102153D01*
X195620Y101772D01*
X195238Y101392D01*
X194858Y101201D01*
X194095D01*
X193715Y101392D01*
X193334Y101772D01*
X193143Y102153D01*
X191943Y105201D02*Y101201D01*
X189791Y103868D02*X190173Y103679D01*
X190554Y103298D01*
X190743Y102727D01*
Y102345D01*
X190554Y101774D01*
X190173Y101393D01*
X189791Y101202D01*
X189220D01*
X188839Y101393D01*
X188459Y101774D01*
X188268Y102345D01*
Y102727D01*
X188459Y103298D01*
X188839Y103679D01*
X189220Y103868D01*
X189791D01*
X187068D02*X186307Y101202D01*
X185545Y103868D02*X186307Y101202D01*
X185545Y103868D02*X184782Y101202D01*
X184021Y103868D02*X184782Y101202D01*
X182821Y103868D02*Y101202D01*
Y103107D02*X182249Y103679D01*
X181869Y103868D01*
X181297D01*
X180917Y103679D01*
X180726Y103107D01*
Y101202D01*
X179526Y103201D02*X177026D01*
X175826Y105201D02*Y101201D01*
Y105201D02*X173160Y101201D01*
Y105201D02*Y101201D01*
X171770Y103877D02*Y101211D01*
X171960Y105211D02*X171770Y105020D01*
X171579Y105211D01*
X171770Y105401D01*
X171960Y105211D01*
X168093Y103868D02*Y100822D01*
X168284Y100250D01*
X168475Y100059D01*
X168855Y99870D01*
X169427D01*
X169807Y100059D01*
X168093Y103298D02*X168475Y103679D01*
X168855Y103868D01*
X169427D01*
X169807Y103679D01*
X170189Y103298D01*
X170379Y102727D01*
Y102345D01*
X170189Y101774D01*
X169807Y101393D01*
X169427Y101202D01*
X168855D01*
X168475Y101393D01*
X168093Y101774D01*
X166893Y105201D02*Y101201D01*
Y103106D02*X166323Y103678D01*
X165941Y103868D01*
X165370D01*
X164989Y103678D01*
X164798Y103106D01*
Y101201D01*
X163026Y105201D02*Y101963D01*
X162837Y101392D01*
X162455Y101201D01*
X162074D01*
X163598Y103868D02*X162265D01*
X160874Y103201D02*X158374D01*
X157174Y105201D02*Y101201D01*
X154889D01*
X153499Y103877D02*Y101211D01*
X153689Y105211D02*X153499Y105020D01*
X153308Y105211D01*
X153499Y105401D01*
X153689Y105211D01*
X149822Y103868D02*Y100822D01*
X150013Y100250D01*
X150204Y100059D01*
X150584Y99870D01*
X151156D01*
X151536Y100059D01*
X149822Y103298D02*X150204Y103679D01*
X150584Y103868D01*
X151156D01*
X151536Y103679D01*
X151918Y103298D01*
X152108Y102727D01*
Y102345D01*
X151918Y101774D01*
X151536Y101393D01*
X151156Y101202D01*
X150584D01*
X150204Y101393D01*
X149822Y101774D01*
X148622Y105201D02*Y101201D01*
Y103106D02*X148052Y103678D01*
X147670Y103868D01*
X147099D01*
X146718Y103678D01*
X146527Y103106D01*
Y101201D01*
X144755Y105201D02*Y101963D01*
X144566Y101392D01*
X144184Y101201D01*
X143803D01*
X145327Y103868D02*X143994D01*
X142603Y103201D02*X140103D01*
X138903Y103868D02*X137761Y101202D01*
X136619Y103868D02*X137761Y101202D01*
X135419Y104440D02*X135039Y104630D01*
X134467Y105201D01*
Y101201D01*
X242406Y44035D02*Y40035D01*
X240121D01*
X238921Y44035D02*Y40035D01*
Y44035D02*X236445D01*
X238921Y42130D02*X237398D01*
X238921Y40035D02*X236445D01*
X235245Y44035D02*Y40035D01*
Y44035D02*X233911D01*
X233340Y43844D01*
X232959Y43463D01*
X232769Y43083D01*
X232579Y42511D01*
Y41558D01*
X232769Y40987D01*
X232959Y40606D01*
X233340Y40226D01*
X233911Y40035D01*
X235245D01*
X231378Y43274D02*X230998Y43464D01*
X230426Y44035D01*
Y40035D01*
X228845Y40144D02*X229035Y39955D01*
X229226Y40144D01*
X229035Y40335D01*
X228845Y40144D01*
Y39764D01*
X229226Y39383D01*
X225845Y44035D02*Y40035D01*
X223560D01*
X222360Y44035D02*Y40035D01*
Y44035D02*X219884D01*
X222360Y42130D02*X220837D01*
X222360Y40035D02*X219884D01*
X218684Y44035D02*Y40035D01*
Y44035D02*X217350D01*
X216779Y43844D01*
X216398Y43463D01*
X216208Y43083D01*
X216018Y42511D01*
Y41558D01*
X216208Y40987D01*
X216398Y40606D01*
X216779Y40226D01*
X217350Y40035D01*
X218684D01*
X214628Y43083D02*Y43274D01*
X214437Y43654D01*
X214248Y43845D01*
X213866Y44035D01*
X213105D01*
X212723Y43845D01*
X212533Y43654D01*
X212343Y43274D01*
Y42892D01*
X212533Y42511D01*
X212914Y41940D01*
X214818Y40035D01*
X212152D01*
X210762Y41635D02*X210952Y41444D01*
X210762Y41254D01*
X210572Y41444D01*
X210762Y41635D01*
Y40301D02*X210952Y40110D01*
X210762Y39921D01*
X210572Y40110D01*
X210762Y40301D01*
X203592Y44035D02*X201497D01*
X202640Y42511D01*
X202068D01*
X201688Y42322D01*
X201497Y42131D01*
X201306Y41559D01*
Y41179D01*
X201497Y40607D01*
X201877Y40226D01*
X202449Y40035D01*
X203020D01*
X203592Y40226D01*
X203782Y40417D01*
X203972Y40797D01*
X200106Y42702D02*Y40036D01*
Y41941D02*X199536Y42513D01*
X199154Y42702D01*
X198583D01*
X198202Y42513D01*
X198012Y41941D01*
Y40036D01*
Y41941D02*X197440Y42513D01*
X197060Y42702D01*
X196488D01*
X196108Y42513D01*
X195917Y41941D01*
Y40036D01*
X194717Y42702D02*Y40036D01*
Y41941D02*X194147Y42513D01*
X193765Y42702D01*
X193194D01*
X192813Y42513D01*
X192623Y41941D01*
Y40036D01*
Y41941D02*X192051Y42513D01*
X191671Y42702D01*
X191099D01*
X190719Y42513D01*
X190528Y41941D01*
Y40036D01*
X45562Y26137D02*Y28137D01*
Y26137D02*X43562D01*
X44062Y26637D01*
Y27637D01*
X43562Y28137D01*
X42062D01*
X41562Y27637D02*X42062Y28137D01*
X41562Y26637D02*Y27637D01*
X42062Y26137D02*X41562Y26637D01*
X45562Y29337D02*X41562Y30337D01*
X45562Y31337D01*
X242406Y53035D02*Y49035D01*
Y53035D02*X240692D01*
X240121Y52844D01*
X239930Y52654D01*
X239740Y52273D01*
Y51892D01*
X239930Y51511D01*
X240121Y51321D01*
X240692Y51130D01*
X242406D01*
X241073D02*X239740Y49035D01*
X238540Y52274D02*X238160Y52464D01*
X237588Y53035D01*
Y49035D01*
X236007Y49144D02*X236197Y48955D01*
X236388Y49144D01*
X236197Y49335D01*
X236007Y49144D01*
Y48764D01*
X236388Y48383D01*
X233006Y53035D02*Y49035D01*
Y53035D02*X231293D01*
X230722Y52844D01*
X230530Y52654D01*
X230341Y52273D01*
Y51892D01*
X230530Y51511D01*
X230722Y51321D01*
X231293Y51130D01*
X233006D01*
X231674D02*X230341Y49035D01*
X228950Y52083D02*Y52274D01*
X228759Y52654D01*
X228570Y52845D01*
X228188Y53035D01*
X227427D01*
X227045Y52845D01*
X226855Y52654D01*
X226665Y52274D01*
Y51892D01*
X226855Y51511D01*
X227236Y50940D01*
X229140Y49035D01*
X226474D01*
X225084Y50635D02*X225274Y50444D01*
X225084Y50254D01*
X224894Y50444D01*
X225084Y50635D01*
Y49301D02*X225274Y49110D01*
X225084Y48921D01*
X224894Y49110D01*
X225084Y49301D01*
X216494Y52274D02*X216114Y52464D01*
X215542Y53035D01*
Y49035D01*
X214152Y52083D02*Y52274D01*
X213961Y52654D01*
X213772Y52845D01*
X213390Y53035D01*
X212629D01*
X212247Y52845D01*
X212057Y52654D01*
X211867Y52274D01*
Y51892D01*
X212057Y51511D01*
X212438Y50940D01*
X214342Y49035D01*
X211676D01*
X209333Y53035D02*X209904Y52845D01*
X210286Y52274D01*
X210476Y51322D01*
Y50750D01*
X210286Y49797D01*
X209904Y49226D01*
X209333Y49035D01*
X208952D01*
X208381Y49226D01*
X208000Y49797D01*
X207809Y50750D01*
Y51322D01*
X208000Y52274D01*
X208381Y52845D01*
X208952Y53035D01*
X209333D01*
X206609D02*Y49035D01*
Y53035D02*X204895D01*
X204324Y52844D01*
X204133Y52654D01*
X203943Y52273D01*
Y51892D01*
X204133Y51511D01*
X204324Y51321D01*
X204895Y51130D01*
X206609D01*
X205276D02*X203943Y49035D01*
X289663Y55528D02*X289854Y55908D01*
X290234Y56289D01*
X290615Y56480D01*
X291377D01*
X291758Y56289D01*
X292139Y55908D01*
X292329Y55528D01*
X292520Y54956D01*
Y54003D01*
X292329Y53432D01*
X292139Y53051D01*
X291758Y52671D01*
X291377Y52480D01*
X290615D01*
X290234Y52671D01*
X289854Y53051D01*
X289663Y53432D01*
Y54003D01*
X290615D02*X289663D01*
X288463Y56480D02*Y52480D01*
Y56480D02*X285797Y52480D01*
Y56480D02*Y52480D01*
X284597Y56480D02*Y52480D01*
Y56480D02*X283263D01*
X282692Y56289D01*
X282311Y55908D01*
X282121Y55528D01*
X281931Y54956D01*
Y54003D01*
X282121Y53432D01*
X282311Y53051D01*
X282692Y52671D01*
X283263Y52480D01*
X284597D01*
X288068Y27150D02*X289973D01*
X290164Y25437D01*
X289973Y25626D01*
X289402Y25817D01*
X288830D01*
X288259Y25626D01*
X287878Y25246D01*
X287687Y24674D01*
Y24294D01*
X287878Y23722D01*
X288259Y23341D01*
X288830Y23150D01*
X289402D01*
X289973Y23341D01*
X290164Y23532D01*
X290354Y23912D01*
X286487Y27150D02*X284964Y23150D01*
X283439Y27150D02*X284964Y23150D01*
X305906Y68299D02*Y64799D01*
X305406Y64299D01*
X304406D01*
X303906Y64799D01*
Y68299D02*Y64799D01*
X300706Y68299D02*X300206Y67799D01*
X302206Y68299D02*X300706D01*
X302706Y67799D02*X302206Y68299D01*
X302706Y67799D02*Y66799D01*
X302206Y66299D01*
X300706D01*
X300206Y65799D01*
Y64799D01*
X300706Y64299D02*X300206Y64799D01*
X302206Y64299D02*X300706D01*
X302706Y64799D02*X302206Y64299D01*
X299006D02*X297006D01*
X296506Y64799D01*
Y65999D02*Y64799D01*
X297006Y66499D02*X296506Y65999D01*
X298506Y66499D02*X297006D01*
X298506Y68299D02*Y64299D01*
X299006Y68299D02*X297006D01*
X296506Y67799D01*
Y66999D01*
X297006Y66499D02*X296506Y66999D01*
M02*
