G04 start of page 2 for group 10 layer_idx 1 *
G04 Title: (unknown), bottom_copper *
G04 Creator: pcb-rnd 3.1.4-dev *
G04 CreationDate: 2024-02-11 09:55:08 UTC *
G04 For: STEM4ukraine *
G04 Format: Gerber/RS-274X *
G04 PCB-Dimensions: 334646 393701 *
G04 PCB-Coordinate-Origin: lower left *
%MOIN*%
%FSLAX25Y25*%
%LNBOTTOM_COPPER_NONE_10*%
%ADD36C,0.0362*%
%ADD35C,0.0906*%
%ADD34C,0.0394*%
%ADD33C,0.1220*%
%ADD32C,0.0827*%
%ADD31C,0.1535*%
%ADD30C,0.0800*%
%ADD29C,0.0200*%
%ADD28C,0.0001*%
G54D28*G36*
X313986Y19732D02*Y37114D01*
X314135Y37198D01*
X314289Y37321D01*
X314422Y37466D01*
X314527Y37632D01*
X314951Y38466D01*
X315288Y39339D01*
X315542Y40239D01*
X315713Y41159D01*
X315799Y42091D01*
Y43027D01*
X315713Y43959D01*
X315542Y44879D01*
X315288Y45779D01*
X314951Y46652D01*
X314536Y47491D01*
X314428Y47657D01*
X314295Y47803D01*
X314140Y47927D01*
X313986Y48014D01*
Y75982D01*
X324803Y19732D01*
X313986D01*
G37*
G36*
X305626D02*Y32382D01*
X306090D01*
X307022Y32468D01*
X307942Y32639D01*
X308842Y32893D01*
X309715Y33230D01*
X310554Y33645D01*
X310720Y33753D01*
X310866Y33886D01*
X310990Y34041D01*
X311087Y34214D01*
X311157Y34399D01*
X311196Y34593D01*
X311205Y34791D01*
X311183Y34988D01*
X311130Y35178D01*
X311048Y35359D01*
X310939Y35524D01*
X310805Y35670D01*
X310650Y35793D01*
X310478Y35891D01*
X310293Y35961D01*
X310099Y36000D01*
X309901Y36009D01*
X309704Y35987D01*
X309513Y35934D01*
X309335Y35849D01*
X308707Y35529D01*
X308049Y35275D01*
X307370Y35084D01*
X306677Y34955D01*
X305975Y34890D01*
X305626D01*
Y50228D01*
X305975D01*
X306677Y50163D01*
X307370Y50035D01*
X308049Y49843D01*
X308707Y49589D01*
X309339Y49277D01*
X309516Y49192D01*
X309706Y49139D01*
X309901Y49117D01*
X310098Y49126D01*
X310290Y49165D01*
X310475Y49234D01*
X310646Y49331D01*
X310800Y49454D01*
X310932Y49599D01*
X311041Y49763D01*
X311122Y49942D01*
X311175Y50132D01*
X311197Y50328D01*
X311188Y50524D01*
X311149Y50717D01*
X311080Y50901D01*
X310983Y51072D01*
X310860Y51226D01*
X310715Y51359D01*
X310549Y51464D01*
X309715Y51888D01*
X308842Y52225D01*
X307942Y52479D01*
X307022Y52650D01*
X306090Y52736D01*
X305626D01*
Y119450D01*
X313986Y75982D01*
Y48014D01*
X313968Y48024D01*
X313782Y48094D01*
X313588Y48133D01*
X313390Y48142D01*
X313194Y48120D01*
X313003Y48067D01*
X312822Y47985D01*
X312657Y47876D01*
X312511Y47742D01*
X312388Y47587D01*
X312290Y47415D01*
X312221Y47230D01*
X312181Y47036D01*
X312172Y46838D01*
X312194Y46641D01*
X312247Y46450D01*
X312332Y46272D01*
X312652Y45644D01*
X312906Y44986D01*
X313098Y44307D01*
X313226Y43614D01*
X313291Y42912D01*
Y42206D01*
X313226Y41504D01*
X313098Y40811D01*
X312906Y40132D01*
X312652Y39474D01*
X312340Y38842D01*
X312255Y38665D01*
X312202Y38476D01*
X312180Y38280D01*
X312189Y38083D01*
X312228Y37891D01*
X312297Y37706D01*
X312394Y37535D01*
X312517Y37381D01*
X312662Y37249D01*
X312826Y37140D01*
X313005Y37059D01*
X313195Y37006D01*
X313391Y36984D01*
X313587Y36993D01*
X313780Y37032D01*
X313964Y37101D01*
X313986Y37114D01*
Y19732D01*
X305626D01*
G37*
G36*
X297258D02*Y37104D01*
X297277Y37094D01*
X297462Y37024D01*
X297656Y36985D01*
X297854Y36976D01*
X298051Y36998D01*
X298241Y37051D01*
X298422Y37133D01*
X298587Y37242D01*
X298733Y37376D01*
X298856Y37531D01*
X298954Y37703D01*
X299024Y37888D01*
X299063Y38082D01*
X299072Y38280D01*
X299050Y38477D01*
X298997Y38668D01*
X298912Y38846D01*
X298592Y39474D01*
X298338Y40132D01*
X298147Y40811D01*
X298018Y41504D01*
X297953Y42206D01*
Y42912D01*
X298018Y43614D01*
X298147Y44307D01*
X298338Y44986D01*
X298592Y45644D01*
X298904Y46276D01*
X298989Y46453D01*
X299042Y46643D01*
X299064Y46838D01*
X299055Y47035D01*
X299016Y47227D01*
X298947Y47412D01*
X298850Y47583D01*
X298727Y47737D01*
X298582Y47870D01*
X298418Y47978D01*
X298239Y48059D01*
X298049Y48112D01*
X297854Y48134D01*
X297657Y48125D01*
X297464Y48086D01*
X297280Y48017D01*
X297258Y48005D01*
Y162960D01*
X305626Y119450D01*
Y52736D01*
X305154D01*
X304222Y52650D01*
X303302Y52479D01*
X302402Y52225D01*
X301529Y51888D01*
X300690Y51474D01*
X300524Y51365D01*
X300378Y51232D01*
X300255Y51077D01*
X300157Y50905D01*
X300087Y50719D01*
X300048Y50525D01*
X300039Y50327D01*
X300061Y50131D01*
X300114Y49940D01*
X300196Y49759D01*
X300305Y49594D01*
X300439Y49448D01*
X300594Y49325D01*
X300766Y49227D01*
X300951Y49158D01*
X301145Y49118D01*
X301343Y49109D01*
X301540Y49131D01*
X301731Y49184D01*
X301909Y49270D01*
X302537Y49589D01*
X303195Y49843D01*
X303874Y50035D01*
X304567Y50163D01*
X305269Y50228D01*
X305626D01*
Y34890D01*
X305269D01*
X304567Y34955D01*
X303874Y35084D01*
X303195Y35275D01*
X302537Y35529D01*
X301905Y35842D01*
X301728Y35926D01*
X301539Y35979D01*
X301343Y36001D01*
X301146Y35992D01*
X300954Y35953D01*
X300769Y35884D01*
X300598Y35787D01*
X300444Y35664D01*
X300312Y35519D01*
X300203Y35355D01*
X300122Y35176D01*
X300069Y34986D01*
X300047Y34791D01*
X300056Y34594D01*
X300095Y34401D01*
X300164Y34217D01*
X300261Y34046D01*
X300384Y33892D01*
X300529Y33759D01*
X300695Y33654D01*
X301529Y33230D01*
X302402Y32893D01*
X303302Y32639D01*
X304222Y32468D01*
X305154Y32382D01*
X305626D01*
Y19732D01*
X297258D01*
G37*
G36*
X291776D02*Y30032D01*
X291820Y30084D01*
X292325Y30907D01*
X292694Y31799D01*
X292920Y32738D01*
X292976Y33701D01*
X292920Y34663D01*
X292694Y35602D01*
X292325Y36494D01*
X291820Y37317D01*
X291776Y37369D01*
Y43338D01*
X291811Y43344D01*
X291960Y43392D01*
X292101Y43463D01*
X292228Y43555D01*
X292340Y43666D01*
X292433Y43793D01*
X292502Y43934D01*
X292694Y44439D01*
X292834Y44960D01*
X292929Y45491D01*
X292976Y46029D01*
Y46569D01*
X292929Y47107D01*
X292834Y47639D01*
X292694Y48160D01*
X292508Y48667D01*
X292436Y48808D01*
X292343Y48935D01*
X292231Y49047D01*
X292103Y49139D01*
X291962Y49210D01*
X291811Y49259D01*
X291776Y49264D01*
Y191469D01*
X297258Y162960D01*
Y48005D01*
X297109Y47920D01*
X296955Y47797D01*
X296822Y47652D01*
X296717Y47486D01*
X296293Y46652D01*
X295956Y45779D01*
X295702Y44879D01*
X295531Y43959D01*
X295445Y43027D01*
Y42091D01*
X295531Y41159D01*
X295702Y40239D01*
X295956Y39339D01*
X296293Y38466D01*
X296708Y37627D01*
X296816Y37461D01*
X296949Y37315D01*
X297104Y37192D01*
X297258Y37104D01*
Y19732D01*
X291776D01*
G37*
G36*
X291193Y38051D02*X290459Y38678D01*
X289636Y39183D01*
X288744Y39552D01*
X287805Y39778D01*
X286845Y39853D01*
Y40165D01*
X287112D01*
X287650Y40213D01*
X288182Y40307D01*
X288703Y40448D01*
X289210Y40634D01*
X289351Y40705D01*
X289478Y40799D01*
X289590Y40911D01*
X289682Y41039D01*
X289754Y41180D01*
X289802Y41330D01*
X289826Y41486D01*
X289826Y41644D01*
X289801Y41800D01*
X289751Y41951D01*
X289679Y42091D01*
X289586Y42219D01*
X289474Y42330D01*
X289346Y42423D01*
X289204Y42494D01*
X289054Y42542D01*
X288898Y42567D01*
X288740Y42566D01*
X288584Y42541D01*
X288435Y42489D01*
X288095Y42360D01*
X287744Y42265D01*
X287386Y42201D01*
X287024Y42169D01*
X286845D01*
Y50429D01*
X287024D01*
X287386Y50397D01*
X287744Y50334D01*
X288095Y50239D01*
X288436Y50113D01*
X288585Y50061D01*
X288740Y50036D01*
X288898Y50036D01*
X289053Y50060D01*
X289203Y50108D01*
X289343Y50179D01*
X289471Y50271D01*
X289583Y50382D01*
X289676Y50509D01*
X289748Y50649D01*
X289797Y50799D01*
X289822Y50954D01*
X289822Y51112D01*
X289798Y51267D01*
X289750Y51417D01*
X289679Y51558D01*
X289587Y51685D01*
X289476Y51797D01*
X289349Y51890D01*
X289208Y51959D01*
X288703Y52150D01*
X288182Y52291D01*
X287650Y52386D01*
X287112Y52433D01*
X286845D01*
Y217111D01*
X291776Y191469D01*
Y49264D01*
X291655Y49283D01*
X291497Y49282D01*
X291341Y49257D01*
X291191Y49208D01*
X291051Y49136D01*
X290923Y49042D01*
X290812Y48930D01*
X290719Y48802D01*
X290648Y48661D01*
X290599Y48511D01*
X290575Y48355D01*
X290576Y48197D01*
X290601Y48041D01*
X290653Y47892D01*
X290782Y47552D01*
X290877Y47201D01*
X290940Y46843D01*
X290972Y46481D01*
Y46117D01*
X290940Y45755D01*
X290877Y45397D01*
X290782Y45047D01*
X290657Y44705D01*
X290605Y44557D01*
X290580Y44402D01*
X290579Y44244D01*
X290603Y44089D01*
X290652Y43939D01*
X290723Y43798D01*
X290815Y43671D01*
X290926Y43559D01*
X291053Y43466D01*
X291193Y43394D01*
X291342Y43345D01*
X291498Y43320D01*
X291655Y43320D01*
X291776Y43338D01*
Y37369D01*
X291193Y38051D01*
G37*
G36*
X286845Y19732D02*Y25897D01*
X287125Y26203D01*
X287744Y27010D01*
X288195Y27717D01*
X288744Y27849D01*
X289636Y28219D01*
X290459Y28723D01*
X291193Y29350D01*
X291776Y30032D01*
Y19732D01*
X286845D01*
G37*
G36*
X286843Y39854D02*X285880Y39778D01*
X284941Y39552D01*
X284049Y39183D01*
X283226Y38678D01*
X282492Y38051D01*
X281921Y37383D01*
X281351Y38051D01*
X280617Y38678D01*
X279793Y39183D01*
X278901Y39552D01*
X277963Y39778D01*
X277000Y39854D01*
X276991Y39853D01*
Y40147D01*
X277000Y40146D01*
X277963Y40222D01*
X278901Y40448D01*
X279793Y40817D01*
X280617Y41322D01*
X281351Y41949D01*
X281978Y42683D01*
X282391Y43357D01*
X282494Y43391D01*
X282635Y43463D01*
X282762Y43556D01*
X282873Y43668D01*
X282966Y43796D01*
X283037Y43937D01*
X283086Y44088D01*
X283110Y44244D01*
X283109Y44402D01*
X283084Y44558D01*
X283032Y44707D01*
X282967Y44878D01*
X283077Y45337D01*
X283134Y46299D01*
X283077Y47262D01*
X282966Y47724D01*
X283028Y47893D01*
X283080Y48041D01*
X283105Y48197D01*
X283106Y48354D01*
X283082Y48510D01*
X283034Y48660D01*
X282963Y48800D01*
X282870Y48928D01*
X282759Y49039D01*
X282632Y49132D01*
X282492Y49204D01*
X282394Y49237D01*
X281978Y49916D01*
X281351Y50650D01*
X280617Y51277D01*
X279793Y51781D01*
X278901Y52151D01*
X277963Y52376D01*
X277000Y52452D01*
X276991Y52451D01*
Y268350D01*
X286845Y217111D01*
Y52433D01*
X286573D01*
X286035Y52386D01*
X285503Y52291D01*
X284982Y52150D01*
X284475Y51964D01*
X284334Y51893D01*
X284207Y51800D01*
X284095Y51688D01*
X284003Y51560D01*
X283931Y51419D01*
X283883Y51268D01*
X283859Y51112D01*
X283859Y50954D01*
X283885Y50798D01*
X283934Y50648D01*
X284006Y50507D01*
X284099Y50380D01*
X284211Y50268D01*
X284340Y50176D01*
X284481Y50104D01*
X284631Y50056D01*
X284787Y50032D01*
X284945Y50032D01*
X285101Y50058D01*
X285250Y50110D01*
X285590Y50239D01*
X285941Y50334D01*
X286299Y50397D01*
X286661Y50429D01*
X286845D01*
Y42169D01*
X286661D01*
X286299Y42201D01*
X285941Y42265D01*
X285590Y42360D01*
X285249Y42485D01*
X285100Y42537D01*
X284945Y42562D01*
X284787Y42563D01*
X284632Y42538D01*
X284482Y42490D01*
X284342Y42419D01*
X284214Y42327D01*
X284102Y42216D01*
X284009Y42089D01*
X283938Y41949D01*
X283888Y41800D01*
X283863Y41644D01*
X283863Y41487D01*
X283887Y41331D01*
X283935Y41181D01*
X284006Y41041D01*
X284098Y40913D01*
X284209Y40802D01*
X284336Y40709D01*
X284477Y40640D01*
X284982Y40448D01*
X285503Y40307D01*
X286035Y40213D01*
X286573Y40165D01*
X286845D01*
Y39853D01*
X286843Y39854D01*
G37*
G36*
X276037Y39778D02*X275099Y39552D01*
X274207Y39183D01*
X273383Y38678D01*
X272649Y38051D01*
X272022Y37317D01*
X271518Y36494D01*
X271148Y35602D01*
X270923Y34663D01*
X270847Y33701D01*
X270923Y32738D01*
X271148Y31799D01*
X271518Y30907D01*
X272022Y30084D01*
X272649Y29350D01*
X273383Y28723D01*
X274207Y28219D01*
X274620Y28047D01*
X266584D01*
Y37114D01*
X266734Y37198D01*
X266888Y37321D01*
X267020Y37466D01*
X267126Y37632D01*
X267550Y38466D01*
X267886Y39339D01*
X268141Y40239D01*
X268312Y41159D01*
X268398Y42091D01*
Y43027D01*
X268312Y43959D01*
X268141Y44879D01*
X267886Y45779D01*
X267550Y46652D01*
X267135Y47491D01*
X267027Y47657D01*
X266893Y47803D01*
X266738Y47927D01*
X266584Y48014D01*
Y138766D01*
X266773Y138928D01*
X267029Y139227D01*
X267234Y139562D01*
X267385Y139926D01*
X267477Y140308D01*
X267508Y140701D01*
X267500Y140799D01*
Y148603D01*
X267508Y148701D01*
X267477Y149093D01*
X267477Y149093D01*
X267385Y149476D01*
X267234Y149839D01*
X267029Y150175D01*
X266773Y150474D01*
X266584Y150636D01*
Y171373D01*
X266809Y171741D01*
X267201Y172686D01*
X267440Y173681D01*
X267500Y174701D01*
X267440Y175721D01*
X267201Y176716D01*
X266809Y177661D01*
X266584Y178029D01*
Y303301D01*
X275000Y278701D01*
X276991Y268350D01*
Y52451D01*
X276037Y52376D01*
X275099Y52151D01*
X274207Y51781D01*
X273383Y51277D01*
X272649Y50650D01*
X272022Y49916D01*
X271518Y49093D01*
X271148Y48201D01*
X270923Y47262D01*
X270847Y46299D01*
X270923Y45337D01*
X271148Y44398D01*
X271518Y43506D01*
X272022Y42683D01*
X272649Y41949D01*
X273383Y41322D01*
X274207Y40817D01*
X275099Y40448D01*
X276037Y40222D01*
X276991Y40147D01*
Y39853D01*
X276037Y39778D01*
G37*
G36*
X266584Y19732D02*Y22047D01*
X278189D01*
X278189Y22047D01*
X279206Y22081D01*
X280215Y22213D01*
X281208Y22434D01*
X282179Y22740D01*
X283119Y23129D01*
X284021Y23599D01*
X284880Y24146D01*
X285687Y24765D01*
X286437Y25453D01*
X286845Y25897D01*
Y19732D01*
X266584D01*
G37*
G36*
X266275Y178533D02*X265610Y179311D01*
X264832Y179976D01*
X263960Y180510D01*
X263015Y180902D01*
X262020Y181141D01*
X261000Y181221D01*
X259980Y181141D01*
X258985Y180902D01*
X258225Y180587D01*
Y322993D01*
X262000Y316701D01*
X266584Y303301D01*
Y178029D01*
X266275Y178533D01*
G37*
G36*
X266474Y150730D02*X266138Y150935D01*
X265775Y151086D01*
X265392Y151178D01*
X265000Y151208D01*
X264902Y151201D01*
X258225D01*
Y168815D01*
X258985Y168500D01*
X259980Y168261D01*
X261000Y168181D01*
X262020Y168261D01*
X263015Y168500D01*
X263960Y168891D01*
X264832Y169426D01*
X265610Y170090D01*
X266275Y170868D01*
X266584Y171373D01*
Y150636D01*
X266474Y150730D01*
G37*
G36*
X258225Y28047D02*Y32382D01*
X258688D01*
X259620Y32468D01*
X260540Y32639D01*
X261441Y32893D01*
X262314Y33230D01*
X263153Y33645D01*
X263318Y33753D01*
X263465Y33886D01*
X263588Y34041D01*
X263686Y34214D01*
X263755Y34399D01*
X263795Y34593D01*
X263804Y34791D01*
X263781Y34988D01*
X263728Y35178D01*
X263647Y35359D01*
X263537Y35524D01*
X263404Y35670D01*
X263249Y35793D01*
X263077Y35891D01*
X262891Y35961D01*
X262697Y36000D01*
X262499Y36009D01*
X262302Y35987D01*
X262112Y35934D01*
X261933Y35849D01*
X261305Y35529D01*
X260647Y35275D01*
X259968Y35084D01*
X259275Y34955D01*
X258573Y34890D01*
X258225D01*
Y50228D01*
X258573D01*
X259275Y50163D01*
X259968Y50035D01*
X260647Y49843D01*
X261305Y49589D01*
X261937Y49277D01*
X262114Y49192D01*
X262304Y49139D01*
X262500Y49117D01*
X262696Y49126D01*
X262889Y49165D01*
X263073Y49234D01*
X263244Y49331D01*
X263398Y49454D01*
X263531Y49599D01*
X263639Y49763D01*
X263721Y49942D01*
X263773Y50132D01*
X263795Y50328D01*
X263787Y50524D01*
X263747Y50717D01*
X263678Y50901D01*
X263581Y51072D01*
X263459Y51226D01*
X263313Y51359D01*
X263147Y51464D01*
X262314Y51888D01*
X261441Y52225D01*
X260540Y52479D01*
X259620Y52650D01*
X258688Y52736D01*
X258225D01*
Y138201D01*
X264902D01*
X265000Y138193D01*
X265392Y138224D01*
X265392Y138224D01*
X265775Y138316D01*
X266138Y138466D01*
X266474Y138672D01*
X266584Y138766D01*
Y48014D01*
X266566Y48024D01*
X266381Y48094D01*
X266187Y48133D01*
X265989Y48142D01*
X265792Y48120D01*
X265601Y48067D01*
X265421Y47985D01*
X265256Y47876D01*
X265110Y47742D01*
X264986Y47587D01*
X264888Y47415D01*
X264819Y47230D01*
X264779Y47036D01*
X264771Y46838D01*
X264793Y46641D01*
X264846Y46450D01*
X264931Y46272D01*
X265251Y45644D01*
X265504Y44986D01*
X265696Y44307D01*
X265825Y43614D01*
X265890Y42912D01*
Y42206D01*
X265825Y41504D01*
X265696Y40811D01*
X265504Y40132D01*
X265251Y39474D01*
X264938Y38842D01*
X264853Y38665D01*
X264801Y38476D01*
X264779Y38280D01*
X264787Y38083D01*
X264827Y37891D01*
X264896Y37706D01*
X264993Y37535D01*
X265115Y37381D01*
X265261Y37249D01*
X265425Y37140D01*
X265604Y37059D01*
X265794Y37006D01*
X265989Y36984D01*
X266186Y36993D01*
X266378Y37032D01*
X266563Y37101D01*
X266584Y37114D01*
Y28047D01*
X258225D01*
G37*
G36*
Y19732D02*Y22047D01*
X266584D01*
Y19732D01*
X258225D01*
G37*
G36*
X258040Y180510D02*X257168Y179976D01*
X256390Y179311D01*
X255725Y178533D01*
X255215Y177701D01*
X244103D01*
X244071Y177703D01*
X243897Y177708D01*
X243724Y177731D01*
X243553Y177769D01*
X243387Y177821D01*
X243226Y177888D01*
X243071Y177969D01*
X242924Y178062D01*
X242785Y178169D01*
X242657Y178287D01*
X242657Y178287D01*
X233515Y187429D01*
Y346954D01*
X234000Y346701D01*
X242000Y335701D01*
X256000Y326701D01*
X258225Y322993D01*
Y180587D01*
X258040Y180510D01*
G37*
G36*
X257098Y151201D02*X257000Y151208D01*
X256608Y151178D01*
X256608Y151178D01*
X256225Y151086D01*
X255862Y150935D01*
X255526Y150730D01*
X255227Y150474D01*
X254971Y150175D01*
X254766Y149839D01*
X254615Y149476D01*
X254523Y149093D01*
X254492Y148701D01*
X254500Y148603D01*
Y147701D01*
X250588D01*
X250499Y147696D01*
X250410Y147701D01*
X249712Y147678D01*
X249019Y147587D01*
X248337Y147436D01*
X247671Y147225D01*
X247025Y146958D01*
X246406Y146636D01*
X245817Y146260D01*
X245262Y145835D01*
X244747Y145363D01*
X244677Y145282D01*
X238288Y138893D01*
X238288Y138893D01*
X237811Y138383D01*
X237385Y137829D01*
X237010Y137240D01*
X236688Y136620D01*
X236420Y135975D01*
X236210Y135309D01*
X236059Y134627D01*
X235968Y133934D01*
X235937Y133236D01*
X235945Y133129D01*
Y28047D01*
X233515D01*
Y178944D01*
X238414Y174044D01*
X238414Y174044D01*
X238924Y173567D01*
X239478Y173141D01*
X240067Y172766D01*
X240687Y172443D01*
X241332Y172176D01*
X241999Y171966D01*
X242681Y171815D01*
X243373Y171724D01*
X244071Y171693D01*
X244178Y171701D01*
X255215D01*
X255725Y170868D01*
X256390Y170090D01*
X257168Y169426D01*
X258040Y168891D01*
X258225Y168815D01*
Y151201D01*
X257098D01*
G37*
G36*
X249857Y28047D02*Y37104D01*
X249875Y37094D01*
X250060Y37024D01*
X250254Y36985D01*
X250452Y36976D01*
X250649Y36998D01*
X250840Y37051D01*
X251020Y37133D01*
X251185Y37242D01*
X251331Y37376D01*
X251455Y37531D01*
X251552Y37703D01*
X251622Y37888D01*
X251662Y38082D01*
X251670Y38280D01*
X251648Y38477D01*
X251595Y38668D01*
X251510Y38846D01*
X251190Y39474D01*
X250937Y40132D01*
X250745Y40811D01*
X250616Y41504D01*
X250551Y42206D01*
Y42912D01*
X250616Y43614D01*
X250745Y44307D01*
X250937Y44986D01*
X251190Y45644D01*
X251503Y46276D01*
X251588Y46453D01*
X251640Y46643D01*
X251662Y46838D01*
X251654Y47035D01*
X251614Y47227D01*
X251545Y47412D01*
X251448Y47583D01*
X251326Y47737D01*
X251180Y47870D01*
X251016Y47978D01*
X250837Y48059D01*
X250647Y48112D01*
X250452Y48134D01*
X250255Y48125D01*
X250063Y48086D01*
X249878Y48017D01*
X249857Y48005D01*
Y141622D01*
X249892Y141633D01*
X250062Y141670D01*
X250235Y141693D01*
X250410Y141701D01*
X250499Y141706D01*
X250588Y141701D01*
X254500D01*
Y140799D01*
X254492Y140701D01*
X254523Y140309D01*
X254523Y140308D01*
X254615Y139926D01*
X254766Y139562D01*
X254971Y139227D01*
X255227Y138928D01*
X255526Y138672D01*
X255862Y138466D01*
X256225Y138316D01*
X256608Y138224D01*
X257000Y138193D01*
X257098Y138201D01*
X258225D01*
Y52736D01*
X257753D01*
X256821Y52650D01*
X255901Y52479D01*
X255000Y52225D01*
X254127Y51888D01*
X253288Y51474D01*
X253123Y51365D01*
X252976Y51232D01*
X252853Y51077D01*
X252755Y50905D01*
X252686Y50719D01*
X252646Y50525D01*
X252637Y50327D01*
X252660Y50131D01*
X252712Y49940D01*
X252794Y49759D01*
X252904Y49594D01*
X253037Y49448D01*
X253192Y49325D01*
X253364Y49227D01*
X253550Y49158D01*
X253744Y49118D01*
X253942Y49109D01*
X254138Y49131D01*
X254329Y49184D01*
X254508Y49270D01*
X255136Y49589D01*
X255794Y49843D01*
X256472Y50035D01*
X257166Y50163D01*
X257868Y50228D01*
X258225D01*
Y34890D01*
X257868D01*
X257166Y34955D01*
X256472Y35084D01*
X255794Y35275D01*
X255136Y35529D01*
X254504Y35842D01*
X254327Y35926D01*
X254137Y35979D01*
X253941Y36001D01*
X253745Y35992D01*
X253552Y35953D01*
X253368Y35884D01*
X253197Y35787D01*
X253043Y35664D01*
X252910Y35519D01*
X252802Y35355D01*
X252720Y35176D01*
X252668Y34986D01*
X252646Y34791D01*
X252654Y34594D01*
X252694Y34401D01*
X252763Y34217D01*
X252860Y34046D01*
X252982Y33892D01*
X253128Y33759D01*
X253294Y33654D01*
X254127Y33230D01*
X255000Y32893D01*
X255901Y32639D01*
X256821Y32468D01*
X257753Y32382D01*
X258225D01*
Y28047D01*
X249857D01*
G37*
G36*
X241945D02*Y133204D01*
X241947Y133236D01*
X241952Y133410D01*
X241975Y133583D01*
X242013Y133754D01*
X242065Y133920D01*
X242132Y134081D01*
X242213Y134236D01*
X242307Y134383D01*
X242413Y134522D01*
X242531Y134650D01*
X242531Y134650D01*
X248973Y141092D01*
X248997Y141114D01*
X249124Y141233D01*
X249262Y141339D01*
X249410Y141433D01*
X249564Y141513D01*
X249726Y141580D01*
X249857Y141622D01*
Y48005D01*
X249707Y47920D01*
X249553Y47797D01*
X249421Y47652D01*
X249315Y47486D01*
X248891Y46652D01*
X248555Y45779D01*
X248300Y44879D01*
X248129Y43959D01*
X248043Y43027D01*
Y42091D01*
X248129Y41159D01*
X248300Y40239D01*
X248555Y39339D01*
X248891Y38466D01*
X249306Y37627D01*
X249414Y37461D01*
X249548Y37315D01*
X249703Y37192D01*
X249857Y37104D01*
Y28047D01*
X241945D01*
G37*
G36*
X233515Y19732D02*Y22047D01*
X258225D01*
Y19732D01*
X233515D01*
G37*
G36*
X183171Y28047D02*Y336205D01*
X191444D01*
X191523Y336199D01*
X191836Y336224D01*
X191836Y336224D01*
X192142Y336297D01*
X192433Y336418D01*
X192702Y336582D01*
X192941Y336786D01*
X193146Y337026D01*
X193310Y337294D01*
X193431Y337585D01*
X193504Y337891D01*
X193529Y338205D01*
X193523Y338283D01*
Y354830D01*
X193529Y354908D01*
X193504Y355222D01*
X193504Y355222D01*
X193431Y355528D01*
X193310Y355819D01*
X193146Y356088D01*
X192941Y356327D01*
X192702Y356531D01*
X192433Y356696D01*
X192142Y356816D01*
X191836Y356890D01*
X191523Y356915D01*
X191444Y356908D01*
X183171D01*
Y367993D01*
X186000Y367701D01*
X211000Y358701D01*
X233515Y346954D01*
Y187429D01*
X218609Y202335D01*
X218587Y202359D01*
X218468Y202486D01*
X218362Y202625D01*
X218268Y202772D01*
X218187Y202927D01*
X218121Y203088D01*
X218068Y203254D01*
X218030Y203425D01*
X218008Y203598D01*
X218000Y203772D01*
X218000Y203772D01*
Y209795D01*
X218347D01*
X218425Y209789D01*
X218739Y209814D01*
X218739Y209814D01*
X219045Y209887D01*
X219336Y210008D01*
X219604Y210172D01*
X219844Y210377D01*
X220048Y210616D01*
X220213Y210884D01*
X220333Y211175D01*
X220407Y211481D01*
X220431Y211795D01*
X220425Y211874D01*
Y223528D01*
X220431Y223606D01*
X220407Y223920D01*
X220333Y224226D01*
X220213Y224517D01*
X220048Y224785D01*
X219844Y225025D01*
X219604Y225229D01*
X219336Y225394D01*
X219045Y225514D01*
X218739Y225588D01*
X218425Y225612D01*
X218347Y225606D01*
X213008D01*
X217323Y229921D01*
Y235039D01*
X212205Y240157D01*
X207874D01*
X202756Y235039D01*
Y229921D01*
X207071Y225606D01*
X206480D01*
X206323Y225597D01*
X206170Y225560D01*
X206025Y225500D01*
X205891Y225418D01*
X205771Y225316D01*
X205669Y225196D01*
X205587Y225062D01*
X205526Y224916D01*
X205490Y224763D01*
X205477Y224606D01*
X205490Y224449D01*
X205526Y224296D01*
X205587Y224151D01*
X205669Y224017D01*
X205771Y223897D01*
X205891Y223795D01*
X206025Y223713D01*
X206170Y223652D01*
X206323Y223616D01*
X206419Y223610D01*
X206419Y223606D01*
X203535D01*
X203535Y223610D01*
X203637Y223616D01*
X203790Y223652D01*
X203936Y223713D01*
X204070Y223795D01*
X204190Y223897D01*
X204292Y224017D01*
X204374Y224151D01*
X204434Y224296D01*
X204471Y224449D01*
X204483Y224606D01*
X204471Y224763D01*
X204434Y224916D01*
X204374Y225062D01*
X204292Y225196D01*
X204190Y225316D01*
X204070Y225418D01*
X203936Y225500D01*
X203790Y225560D01*
X203637Y225597D01*
X203480Y225606D01*
X201614D01*
X201535Y225612D01*
X201222Y225588D01*
X200915Y225514D01*
X200625Y225394D01*
X200356Y225229D01*
X200117Y225025D01*
X199912Y224785D01*
X199748Y224517D01*
X199627Y224226D01*
X199554Y223920D01*
X199529Y223606D01*
X199535Y223528D01*
Y219201D01*
X199545Y219044D01*
X199581Y218891D01*
X199642Y218745D01*
X199724Y218611D01*
X199826Y218491D01*
X199946Y218389D01*
X200080Y218307D01*
X200225Y218247D01*
X200379Y218210D01*
X200535Y218198D01*
X200692Y218210D01*
X200845Y218247D01*
X200991Y218307D01*
X201125Y218389D01*
X201245Y218491D01*
X201347Y218611D01*
X201429Y218745D01*
X201489Y218891D01*
X201526Y219044D01*
X201535Y219201D01*
Y216201D01*
X201526Y216358D01*
X201489Y216511D01*
X201429Y216656D01*
X201347Y216790D01*
X201245Y216910D01*
X201125Y217012D01*
X200991Y217095D01*
X200845Y217155D01*
X200692Y217192D01*
X200535Y217204D01*
X200379Y217192D01*
X200225Y217155D01*
X200080Y217095D01*
X199946Y217012D01*
X199826Y216910D01*
X199724Y216790D01*
X199642Y216656D01*
X199581Y216511D01*
X199545Y216358D01*
X199535Y216201D01*
Y211874D01*
X199529Y211795D01*
X199554Y211481D01*
X199627Y211175D01*
X199748Y210884D01*
X199912Y210616D01*
X200117Y210377D01*
X200356Y210172D01*
X200625Y210008D01*
X200915Y209887D01*
X201222Y209814D01*
X201535Y209789D01*
X201614Y209795D01*
X203480D01*
X203637Y209805D01*
X203790Y209841D01*
X203936Y209902D01*
X204070Y209984D01*
X204190Y210086D01*
X204292Y210206D01*
X204374Y210340D01*
X204434Y210485D01*
X204471Y210638D01*
X204483Y210795D01*
X204471Y210952D01*
X204434Y211105D01*
X204374Y211251D01*
X204292Y211385D01*
X204190Y211505D01*
X204070Y211607D01*
X203936Y211689D01*
X203790Y211749D01*
X203637Y211786D01*
X203535Y211792D01*
X203535Y211795D01*
X206419D01*
X206419Y211792D01*
X206323Y211786D01*
X206170Y211749D01*
X206025Y211689D01*
X205891Y211607D01*
X205771Y211505D01*
X205669Y211385D01*
X205587Y211251D01*
X205526Y211105D01*
X205490Y210952D01*
X205477Y210795D01*
X205490Y210638D01*
X205526Y210485D01*
X205587Y210340D01*
X205669Y210206D01*
X205771Y210086D01*
X205891Y209984D01*
X206025Y209902D01*
X206170Y209841D01*
X206323Y209805D01*
X206480Y209795D01*
X208347D01*
X208425Y209789D01*
X208739Y209814D01*
X209045Y209887D01*
X209336Y210008D01*
X209604Y210172D01*
X209844Y210377D01*
X209980Y210537D01*
X210117Y210377D01*
X210356Y210172D01*
X210625Y210008D01*
X210915Y209887D01*
X211222Y209814D01*
X211535Y209789D01*
X211614Y209795D01*
X212000D01*
Y203772D01*
X212000Y203772D01*
X212023Y203074D01*
X212114Y202381D01*
X212265Y201699D01*
X212475Y201033D01*
X212743Y200388D01*
X213065Y199768D01*
X213441Y199179D01*
X213866Y198625D01*
X214338Y198110D01*
X214419Y198039D01*
X233515Y178944D01*
Y28047D01*
X183171D01*
G37*
G36*
X151675D02*Y336205D01*
X159948D01*
X160026Y336199D01*
X160340Y336224D01*
X160340Y336224D01*
X160646Y336297D01*
X160937Y336418D01*
X161206Y336582D01*
X161445Y336786D01*
X161649Y337026D01*
X161814Y337294D01*
X161934Y337585D01*
X162008Y337891D01*
X162033Y338205D01*
X162026Y338283D01*
Y354830D01*
X162033Y354908D01*
X162008Y355222D01*
X162008Y355222D01*
X161934Y355528D01*
X161814Y355819D01*
X161649Y356088D01*
X161445Y356327D01*
X161206Y356531D01*
X160937Y356696D01*
X160646Y356816D01*
X160340Y356890D01*
X160026Y356915D01*
X159948Y356908D01*
X151675D01*
Y369677D01*
X157000Y370701D01*
X183171Y367993D01*
Y356908D01*
X174898D01*
X174819Y356915D01*
X174506Y356890D01*
X174505Y356890D01*
X174199Y356816D01*
X173908Y356696D01*
X173640Y356531D01*
X173401Y356327D01*
X173196Y356088D01*
X173032Y355819D01*
X172911Y355528D01*
X172838Y355222D01*
X172813Y354908D01*
X172819Y354830D01*
Y338283D01*
X172813Y338205D01*
X172838Y337891D01*
X172838Y337891D01*
X172911Y337585D01*
X173032Y337294D01*
X173196Y337026D01*
X173401Y336786D01*
X173640Y336582D01*
X173908Y336418D01*
X174199Y336297D01*
X174505Y336224D01*
X174819Y336199D01*
X174898Y336205D01*
X183171D01*
Y28047D01*
X151675D01*
G37*
G36*
X97956D02*Y179665D01*
X103893D01*
X103894Y179665D01*
X104591Y179688D01*
X105284Y179779D01*
X105966Y179930D01*
X106632Y180141D01*
X107278Y180408D01*
X107897Y180730D01*
X108486Y181106D01*
X109041Y181531D01*
X109556Y182003D01*
X109626Y182084D01*
X128657Y201115D01*
X128657Y201115D01*
X129134Y201625D01*
X129559Y202179D01*
X129935Y202768D01*
X130257Y203388D01*
X130525Y204033D01*
X130735Y204699D01*
X130886Y205381D01*
X130977Y206074D01*
X131008Y206772D01*
X131000Y206879D01*
Y212795D01*
X131347D01*
X131425Y212789D01*
X131739Y212814D01*
X131739Y212814D01*
X132045Y212887D01*
X132336Y213008D01*
X132604Y213172D01*
X132844Y213377D01*
X133048Y213616D01*
X133213Y213884D01*
X133333Y214175D01*
X133407Y214481D01*
X133431Y214795D01*
X133425Y214874D01*
Y226528D01*
X133431Y226606D01*
X133407Y226920D01*
X133333Y227226D01*
X133213Y227517D01*
X133048Y227785D01*
X132844Y228025D01*
X132604Y228229D01*
X132336Y228394D01*
X132045Y228514D01*
X131739Y228588D01*
X131425Y228612D01*
X131347Y228606D01*
X125457D01*
X129921Y233071D01*
Y238189D01*
X125197Y242913D01*
X120866D01*
X116142Y238189D01*
Y233071D01*
X120606Y228606D01*
X119480D01*
X119323Y228597D01*
X119170Y228560D01*
X119025Y228500D01*
X118891Y228418D01*
X118771Y228316D01*
X118669Y228196D01*
X118587Y228062D01*
X118526Y227916D01*
X118490Y227763D01*
X118477Y227606D01*
X118490Y227449D01*
X118526Y227296D01*
X118587Y227151D01*
X118669Y227017D01*
X118771Y226897D01*
X118891Y226795D01*
X119025Y226713D01*
X119170Y226652D01*
X119323Y226616D01*
X119419Y226610D01*
X119419Y226606D01*
X116535D01*
X116535Y226610D01*
X116637Y226616D01*
X116790Y226652D01*
X116936Y226713D01*
X117070Y226795D01*
X117190Y226897D01*
X117292Y227017D01*
X117374Y227151D01*
X117434Y227296D01*
X117471Y227449D01*
X117483Y227606D01*
X117471Y227763D01*
X117434Y227916D01*
X117374Y228062D01*
X117292Y228196D01*
X117190Y228316D01*
X117070Y228418D01*
X116936Y228500D01*
X116790Y228560D01*
X116637Y228597D01*
X116480Y228606D01*
X114614D01*
X114535Y228612D01*
X114222Y228588D01*
X113915Y228514D01*
X113625Y228394D01*
X113356Y228229D01*
X113117Y228025D01*
X112912Y227785D01*
X112748Y227517D01*
X112627Y227226D01*
X112554Y226920D01*
X112529Y226606D01*
X112535Y226528D01*
Y222201D01*
X112545Y222044D01*
X112581Y221891D01*
X112642Y221745D01*
X112724Y221611D01*
X112826Y221491D01*
X112946Y221389D01*
X113080Y221307D01*
X113225Y221247D01*
X113379Y221210D01*
X113535Y221198D01*
X113692Y221210D01*
X113845Y221247D01*
X113991Y221307D01*
X114125Y221389D01*
X114245Y221491D01*
X114347Y221611D01*
X114429Y221745D01*
X114489Y221891D01*
X114526Y222044D01*
X114535Y222201D01*
Y219201D01*
X114526Y219358D01*
X114489Y219511D01*
X114429Y219656D01*
X114347Y219790D01*
X114245Y219910D01*
X114125Y220012D01*
X113991Y220095D01*
X113845Y220155D01*
X113692Y220192D01*
X113535Y220204D01*
X113379Y220192D01*
X113225Y220155D01*
X113080Y220095D01*
X112946Y220012D01*
X112826Y219910D01*
X112724Y219790D01*
X112642Y219656D01*
X112581Y219511D01*
X112545Y219358D01*
X112535Y219201D01*
Y214874D01*
X112529Y214795D01*
X112554Y214481D01*
X112627Y214175D01*
X112748Y213884D01*
X112912Y213616D01*
X113117Y213377D01*
X113356Y213172D01*
X113625Y213008D01*
X113915Y212887D01*
X114222Y212814D01*
X114535Y212789D01*
X114614Y212795D01*
X116480D01*
X116637Y212805D01*
X116790Y212841D01*
X116936Y212902D01*
X117070Y212984D01*
X117190Y213086D01*
X117292Y213206D01*
X117374Y213340D01*
X117434Y213485D01*
X117471Y213638D01*
X117483Y213795D01*
X117471Y213952D01*
X117434Y214105D01*
X117374Y214251D01*
X117292Y214385D01*
X117190Y214505D01*
X117070Y214607D01*
X116936Y214689D01*
X116790Y214749D01*
X116637Y214786D01*
X116535Y214792D01*
X116535Y214795D01*
X119419D01*
X119419Y214792D01*
X119323Y214786D01*
X119170Y214749D01*
X119025Y214689D01*
X118891Y214607D01*
X118771Y214505D01*
X118669Y214385D01*
X118587Y214251D01*
X118526Y214105D01*
X118490Y213952D01*
X118477Y213795D01*
X118490Y213638D01*
X118526Y213485D01*
X118587Y213340D01*
X118669Y213206D01*
X118771Y213086D01*
X118891Y212984D01*
X119025Y212902D01*
X119170Y212841D01*
X119323Y212805D01*
X119480Y212795D01*
X121347D01*
X121425Y212789D01*
X121739Y212814D01*
X122045Y212887D01*
X122336Y213008D01*
X122604Y213172D01*
X122844Y213377D01*
X122980Y213537D01*
X123117Y213377D01*
X123356Y213172D01*
X123625Y213008D01*
X123915Y212887D01*
X124222Y212814D01*
X124535Y212789D01*
X124614Y212795D01*
X125000D01*
Y206804D01*
X124998Y206772D01*
X124992Y206598D01*
X124970Y206425D01*
X124932Y206254D01*
X124879Y206088D01*
X124813Y205927D01*
X124732Y205772D01*
X124638Y205625D01*
X124532Y205486D01*
X124414Y205358D01*
X124414Y205358D01*
X105330Y186274D01*
X105306Y186252D01*
X105179Y186133D01*
X105041Y186027D01*
X104893Y185933D01*
X104739Y185853D01*
X104577Y185786D01*
X104411Y185733D01*
X104241Y185696D01*
X104068Y185673D01*
X103893Y185665D01*
X103893Y185665D01*
X97956D01*
Y347821D01*
X99000Y348701D01*
X111000Y358701D01*
X131000Y365701D01*
X151675Y369677D01*
Y356908D01*
X143402D01*
X143323Y356915D01*
X143010Y356890D01*
X143009Y356890D01*
X142703Y356816D01*
X142412Y356696D01*
X142144Y356531D01*
X141905Y356327D01*
X141700Y356088D01*
X141536Y355819D01*
X141415Y355528D01*
X141342Y355222D01*
X141317Y354908D01*
X141323Y354830D01*
Y338283D01*
X141317Y338205D01*
X141342Y337891D01*
X141342Y337891D01*
X141415Y337585D01*
X141536Y337294D01*
X141700Y337026D01*
X141905Y336786D01*
X142144Y336582D01*
X142412Y336418D01*
X142703Y336297D01*
X143009Y336224D01*
X143323Y336199D01*
X143402Y336205D01*
X151675D01*
Y28047D01*
X97956D01*
G37*
G36*
Y19732D02*Y22047D01*
X233515D01*
Y19732D01*
X97956D01*
G37*
G36*
X25002D02*Y22201D01*
X25287D01*
X25860Y22251D01*
X26425Y22352D01*
X26980Y22503D01*
X27163Y22576D01*
X27332Y22679D01*
X27483Y22806D01*
X27611Y22955D01*
X27715Y23123D01*
X27792Y23305D01*
X27839Y23497D01*
X27855Y23694D01*
X27841Y23890D01*
X27796Y24083D01*
X27721Y24265D01*
X27619Y24434D01*
X27491Y24585D01*
X27342Y24714D01*
X27174Y24818D01*
X26992Y24894D01*
X26801Y24941D01*
X26604Y24958D01*
X26407Y24943D01*
X26216Y24894D01*
X25876Y24798D01*
X25529Y24736D01*
X25177Y24705D01*
X25002D01*
Y32697D01*
X25177D01*
X25529Y32666D01*
X25876Y32604D01*
X26217Y32511D01*
X26408Y32462D01*
X26604Y32448D01*
X26800Y32464D01*
X26991Y32511D01*
X27172Y32587D01*
X27340Y32691D01*
X27489Y32820D01*
X27616Y32970D01*
X27718Y33138D01*
X27792Y33320D01*
X27837Y33512D01*
X27851Y33708D01*
X27835Y33904D01*
X27788Y34095D01*
X27712Y34277D01*
X27608Y34444D01*
X27480Y34593D01*
X27330Y34720D01*
X27161Y34822D01*
X26978Y34893D01*
X26425Y35049D01*
X25860Y35150D01*
X25287Y35201D01*
X25002D01*
Y97863D01*
X63000Y293701D01*
X67000Y305701D01*
X76000Y323701D01*
Y327701D01*
X80000Y332701D01*
X97956Y347821D01*
Y185665D01*
X74807Y185665D01*
X74275Y186533D01*
X73610Y187311D01*
X72832Y187976D01*
X71960Y188510D01*
X71015Y188902D01*
X70020Y189141D01*
X69000Y189221D01*
X67980Y189141D01*
X66985Y188902D01*
X66040Y188510D01*
X65168Y187976D01*
X64390Y187311D01*
X63725Y186533D01*
X63191Y185661D01*
X62799Y184716D01*
X62560Y183721D01*
X62480Y182701D01*
X62560Y181681D01*
X62799Y180686D01*
X63191Y179741D01*
X63725Y178868D01*
X64390Y178090D01*
X65168Y177426D01*
X66040Y176891D01*
X66985Y176500D01*
X67980Y176261D01*
X69000Y176181D01*
X70020Y176261D01*
X71015Y176500D01*
X71960Y176891D01*
X72832Y177426D01*
X73610Y178090D01*
X74275Y178868D01*
X74763Y179665D01*
X97956Y179665D01*
Y28047D01*
X72000D01*
Y146201D01*
X72902D01*
X73000Y146193D01*
X73392Y146224D01*
X73392Y146224D01*
X73775Y146316D01*
X74138Y146466D01*
X74474Y146672D01*
X74773Y146928D01*
X75029Y147227D01*
X75234Y147562D01*
X75385Y147926D01*
X75477Y148308D01*
X75508Y148701D01*
X75500Y148799D01*
Y156603D01*
X75508Y156701D01*
X75477Y157093D01*
X75477Y157093D01*
X75385Y157476D01*
X75234Y157839D01*
X75029Y158175D01*
X74773Y158474D01*
X74474Y158730D01*
X74138Y158935D01*
X73775Y159086D01*
X73392Y159178D01*
X73000Y159208D01*
X72902Y159201D01*
X65098D01*
X65000Y159208D01*
X64608Y159178D01*
X64608Y159178D01*
X64225Y159086D01*
X63862Y158935D01*
X63526Y158730D01*
X63227Y158474D01*
X62971Y158175D01*
X62766Y157839D01*
X62615Y157476D01*
X62523Y157093D01*
X62492Y156701D01*
X62500Y156603D01*
Y148799D01*
X62492Y148701D01*
X62523Y148309D01*
X62523Y148308D01*
X62615Y147926D01*
X62766Y147562D01*
X62971Y147227D01*
X63227Y146928D01*
X63526Y146672D01*
X63862Y146466D01*
X64225Y146316D01*
X64608Y146224D01*
X65000Y146193D01*
X65098Y146201D01*
X66000D01*
Y28047D01*
X50757D01*
X50725Y28049D01*
X50550Y28055D01*
X50377Y28078D01*
X50207Y28115D01*
X50041Y28168D01*
X49879Y28235D01*
X49725Y28315D01*
X49577Y28409D01*
X49439Y28515D01*
X49310Y28633D01*
X49310Y28633D01*
X48586Y29358D01*
X48586Y29358D01*
X48076Y29835D01*
X47522Y30260D01*
X46933Y30636D01*
X46313Y30958D01*
X45668Y31225D01*
X45001Y31436D01*
X44319Y31587D01*
X43627Y31678D01*
X42929Y31708D01*
X42822Y31701D01*
X41500D01*
Y32603D01*
X41508Y32701D01*
X41477Y33093D01*
X41477Y33093D01*
X41385Y33476D01*
X41234Y33839D01*
X41029Y34175D01*
X40773Y34474D01*
X40474Y34730D01*
X40138Y34935D01*
X39775Y35086D01*
X39392Y35178D01*
X39000Y35208D01*
X38902Y35201D01*
X31098D01*
X31000Y35208D01*
X30608Y35178D01*
X30608Y35178D01*
X30225Y35086D01*
X29862Y34935D01*
X29526Y34730D01*
X29227Y34474D01*
X28971Y34175D01*
X28766Y33839D01*
X28615Y33476D01*
X28523Y33093D01*
X28492Y32701D01*
X28500Y32603D01*
Y24799D01*
X28492Y24701D01*
X28523Y24309D01*
X28523Y24308D01*
X28615Y23926D01*
X28766Y23562D01*
X28971Y23227D01*
X29227Y22928D01*
X29526Y22672D01*
X29862Y22466D01*
X30225Y22316D01*
X30608Y22224D01*
X31000Y22193D01*
X31098Y22201D01*
X38902D01*
X39000Y22193D01*
X39392Y22224D01*
X39392Y22224D01*
X39775Y22316D01*
X40138Y22466D01*
X40474Y22672D01*
X40773Y22928D01*
X41029Y23227D01*
X41234Y23562D01*
X41385Y23926D01*
X41477Y24308D01*
X41508Y24701D01*
X41500Y24799D01*
Y25701D01*
X42897D01*
X42929Y25699D01*
X43103Y25693D01*
X43276Y25670D01*
X43447Y25633D01*
X43613Y25580D01*
X43774Y25513D01*
X43929Y25433D01*
X44076Y25339D01*
X44215Y25233D01*
X44343Y25115D01*
X44343Y25115D01*
X45068Y24390D01*
X45068Y24390D01*
X45577Y23913D01*
X46132Y23488D01*
X46721Y23112D01*
X47340Y22790D01*
X47986Y22523D01*
X48652Y22312D01*
X49334Y22161D01*
X50027Y22070D01*
X50725Y22040D01*
X50832Y22047D01*
X97956D01*
Y19732D01*
X25002D01*
G37*
G36*
X19878D02*Y25855D01*
X19993Y25845D01*
X20190Y25860D01*
X20382Y25905D01*
X20564Y25980D01*
X20733Y26082D01*
X20884Y26209D01*
X21013Y26359D01*
X21117Y26527D01*
X21193Y26709D01*
X21240Y26900D01*
X21257Y27097D01*
X21242Y27294D01*
X21193Y27485D01*
X21097Y27825D01*
X21035Y28172D01*
X21004Y28524D01*
Y28877D01*
X21035Y29229D01*
X21097Y29577D01*
X21190Y29918D01*
X21238Y30108D01*
X21253Y30305D01*
X21236Y30501D01*
X21190Y30692D01*
X21113Y30873D01*
X21010Y31040D01*
X20881Y31189D01*
X20731Y31316D01*
X20563Y31418D01*
X20381Y31493D01*
X20189Y31538D01*
X19993Y31552D01*
X19878Y31543D01*
Y71456D01*
X25002Y97863D01*
Y35201D01*
X24713D01*
X24140Y35150D01*
X23575Y35049D01*
X23020Y34899D01*
X22837Y34825D01*
X22668Y34723D01*
X22517Y34596D01*
X22389Y34446D01*
X22285Y34278D01*
X22208Y34096D01*
X22161Y33905D01*
X22145Y33708D01*
X22159Y33511D01*
X22204Y33319D01*
X22279Y33136D01*
X22381Y32968D01*
X22509Y32817D01*
X22658Y32688D01*
X22826Y32584D01*
X23008Y32508D01*
X23199Y32461D01*
X23396Y32444D01*
X23593Y32459D01*
X23784Y32507D01*
X24124Y32604D01*
X24471Y32666D01*
X24823Y32697D01*
X25002D01*
Y24705D01*
X24823D01*
X24471Y24736D01*
X24124Y24798D01*
X23783Y24890D01*
X23592Y24939D01*
X23396Y24954D01*
X23200Y24937D01*
X23009Y24890D01*
X22828Y24814D01*
X22660Y24710D01*
X22511Y24582D01*
X22384Y24432D01*
X22282Y24263D01*
X22208Y24081D01*
X22163Y23890D01*
X22149Y23694D01*
X22165Y23498D01*
X22212Y23306D01*
X22288Y23125D01*
X22392Y22958D01*
X22520Y22809D01*
X22670Y22682D01*
X22839Y22580D01*
X23022Y22509D01*
X23575Y22352D01*
X24140Y22251D01*
X24713Y22201D01*
X25002D01*
Y19732D01*
X19878D01*
G37*
G36*
X9843D02*X19878Y71456D01*
Y31543D01*
X19797Y31536D01*
X19606Y31489D01*
X19424Y31413D01*
X19257Y31309D01*
X19108Y31181D01*
X18981Y31030D01*
X18879Y30862D01*
X18808Y30679D01*
X18652Y30126D01*
X18551Y29560D01*
X18500Y28988D01*
Y28413D01*
X18551Y27841D01*
X18652Y27275D01*
X18802Y26721D01*
X18875Y26538D01*
X18978Y26369D01*
X19105Y26218D01*
X19255Y26089D01*
X19422Y25985D01*
X19604Y25909D01*
X19796Y25862D01*
X19878Y25855D01*
Y19732D01*
X9843D01*
G37*
G54D29*X46464Y27236D02*X47189Y26512D01*
X215000Y203772D02*Y217701D01*
X240536Y176165D02*X216464Y200236D01*
X205000Y217701D02*Y216701D01*
X68864Y182665D02*X103893Y182665D01*
X107429Y184130D02*X126536Y203236D01*
X35000Y28701D02*X42929D01*
X238945Y133236D02*Y25075D01*
X246874Y143236D02*X240409Y136772D01*
X278189Y25047D02*X50725D01*
X261000Y174701D02*X244071D01*
X250588Y144701D02*X261000D01*
X69000Y152701D02*Y25072D01*
X118000Y220701D02*Y219701D01*
X129000Y220701D02*X130000Y219701D01*
X128000Y220701D02*X129000D01*
Y219701D02*X128000Y220701D01*
Y206772D01*
X42929Y28701D02*G75*G02X46464Y27236I0J-5000D01*G01*
X50725Y25047D02*G75*G02X47189Y26512I0J5000D01*G01*
X216464Y200236D02*G75*G02X215000Y203772I3536J3536D01*G01*
X244071Y174701D02*G75*G02X240536Y176165I0J5000D01*G01*
X103893Y182665D02*G75*G03X107429Y184130I0J5000D01*G01*
X286843Y33701D02*G75*G02X278189Y25047I-8654J0D01*G01*
X240409Y136772D02*G75*G03X238945Y133236I3536J-3536D01*G01*
X250410Y144701D02*G75*G03X246874Y143236I0J-5000D01*G01*
X126536Y203236D02*G75*G03X128000Y206772I-3536J3536D01*G01*
G54D28*G36*
X143323Y354908D02*X160026D01*
Y338205D01*
X143323D01*
Y354908D01*
G37*
G36*
X174819D02*X191523D01*
Y338205D01*
X174819D01*
Y354908D01*
G37*
G36*
X208425Y211795D02*X201535D01*
Y223606D01*
X208425D01*
Y211795D01*
G37*
G36*
X218425D02*X211535D01*
Y223606D01*
X218425D01*
Y211795D01*
G37*
G36*
X121425Y214795D02*X114535D01*
Y226606D01*
X121425D01*
Y214795D01*
G37*
G36*
X131425D02*X124535D01*
Y226606D01*
X131425D01*
Y214795D01*
G37*
G36*
X65000Y148701D02*Y156701D01*
X73000D01*
Y148701D01*
X65000D01*
G37*
G54D30*X69000Y182701D03*
G54D28*G36*
X31000Y24701D02*Y32701D01*
X39000D01*
Y24701D01*
X31000D01*
G37*
G54D30*X25000Y28701D03*
G54D31*X258220Y42559D03*
X305622D03*
G54D32*X286843Y33701D03*
X277000D03*
X286843Y46299D03*
X277000D03*
G54D28*G36*
X257000Y140701D02*Y148701D01*
X265000D01*
Y140701D01*
X257000D01*
G37*
G54D30*X261000Y174701D03*
G54D33*G54D34*G54D35*G54D36*G54D34*M02*
