M48
INCH
T16C0.122
T15C0.036
T14C0.091
T13C0.042
T12C0.039
T11C0.031
%
T11
G05
X007800Y007270
T15
X028684Y003370
X027700Y003370
X028684Y004630
X027700Y004630
T12
X006400Y010870
X007400Y010870
X026600Y010070
X025600Y010070
X026100Y014470
X026100Y017470
X006900Y015270
X006900Y018270
X003500Y002870
X003500Y003870
X003500Y004870
X027400Y006770
X006500Y003870
X006500Y004870
X002500Y002870
T13
X006900Y014270
X026100Y013470
X026100Y012470
X026100Y011470
X006900Y013270
X006900Y012270
T14
X025822Y004256
X030562Y004256
T16
X021000Y023270
X012300Y023570
M30
