G04 start of page 2 for group 10 layer_idx 1 *
G04 Title: (unknown), bottom_copper *
G04 Creator: pcb-rnd 3.1.4-dev *
G04 CreationDate: 2024-02-11 09:28:28 UTC *
G04 For: STEM4ukraine *
G04 Format: Gerber/RS-274X *
G04 PCB-Dimensions: 334646 393701 *
G04 PCB-Coordinate-Origin: lower left *
%MOIN*%
%FSLAX25Y25*%
%LNBOTTOM_COPPER_NONE_10*%
%ADD47C,0.0362*%
%ADD46C,0.0906*%
%ADD45C,0.0394*%
%ADD44C,0.0420*%
%ADD43C,0.0394*%
%ADD42C,0.0315*%
%ADD41C,0.1220*%
%ADD40C,0.0827*%
%ADD39C,0.1535*%
%ADD38C,0.0866*%
%ADD37C,0.0720*%
%ADD36C,0.0800*%
%ADD35C,0.0787*%
%ADD34C,0.0200*%
%ADD33C,0.0001*%
G54D33*G36*
X250748Y97787D02*X251131Y97163D01*
X251744Y96445D01*
X252462Y95832D01*
X253268Y95338D01*
X254140Y94977D01*
X255058Y94756D01*
X256000Y94682D01*
X256942Y94756D01*
X257860Y94977D01*
X258732Y95338D01*
X259538Y95832D01*
X260256Y96445D01*
X260498Y96728D01*
X260495Y96701D01*
X260514Y96466D01*
X260514Y96465D01*
X260569Y96236D01*
X260659Y96018D01*
X260783Y95816D01*
X260936Y95637D01*
X261116Y95484D01*
X261317Y95360D01*
X261535Y95270D01*
X261765Y95215D01*
X262000Y95196D01*
X262059Y95201D01*
X269941D01*
X270000Y95196D01*
X270235Y95215D01*
X270235Y95215D01*
X270465Y95270D01*
X270683Y95360D01*
X270884Y95484D01*
X271064Y95637D01*
X271217Y95816D01*
X271341Y96018D01*
X271409Y96184D01*
Y92655D01*
X271408Y92622D01*
X271402Y92448D01*
X271379Y92275D01*
X271341Y92105D01*
X271289Y91938D01*
X271222Y91777D01*
X271141Y91622D01*
X271048Y91475D01*
X270942Y91337D01*
X270824Y91208D01*
X270824Y91208D01*
X255925Y76309D01*
X255901Y76288D01*
X255774Y76169D01*
X255635Y76062D01*
X255488Y75969D01*
X255333Y75888D01*
X255172Y75821D01*
X255006Y75769D01*
X254835Y75731D01*
X254662Y75708D01*
X254488Y75701D01*
X254488Y75701D01*
X203000Y75701D01*
X160734D01*
Y97787D01*
X250748D01*
G37*
G36*
X265143Y121701D02*X266503D01*
X266535Y121699D01*
X266710Y121693D01*
X266883Y121670D01*
X267053Y121633D01*
X267219Y121580D01*
X267380Y121513D01*
X267535Y121433D01*
X267682Y121339D01*
X267821Y121233D01*
X267949Y121115D01*
X267949Y121115D01*
X270801Y118264D01*
X270822Y118239D01*
X270942Y118112D01*
X271048Y117974D01*
X271141Y117827D01*
X271222Y117672D01*
X271289Y117511D01*
X271341Y117344D01*
X271379Y117174D01*
X271402Y117001D01*
X271409Y116827D01*
Y105218D01*
X271341Y105384D01*
X271217Y105585D01*
X271064Y105765D01*
X270884Y105918D01*
X270683Y106041D01*
X270465Y106132D01*
X270235Y106187D01*
X270000Y106205D01*
X269941Y106201D01*
X265142D01*
Y112125D01*
X265189Y112138D01*
X265297Y112186D01*
X265395Y112251D01*
X265483Y112330D01*
X265557Y112422D01*
X265613Y112526D01*
X265791Y112939D01*
X265928Y113367D01*
X266026Y113806D01*
X266085Y114252D01*
X266105Y114701D01*
X266085Y115150D01*
X266026Y115596D01*
X265928Y116035D01*
X265791Y116463D01*
X265617Y116878D01*
X265559Y116981D01*
X265485Y117074D01*
X265397Y117153D01*
X265298Y117218D01*
X265190Y117267D01*
X265142Y117280D01*
Y121699D01*
X265143Y121701D01*
G37*
G36*
X261317Y118287D02*X261631Y118245D01*
X261941Y118176D01*
X262243Y118079D01*
X262535Y117957D01*
X262645Y117913D01*
X262760Y117889D01*
X262878Y117883D01*
X262996Y117896D01*
X263109Y117927D01*
X263217Y117976D01*
X263316Y118041D01*
X263403Y118120D01*
X263477Y118212D01*
X263536Y118315D01*
X263577Y118425D01*
X263601Y118541D01*
X263607Y118658D01*
X263594Y118776D01*
X263563Y118890D01*
X263515Y118997D01*
X263450Y119096D01*
X263370Y119183D01*
X263278Y119257D01*
X263175Y119314D01*
X262762Y119492D01*
X262334Y119628D01*
X262015Y119700D01*
X262581Y119835D01*
X263322Y120143D01*
X264007Y120562D01*
X264617Y121083D01*
X265139Y121694D01*
X265142Y121699D01*
Y117280D01*
X265076Y117298D01*
X264958Y117311D01*
X264839Y117306D01*
X264723Y117282D01*
X264612Y117240D01*
X264509Y117181D01*
X264417Y117106D01*
X264337Y117019D01*
X264272Y116919D01*
X264223Y116811D01*
X264192Y116697D01*
X264179Y116579D01*
X264185Y116461D01*
X264209Y116344D01*
X264253Y116235D01*
X264379Y115944D01*
X264475Y115641D01*
X264544Y115332D01*
X264586Y115018D01*
X264600Y114701D01*
X264586Y114384D01*
X264544Y114070D01*
X264475Y113760D01*
X264379Y113458D01*
X264256Y113166D01*
X264212Y113056D01*
X264188Y112941D01*
X264183Y112823D01*
X264196Y112705D01*
X264227Y112591D01*
X264275Y112484D01*
X264340Y112385D01*
X264419Y112298D01*
X264511Y112224D01*
X264614Y112165D01*
X264724Y112123D01*
X264840Y112099D01*
X264958Y112094D01*
X265075Y112107D01*
X265142Y112125D01*
Y106201D01*
X262059D01*
X262000Y106205D01*
X261765Y106187D01*
X261765Y106187D01*
X261535Y106132D01*
X261317Y106041D01*
X261116Y105918D01*
X261002Y105821D01*
Y109596D01*
X261449Y109616D01*
X261895Y109675D01*
X262334Y109773D01*
X262762Y109910D01*
X263177Y110083D01*
X263280Y110141D01*
X263373Y110216D01*
X263453Y110303D01*
X263518Y110403D01*
X263566Y110511D01*
X263598Y110625D01*
X263611Y110743D01*
X263605Y110861D01*
X263581Y110978D01*
X263539Y111089D01*
X263480Y111191D01*
X263406Y111284D01*
X263318Y111364D01*
X263219Y111429D01*
X263111Y111478D01*
X262996Y111509D01*
X262878Y111522D01*
X262760Y111516D01*
X262644Y111492D01*
X262534Y111448D01*
X262243Y111322D01*
X261941Y111226D01*
X261631Y111157D01*
X261317Y111115D01*
X261002Y111101D01*
Y118301D01*
X261317Y118287D01*
G37*
G36*
X313986Y19732D02*Y37114D01*
X314135Y37198D01*
X314289Y37321D01*
X314422Y37466D01*
X314527Y37632D01*
X314951Y38466D01*
X315288Y39339D01*
X315542Y40239D01*
X315713Y41159D01*
X315799Y42091D01*
Y43027D01*
X315713Y43959D01*
X315542Y44879D01*
X315288Y45779D01*
X314951Y46652D01*
X314536Y47491D01*
X314428Y47657D01*
X314295Y47803D01*
X314140Y47927D01*
X313986Y48014D01*
Y75982D01*
X324803Y19732D01*
X313986D01*
G37*
G36*
X305626D02*Y32382D01*
X306090D01*
X307022Y32468D01*
X307942Y32639D01*
X308842Y32893D01*
X309715Y33230D01*
X310554Y33645D01*
X310720Y33753D01*
X310866Y33886D01*
X310990Y34041D01*
X311087Y34214D01*
X311157Y34399D01*
X311196Y34593D01*
X311205Y34791D01*
X311183Y34988D01*
X311130Y35178D01*
X311048Y35359D01*
X310939Y35524D01*
X310805Y35670D01*
X310650Y35793D01*
X310478Y35891D01*
X310293Y35961D01*
X310099Y36000D01*
X309901Y36009D01*
X309704Y35987D01*
X309513Y35934D01*
X309335Y35849D01*
X308707Y35529D01*
X308049Y35275D01*
X307370Y35084D01*
X306677Y34955D01*
X305975Y34890D01*
X305626D01*
Y50228D01*
X305975D01*
X306677Y50163D01*
X307370Y50035D01*
X308049Y49843D01*
X308707Y49589D01*
X309339Y49277D01*
X309516Y49192D01*
X309706Y49139D01*
X309901Y49117D01*
X310098Y49126D01*
X310290Y49165D01*
X310475Y49234D01*
X310646Y49331D01*
X310800Y49454D01*
X310932Y49599D01*
X311041Y49763D01*
X311122Y49942D01*
X311175Y50132D01*
X311197Y50328D01*
X311188Y50524D01*
X311149Y50717D01*
X311080Y50901D01*
X310983Y51072D01*
X310860Y51226D01*
X310715Y51359D01*
X310549Y51464D01*
X309715Y51888D01*
X308842Y52225D01*
X307942Y52479D01*
X307022Y52650D01*
X306090Y52736D01*
X305626D01*
Y119450D01*
X313986Y75982D01*
Y48014D01*
X313968Y48024D01*
X313782Y48094D01*
X313588Y48133D01*
X313390Y48142D01*
X313194Y48120D01*
X313003Y48067D01*
X312822Y47985D01*
X312657Y47876D01*
X312511Y47742D01*
X312388Y47587D01*
X312290Y47415D01*
X312221Y47230D01*
X312181Y47036D01*
X312172Y46838D01*
X312194Y46641D01*
X312247Y46450D01*
X312332Y46272D01*
X312652Y45644D01*
X312906Y44986D01*
X313098Y44307D01*
X313226Y43614D01*
X313291Y42912D01*
Y42206D01*
X313226Y41504D01*
X313098Y40811D01*
X312906Y40132D01*
X312652Y39474D01*
X312340Y38842D01*
X312255Y38665D01*
X312202Y38476D01*
X312180Y38280D01*
X312189Y38083D01*
X312228Y37891D01*
X312297Y37706D01*
X312394Y37535D01*
X312517Y37381D01*
X312662Y37249D01*
X312826Y37140D01*
X313005Y37059D01*
X313195Y37006D01*
X313391Y36984D01*
X313587Y36993D01*
X313780Y37032D01*
X313964Y37101D01*
X313986Y37114D01*
Y19732D01*
X305626D01*
G37*
G36*
X297258D02*Y37104D01*
X297277Y37094D01*
X297462Y37024D01*
X297656Y36985D01*
X297854Y36976D01*
X298051Y36998D01*
X298241Y37051D01*
X298422Y37133D01*
X298587Y37242D01*
X298733Y37376D01*
X298856Y37531D01*
X298954Y37703D01*
X299024Y37888D01*
X299063Y38082D01*
X299072Y38280D01*
X299050Y38477D01*
X298997Y38668D01*
X298912Y38846D01*
X298592Y39474D01*
X298338Y40132D01*
X298147Y40811D01*
X298018Y41504D01*
X297953Y42206D01*
Y42912D01*
X298018Y43614D01*
X298147Y44307D01*
X298338Y44986D01*
X298592Y45644D01*
X298904Y46276D01*
X298989Y46453D01*
X299042Y46643D01*
X299064Y46838D01*
X299055Y47035D01*
X299016Y47227D01*
X298947Y47412D01*
X298850Y47583D01*
X298727Y47737D01*
X298582Y47870D01*
X298418Y47978D01*
X298239Y48059D01*
X298049Y48112D01*
X297854Y48134D01*
X297657Y48125D01*
X297464Y48086D01*
X297280Y48017D01*
X297258Y48005D01*
Y162960D01*
X305626Y119450D01*
Y52736D01*
X305154D01*
X304222Y52650D01*
X303302Y52479D01*
X302402Y52225D01*
X301529Y51888D01*
X300690Y51474D01*
X300524Y51365D01*
X300378Y51232D01*
X300255Y51077D01*
X300157Y50905D01*
X300087Y50719D01*
X300048Y50525D01*
X300039Y50327D01*
X300061Y50131D01*
X300114Y49940D01*
X300196Y49759D01*
X300305Y49594D01*
X300439Y49448D01*
X300594Y49325D01*
X300766Y49227D01*
X300951Y49158D01*
X301145Y49118D01*
X301343Y49109D01*
X301540Y49131D01*
X301731Y49184D01*
X301909Y49270D01*
X302537Y49589D01*
X303195Y49843D01*
X303874Y50035D01*
X304567Y50163D01*
X305269Y50228D01*
X305626D01*
Y34890D01*
X305269D01*
X304567Y34955D01*
X303874Y35084D01*
X303195Y35275D01*
X302537Y35529D01*
X301905Y35842D01*
X301728Y35926D01*
X301539Y35979D01*
X301343Y36001D01*
X301146Y35992D01*
X300954Y35953D01*
X300769Y35884D01*
X300598Y35787D01*
X300444Y35664D01*
X300312Y35519D01*
X300203Y35355D01*
X300122Y35176D01*
X300069Y34986D01*
X300047Y34791D01*
X300056Y34594D01*
X300095Y34401D01*
X300164Y34217D01*
X300261Y34046D01*
X300384Y33892D01*
X300529Y33759D01*
X300695Y33654D01*
X301529Y33230D01*
X302402Y32893D01*
X303302Y32639D01*
X304222Y32468D01*
X305154Y32382D01*
X305626D01*
Y19732D01*
X297258D01*
G37*
G36*
X291776D02*Y30032D01*
X291820Y30084D01*
X292325Y30907D01*
X292694Y31799D01*
X292920Y32738D01*
X292976Y33701D01*
X292920Y34663D01*
X292694Y35602D01*
X292325Y36494D01*
X291820Y37317D01*
X291776Y37369D01*
Y43338D01*
X291811Y43344D01*
X291960Y43392D01*
X292101Y43463D01*
X292228Y43555D01*
X292340Y43666D01*
X292433Y43793D01*
X292502Y43934D01*
X292694Y44439D01*
X292834Y44960D01*
X292929Y45491D01*
X292976Y46029D01*
Y46569D01*
X292929Y47107D01*
X292834Y47639D01*
X292694Y48160D01*
X292508Y48667D01*
X292436Y48808D01*
X292343Y48935D01*
X292231Y49047D01*
X292103Y49139D01*
X291962Y49210D01*
X291811Y49259D01*
X291776Y49264D01*
Y191469D01*
X297258Y162960D01*
Y48005D01*
X297109Y47920D01*
X296955Y47797D01*
X296822Y47652D01*
X296717Y47486D01*
X296293Y46652D01*
X295956Y45779D01*
X295702Y44879D01*
X295531Y43959D01*
X295445Y43027D01*
Y42091D01*
X295531Y41159D01*
X295702Y40239D01*
X295956Y39339D01*
X296293Y38466D01*
X296708Y37627D01*
X296816Y37461D01*
X296949Y37315D01*
X297104Y37192D01*
X297258Y37104D01*
Y19732D01*
X291776D01*
G37*
G36*
X291193Y38051D02*X290459Y38678D01*
X289636Y39183D01*
X288744Y39552D01*
X287805Y39778D01*
X286845Y39853D01*
Y40165D01*
X287112D01*
X287650Y40213D01*
X288182Y40307D01*
X288703Y40448D01*
X289210Y40634D01*
X289351Y40705D01*
X289478Y40799D01*
X289590Y40911D01*
X289682Y41039D01*
X289754Y41180D01*
X289802Y41330D01*
X289826Y41486D01*
X289826Y41644D01*
X289801Y41800D01*
X289751Y41951D01*
X289679Y42091D01*
X289586Y42219D01*
X289474Y42330D01*
X289346Y42423D01*
X289204Y42494D01*
X289054Y42542D01*
X288898Y42567D01*
X288740Y42566D01*
X288584Y42541D01*
X288435Y42489D01*
X288095Y42360D01*
X287744Y42265D01*
X287386Y42201D01*
X287024Y42169D01*
X286845D01*
Y50429D01*
X287024D01*
X287386Y50397D01*
X287744Y50334D01*
X288095Y50239D01*
X288436Y50113D01*
X288585Y50061D01*
X288740Y50036D01*
X288898Y50036D01*
X289053Y50060D01*
X289203Y50108D01*
X289343Y50179D01*
X289471Y50271D01*
X289583Y50382D01*
X289676Y50509D01*
X289748Y50649D01*
X289797Y50799D01*
X289822Y50954D01*
X289822Y51112D01*
X289798Y51267D01*
X289750Y51417D01*
X289679Y51558D01*
X289587Y51685D01*
X289476Y51797D01*
X289349Y51890D01*
X289208Y51959D01*
X288703Y52150D01*
X288182Y52291D01*
X287650Y52386D01*
X287112Y52433D01*
X286845D01*
Y217111D01*
X291776Y191469D01*
Y49264D01*
X291655Y49283D01*
X291497Y49282D01*
X291341Y49257D01*
X291191Y49208D01*
X291051Y49136D01*
X290923Y49042D01*
X290812Y48930D01*
X290719Y48802D01*
X290648Y48661D01*
X290599Y48511D01*
X290575Y48355D01*
X290576Y48197D01*
X290601Y48041D01*
X290653Y47892D01*
X290782Y47552D01*
X290877Y47201D01*
X290940Y46843D01*
X290972Y46481D01*
Y46117D01*
X290940Y45755D01*
X290877Y45397D01*
X290782Y45047D01*
X290657Y44705D01*
X290605Y44557D01*
X290580Y44402D01*
X290579Y44244D01*
X290603Y44089D01*
X290652Y43939D01*
X290723Y43798D01*
X290815Y43671D01*
X290926Y43559D01*
X291053Y43466D01*
X291193Y43394D01*
X291342Y43345D01*
X291498Y43320D01*
X291655Y43320D01*
X291776Y43338D01*
Y37369D01*
X291193Y38051D01*
G37*
G36*
X286845Y19732D02*Y25897D01*
X287125Y26203D01*
X287744Y27010D01*
X288195Y27717D01*
X288744Y27849D01*
X289636Y28219D01*
X290459Y28723D01*
X291193Y29350D01*
X291776Y30032D01*
Y19732D01*
X286845D01*
G37*
G36*
X277144Y90550D02*X277295Y91232D01*
X277387Y91924D01*
X277417Y92622D01*
X277409Y92729D01*
Y116827D01*
X277409Y116827D01*
X277387Y117524D01*
X277295Y118217D01*
X277144Y118899D01*
X276991Y119386D01*
Y137129D01*
X279447Y134673D01*
X279468Y134649D01*
X279587Y134522D01*
X279693Y134383D01*
X279787Y134236D01*
X279868Y134081D01*
X279934Y133920D01*
X279987Y133754D01*
X280025Y133583D01*
X280048Y133410D01*
X280055Y133236D01*
X280055Y133236D01*
Y78859D01*
X280053Y78827D01*
X280048Y78653D01*
X280025Y78480D01*
X279987Y78309D01*
X279934Y78143D01*
X279868Y77982D01*
X279787Y77827D01*
X279693Y77680D01*
X279587Y77541D01*
X279469Y77413D01*
X279469Y77413D01*
X276991Y74934D01*
Y90062D01*
X277144Y90550D01*
G37*
G36*
X286843Y39854D02*X285880Y39778D01*
X284941Y39552D01*
X284049Y39183D01*
X283226Y38678D01*
X282492Y38051D01*
X281921Y37383D01*
X281351Y38051D01*
X280617Y38678D01*
X279793Y39183D01*
X278901Y39552D01*
X277963Y39778D01*
X277000Y39854D01*
X276991Y39853D01*
Y40147D01*
X277000Y40146D01*
X277963Y40222D01*
X278901Y40448D01*
X279793Y40817D01*
X280617Y41322D01*
X281351Y41949D01*
X281978Y42683D01*
X282391Y43357D01*
X282494Y43391D01*
X282635Y43463D01*
X282762Y43556D01*
X282873Y43668D01*
X282966Y43796D01*
X283037Y43937D01*
X283086Y44088D01*
X283110Y44244D01*
X283109Y44402D01*
X283084Y44558D01*
X283032Y44707D01*
X282967Y44878D01*
X283077Y45337D01*
X283134Y46299D01*
X283077Y47262D01*
X282966Y47724D01*
X283028Y47893D01*
X283080Y48041D01*
X283105Y48197D01*
X283106Y48354D01*
X283082Y48510D01*
X283034Y48660D01*
X282963Y48800D01*
X282870Y48928D01*
X282759Y49039D01*
X282632Y49132D01*
X282492Y49204D01*
X282394Y49237D01*
X281978Y49916D01*
X281351Y50650D01*
X280617Y51277D01*
X279793Y51781D01*
X278901Y52151D01*
X277963Y52376D01*
X277000Y52452D01*
X276991Y52451D01*
Y62109D01*
X277733Y62563D01*
X278490Y63210D01*
X279137Y63968D01*
X279658Y64818D01*
X280039Y65738D01*
X280272Y66707D01*
X280331Y67701D01*
X280272Y68694D01*
X280071Y69530D01*
X283712Y73170D01*
X283712Y73170D01*
X284189Y73680D01*
X284615Y74234D01*
X284990Y74823D01*
X285312Y75443D01*
X285580Y76088D01*
X285790Y76754D01*
X285941Y77436D01*
X286032Y78129D01*
X286063Y78827D01*
X286055Y78934D01*
Y133236D01*
X286055Y133236D01*
X286032Y133934D01*
X285941Y134627D01*
X285790Y135309D01*
X285580Y135975D01*
X285312Y136620D01*
X284990Y137240D01*
X284615Y137829D01*
X284189Y138383D01*
X283717Y138898D01*
X283636Y138969D01*
X277247Y145358D01*
X277247Y145358D01*
X276991Y145598D01*
Y268350D01*
X286845Y217111D01*
Y52433D01*
X286573D01*
X286035Y52386D01*
X285503Y52291D01*
X284982Y52150D01*
X284475Y51964D01*
X284334Y51893D01*
X284207Y51800D01*
X284095Y51688D01*
X284003Y51560D01*
X283931Y51419D01*
X283883Y51268D01*
X283859Y51112D01*
X283859Y50954D01*
X283885Y50798D01*
X283934Y50648D01*
X284006Y50507D01*
X284099Y50380D01*
X284211Y50268D01*
X284340Y50176D01*
X284481Y50104D01*
X284631Y50056D01*
X284787Y50032D01*
X284945Y50032D01*
X285101Y50058D01*
X285250Y50110D01*
X285590Y50239D01*
X285941Y50334D01*
X286299Y50397D01*
X286661Y50429D01*
X286845D01*
Y42169D01*
X286661D01*
X286299Y42201D01*
X285941Y42265D01*
X285590Y42360D01*
X285249Y42485D01*
X285100Y42537D01*
X284945Y42562D01*
X284787Y42563D01*
X284632Y42538D01*
X284482Y42490D01*
X284342Y42419D01*
X284214Y42327D01*
X284102Y42216D01*
X284009Y42089D01*
X283938Y41949D01*
X283888Y41800D01*
X283863Y41644D01*
X283863Y41487D01*
X283887Y41331D01*
X283935Y41181D01*
X284006Y41041D01*
X284098Y40913D01*
X284209Y40802D01*
X284336Y40709D01*
X284477Y40640D01*
X284982Y40448D01*
X285503Y40307D01*
X286035Y40213D01*
X286573Y40165D01*
X286845D01*
Y39853D01*
X286843Y39854D01*
G37*
G36*
X276738Y145835D02*X276183Y146260D01*
X275594Y146636D01*
X274975Y146958D01*
X274329Y147225D01*
X273663Y147436D01*
X272981Y147587D01*
X272288Y147678D01*
X271590Y147708D01*
X271483Y147701D01*
X267500D01*
Y148603D01*
X267508Y148701D01*
X267477Y149093D01*
X267477Y149093D01*
X267385Y149476D01*
X267234Y149839D01*
X267029Y150175D01*
X266773Y150474D01*
X266584Y150636D01*
Y171373D01*
X266809Y171741D01*
X267201Y172686D01*
X267440Y173681D01*
X267500Y174701D01*
X267440Y175721D01*
X267201Y176716D01*
X266809Y177661D01*
X266584Y178029D01*
Y303301D01*
X275000Y278701D01*
X276991Y268350D01*
Y145598D01*
X276738Y145835D01*
G37*
G36*
X276934Y119565D02*X276667Y120211D01*
X276344Y120830D01*
X275969Y121420D01*
X275544Y121974D01*
X275072Y122489D01*
X274991Y122559D01*
X272192Y125358D01*
X272192Y125358D01*
X271682Y125835D01*
X271128Y126260D01*
X270539Y126636D01*
X269919Y126958D01*
X269274Y127225D01*
X268608Y127436D01*
X267926Y127587D01*
X267233Y127678D01*
X266584Y127706D01*
Y138766D01*
X266773Y138928D01*
X267029Y139227D01*
X267234Y139562D01*
X267385Y139926D01*
X267477Y140308D01*
X267508Y140701D01*
X267500Y140799D01*
Y141701D01*
X271558D01*
X271590Y141699D01*
X271765Y141693D01*
X271938Y141670D01*
X272108Y141633D01*
X272274Y141580D01*
X272436Y141513D01*
X272590Y141433D01*
X272737Y141339D01*
X272876Y141233D01*
X273005Y141115D01*
X273005Y141115D01*
X276991Y137129D01*
Y119386D01*
X276934Y119565D01*
G37*
G36*
X276037Y39778D02*X275099Y39552D01*
X274207Y39183D01*
X273383Y38678D01*
X272649Y38051D01*
X272022Y37317D01*
X271518Y36494D01*
X271148Y35602D01*
X270923Y34663D01*
X270847Y33701D01*
X270923Y32738D01*
X271148Y31799D01*
X271518Y30907D01*
X272022Y30084D01*
X272649Y29350D01*
X273383Y28723D01*
X274207Y28219D01*
X274620Y28047D01*
X266584D01*
Y37114D01*
X266734Y37198D01*
X266888Y37321D01*
X267020Y37466D01*
X267126Y37632D01*
X267550Y38466D01*
X267886Y39339D01*
X268141Y40239D01*
X268312Y41159D01*
X268398Y42091D01*
Y43027D01*
X268312Y43959D01*
X268141Y44879D01*
X267886Y45779D01*
X267550Y46652D01*
X267135Y47491D01*
X267027Y47657D01*
X266893Y47803D01*
X266738Y47927D01*
X266584Y48014D01*
Y78483D01*
X275066Y86965D01*
X275066Y86966D01*
X275544Y87475D01*
X275969Y88029D01*
X276344Y88618D01*
X276667Y89238D01*
X276934Y89883D01*
X276991Y90062D01*
Y74934D01*
X275829Y73772D01*
X274993Y73973D01*
X274000Y74051D01*
X273007Y73973D01*
X272038Y73740D01*
X271117Y73359D01*
X270267Y72838D01*
X269510Y72191D01*
X268863Y71433D01*
X268342Y70584D01*
X267961Y69663D01*
X267728Y68694D01*
X267650Y67701D01*
X267728Y66707D01*
X267961Y65738D01*
X268342Y64818D01*
X268863Y63968D01*
X269510Y63210D01*
X270267Y62563D01*
X271117Y62043D01*
X272038Y61661D01*
X273007Y61429D01*
X274000Y61351D01*
X274993Y61429D01*
X275962Y61661D01*
X276883Y62043D01*
X276991Y62109D01*
Y52451D01*
X276037Y52376D01*
X275099Y52151D01*
X274207Y51781D01*
X273383Y51277D01*
X272649Y50650D01*
X272022Y49916D01*
X271518Y49093D01*
X271148Y48201D01*
X270923Y47262D01*
X270847Y46299D01*
X270923Y45337D01*
X271148Y44398D01*
X271518Y43506D01*
X272022Y42683D01*
X272649Y41949D01*
X273383Y41322D01*
X274207Y40817D01*
X275099Y40448D01*
X276037Y40222D01*
X276991Y40147D01*
Y39853D01*
X276037Y39778D01*
G37*
G36*
X266584Y19732D02*Y22047D01*
X278189D01*
X278189Y22047D01*
X279206Y22081D01*
X280215Y22213D01*
X281208Y22434D01*
X282179Y22740D01*
X283119Y23129D01*
X284021Y23599D01*
X284880Y24146D01*
X285687Y24765D01*
X286437Y25453D01*
X286845Y25897D01*
Y19732D01*
X266584D01*
G37*
G36*
X266275Y178533D02*X265610Y179311D01*
X264832Y179976D01*
X263960Y180510D01*
X263015Y180902D01*
X262020Y181141D01*
X261002Y181221D01*
Y318365D01*
X262000Y316701D01*
X266584Y303301D01*
Y178029D01*
X266275Y178533D01*
G37*
G36*
X266474Y150730D02*X266138Y150935D01*
X265775Y151086D01*
X265392Y151178D01*
X265000Y151208D01*
X264902Y151201D01*
X261002D01*
Y168181D01*
X262020Y168261D01*
X263015Y168500D01*
X263960Y168891D01*
X264832Y169426D01*
X265610Y170090D01*
X266275Y170868D01*
X266584Y171373D01*
Y150636D01*
X266474Y150730D01*
G37*
G36*
X266535Y127708D02*X266428Y127701D01*
X265143D01*
X265139Y127708D01*
X264617Y128318D01*
X264007Y128840D01*
X263322Y129259D01*
X262581Y129566D01*
X262437Y129601D01*
X264541D01*
X264600Y129596D01*
X264835Y129615D01*
X264835Y129615D01*
X265065Y129670D01*
X265283Y129760D01*
X265484Y129884D01*
X265664Y130037D01*
X265817Y130216D01*
X265941Y130418D01*
X266031Y130636D01*
X266086Y130865D01*
X266105Y131101D01*
X266100Y131160D01*
Y138242D01*
X266105Y138301D01*
X266093Y138448D01*
X266138Y138466D01*
X266474Y138672D01*
X266584Y138766D01*
Y127706D01*
X266535Y127708D01*
G37*
G36*
X261002Y28047D02*Y32769D01*
X261441Y32893D01*
X262314Y33230D01*
X263153Y33645D01*
X263318Y33753D01*
X263465Y33886D01*
X263588Y34041D01*
X263686Y34214D01*
X263755Y34399D01*
X263795Y34593D01*
X263804Y34791D01*
X263781Y34988D01*
X263728Y35178D01*
X263647Y35359D01*
X263537Y35524D01*
X263404Y35670D01*
X263249Y35793D01*
X263077Y35891D01*
X262891Y35961D01*
X262697Y36000D01*
X262499Y36009D01*
X262302Y35987D01*
X262112Y35934D01*
X261933Y35849D01*
X261305Y35529D01*
X261002Y35412D01*
Y49706D01*
X261305Y49589D01*
X261937Y49277D01*
X262114Y49192D01*
X262304Y49139D01*
X262500Y49117D01*
X262696Y49126D01*
X262889Y49165D01*
X263073Y49234D01*
X263244Y49331D01*
X263398Y49454D01*
X263531Y49599D01*
X263639Y49763D01*
X263721Y49942D01*
X263773Y50132D01*
X263795Y50328D01*
X263787Y50524D01*
X263747Y50717D01*
X263678Y50901D01*
X263581Y51072D01*
X263459Y51226D01*
X263313Y51359D01*
X263147Y51464D01*
X262314Y51888D01*
X261441Y52225D01*
X261002Y52349D01*
Y72901D01*
X266584Y78483D01*
Y48014D01*
X266566Y48024D01*
X266381Y48094D01*
X266187Y48133D01*
X265989Y48142D01*
X265792Y48120D01*
X265601Y48067D01*
X265421Y47985D01*
X265256Y47876D01*
X265110Y47742D01*
X264986Y47587D01*
X264888Y47415D01*
X264819Y47230D01*
X264779Y47036D01*
X264771Y46838D01*
X264793Y46641D01*
X264846Y46450D01*
X264931Y46272D01*
X265251Y45644D01*
X265504Y44986D01*
X265696Y44307D01*
X265825Y43614D01*
X265890Y42912D01*
Y42206D01*
X265825Y41504D01*
X265696Y40811D01*
X265504Y40132D01*
X265251Y39474D01*
X264938Y38842D01*
X264853Y38665D01*
X264801Y38476D01*
X264779Y38280D01*
X264787Y38083D01*
X264827Y37891D01*
X264896Y37706D01*
X264993Y37535D01*
X265115Y37381D01*
X265261Y37249D01*
X265425Y37140D01*
X265604Y37059D01*
X265794Y37006D01*
X265989Y36984D01*
X266186Y36993D01*
X266378Y37032D01*
X266563Y37101D01*
X266584Y37114D01*
Y28047D01*
X261002D01*
G37*
G36*
Y19732D02*Y22047D01*
X266584D01*
Y19732D01*
X261002D01*
G37*
G36*
X256861Y121694D02*X257383Y121083D01*
X257993Y120562D01*
X258678Y120143D01*
X259419Y119835D01*
X259985Y119700D01*
X259666Y119628D01*
X259238Y119492D01*
X258823Y119318D01*
X258720Y119260D01*
X258627Y119186D01*
X258547Y119098D01*
X258482Y118999D01*
X258434Y118891D01*
X258402Y118776D01*
X258389Y118659D01*
X258395Y118540D01*
X258419Y118424D01*
X258461Y118313D01*
X258520Y118210D01*
X258594Y118118D01*
X258682Y118038D01*
X258781Y117973D01*
X258889Y117924D01*
X259004Y117893D01*
X259122Y117880D01*
X259240Y117886D01*
X259356Y117910D01*
X259466Y117954D01*
X259757Y118079D01*
X260059Y118176D01*
X260369Y118245D01*
X260683Y118287D01*
X261000Y118301D01*
X261002Y118301D01*
Y111101D01*
X261000Y111101D01*
X260683Y111115D01*
X260369Y111157D01*
X260059Y111226D01*
X259757Y111322D01*
X259465Y111445D01*
X259355Y111488D01*
X259240Y111512D01*
X259122Y111518D01*
X259005Y111505D01*
X258891Y111474D01*
X258783Y111426D01*
X258684Y111361D01*
X258597Y111282D01*
X258523Y111190D01*
X258464Y111087D01*
X258423Y110977D01*
X258399Y110861D01*
X258393Y110743D01*
X258406Y110626D01*
X258437Y110512D01*
X258485Y110404D01*
X258550Y110306D01*
X258630Y110218D01*
X258722Y110144D01*
X258825Y110088D01*
X259238Y109910D01*
X259666Y109773D01*
X260105Y109675D01*
X260551Y109616D01*
X261000Y109596D01*
X261002Y109596D01*
Y105821D01*
X260936Y105765D01*
X260783Y105585D01*
X260659Y105384D01*
X260569Y105166D01*
X260514Y104936D01*
X260495Y104701D01*
X260498Y104673D01*
X260256Y104957D01*
X259538Y105570D01*
X258732Y106063D01*
X257860Y106425D01*
X256942Y106645D01*
X256858Y106652D01*
Y112121D01*
X256924Y112103D01*
X257042Y112090D01*
X257161Y112096D01*
X257277Y112120D01*
X257388Y112162D01*
X257491Y112221D01*
X257583Y112295D01*
X257663Y112383D01*
X257728Y112482D01*
X257777Y112590D01*
X257808Y112705D01*
X257821Y112823D01*
X257815Y112941D01*
X257791Y113057D01*
X257747Y113167D01*
X257621Y113458D01*
X257525Y113760D01*
X257456Y114070D01*
X257414Y114384D01*
X257400Y114701D01*
X257414Y115018D01*
X257456Y115332D01*
X257525Y115641D01*
X257621Y115944D01*
X257744Y116236D01*
X257788Y116345D01*
X257812Y116461D01*
X257817Y116579D01*
X257804Y116696D01*
X257773Y116810D01*
X257725Y116918D01*
X257660Y117017D01*
X257581Y117104D01*
X257489Y117178D01*
X257386Y117236D01*
X257276Y117278D01*
X257160Y117302D01*
X257042Y117308D01*
X256925Y117295D01*
X256858Y117277D01*
Y121699D01*
X256861Y121694D01*
G37*
G36*
X256935Y129670D02*X257165Y129615D01*
X257400Y129596D01*
X257459Y129601D01*
X259563D01*
X259419Y129566D01*
X258678Y129259D01*
X257993Y128840D01*
X257383Y128318D01*
X256861Y127708D01*
X256858Y127702D01*
Y129702D01*
X256935Y129670D01*
G37*
G36*
X261000Y181221D02*X259980Y181141D01*
X258985Y180902D01*
X258040Y180510D01*
X257168Y179976D01*
X256858Y179711D01*
Y325271D01*
X261002Y318365D01*
Y181221D01*
X261000Y181221D01*
G37*
G36*
X256390Y179311D02*X255725Y178533D01*
X255215Y177701D01*
X244103D01*
X244071Y177703D01*
X243897Y177708D01*
X243724Y177731D01*
X243553Y177769D01*
X243387Y177821D01*
X243226Y177888D01*
X243071Y177969D01*
X242924Y178062D01*
X242785Y178169D01*
X242657Y178287D01*
X242657Y178287D01*
X218609Y202335D01*
X218587Y202359D01*
X218468Y202486D01*
X218362Y202625D01*
X218268Y202772D01*
X218187Y202927D01*
X218121Y203088D01*
X218068Y203254D01*
X218030Y203425D01*
X218008Y203598D01*
X218000Y203772D01*
X218000Y203772D01*
Y209795D01*
X218347D01*
X218425Y209789D01*
X218739Y209814D01*
X218739Y209814D01*
X219045Y209887D01*
X219336Y210008D01*
X219604Y210172D01*
X219844Y210377D01*
X220048Y210616D01*
X220213Y210884D01*
X220333Y211175D01*
X220407Y211481D01*
X220431Y211795D01*
X220425Y211874D01*
Y223528D01*
X220431Y223606D01*
X220407Y223920D01*
X220333Y224226D01*
X220213Y224517D01*
X220048Y224785D01*
X219844Y225025D01*
X219604Y225229D01*
X219336Y225394D01*
X219045Y225514D01*
X218739Y225588D01*
X218425Y225612D01*
X218347Y225606D01*
X213008D01*
X217323Y229921D01*
Y235039D01*
X212205Y240157D01*
X207874D01*
X202756Y235039D01*
Y229921D01*
X207071Y225606D01*
X201614D01*
X201535Y225612D01*
X201222Y225588D01*
X201222Y225588D01*
X200915Y225514D01*
X200625Y225394D01*
X200356Y225229D01*
X200117Y225025D01*
X199912Y224785D01*
X199748Y224517D01*
X199627Y224226D01*
X199554Y223920D01*
X199529Y223606D01*
X199535Y223528D01*
Y211874D01*
X199529Y211795D01*
X199554Y211481D01*
X199627Y211175D01*
X199748Y210884D01*
X199912Y210616D01*
X200117Y210377D01*
X200356Y210172D01*
X200625Y210008D01*
X200915Y209887D01*
X201222Y209814D01*
X201535Y209789D01*
X201614Y209795D01*
X202000D01*
Y173772D01*
X202000Y173772D01*
X202023Y173074D01*
X202114Y172381D01*
X202265Y171699D01*
X202475Y171033D01*
X202743Y170388D01*
X203065Y169768D01*
X203441Y169179D01*
X203866Y168625D01*
X204338Y168110D01*
X204419Y168039D01*
X238414Y134044D01*
X238414Y134044D01*
X238924Y133567D01*
X239478Y133141D01*
X240067Y132766D01*
X240687Y132443D01*
X241332Y132176D01*
X241999Y131966D01*
X242681Y131815D01*
X243373Y131724D01*
X243424Y131721D01*
X243624Y131673D01*
X244094Y131646D01*
X255900D01*
Y131160D01*
X255895Y131101D01*
X255914Y130866D01*
X255914Y130865D01*
X255969Y130636D01*
X256059Y130418D01*
X256183Y130216D01*
X256336Y130037D01*
X256516Y129884D01*
X256717Y129760D01*
X256858Y129702D01*
Y127702D01*
X256442Y127023D01*
X256135Y126282D01*
X255947Y125501D01*
X255884Y124701D01*
X255947Y123901D01*
X256135Y123120D01*
X256442Y122378D01*
X256858Y121699D01*
Y117277D01*
X256811Y117264D01*
X256703Y117215D01*
X256605Y117151D01*
X256517Y117071D01*
X256443Y116979D01*
X256387Y116876D01*
X256209Y116463D01*
X256072Y116035D01*
X255974Y115596D01*
X255915Y115150D01*
X255895Y114701D01*
X255915Y114252D01*
X255974Y113806D01*
X256072Y113367D01*
X256209Y112939D01*
X256383Y112524D01*
X256441Y112420D01*
X256515Y112328D01*
X256603Y112248D01*
X256702Y112183D01*
X256810Y112134D01*
X256858Y112121D01*
Y106652D01*
X256000Y106719D01*
X255058Y106645D01*
X254140Y106425D01*
X253268Y106063D01*
X252462Y105570D01*
X251744Y104957D01*
X251131Y104238D01*
X250855Y103787D01*
X183171D01*
Y336205D01*
X191444D01*
X191523Y336199D01*
X191836Y336224D01*
X191836Y336224D01*
X192142Y336297D01*
X192433Y336418D01*
X192702Y336582D01*
X192941Y336786D01*
X193146Y337026D01*
X193310Y337294D01*
X193431Y337585D01*
X193504Y337891D01*
X193529Y338205D01*
X193523Y338283D01*
Y354830D01*
X193529Y354908D01*
X193504Y355222D01*
X193504Y355222D01*
X193431Y355528D01*
X193310Y355819D01*
X193146Y356088D01*
X192941Y356327D01*
X192702Y356531D01*
X192433Y356696D01*
X192142Y356816D01*
X191836Y356890D01*
X191523Y356915D01*
X191444Y356908D01*
X183171D01*
Y367993D01*
X186000Y367701D01*
X211000Y358701D01*
X234000Y346701D01*
X242000Y335701D01*
X256000Y326701D01*
X256858Y325271D01*
Y179711D01*
X256390Y179311D01*
G37*
G36*
X257098Y151201D02*X257000Y151208D01*
X256608Y151178D01*
X256608Y151178D01*
X256225Y151086D01*
X255862Y150935D01*
X255526Y150730D01*
X255227Y150474D01*
X254971Y150175D01*
X254766Y149839D01*
X254615Y149476D01*
X254523Y149093D01*
X254492Y148701D01*
X254500Y148603D01*
Y140799D01*
X254492Y140701D01*
X254523Y140309D01*
X254523Y140308D01*
X254615Y139926D01*
X254766Y139562D01*
X254971Y139227D01*
X255227Y138928D01*
X255526Y138672D01*
X255862Y138466D01*
X255907Y138448D01*
X255895Y138301D01*
X255900Y138242D01*
Y137646D01*
X244664D01*
X244542Y137675D01*
X244071Y137703D01*
X243897Y137708D01*
X243724Y137731D01*
X243553Y137769D01*
X243387Y137821D01*
X243226Y137888D01*
X243071Y137969D01*
X242924Y138062D01*
X242785Y138169D01*
X242657Y138287D01*
X242657Y138287D01*
X208609Y172335D01*
X208587Y172359D01*
X208468Y172486D01*
X208362Y172625D01*
X208268Y172772D01*
X208187Y172927D01*
X208121Y173088D01*
X208068Y173254D01*
X208030Y173425D01*
X208008Y173598D01*
X208000Y173772D01*
X208000Y173772D01*
Y209795D01*
X208347D01*
X208425Y209789D01*
X208739Y209814D01*
X208739Y209814D01*
X209045Y209887D01*
X209336Y210008D01*
X209604Y210172D01*
X209844Y210377D01*
X209980Y210537D01*
X210117Y210377D01*
X210356Y210172D01*
X210625Y210008D01*
X210915Y209887D01*
X211222Y209814D01*
X211535Y209789D01*
X211614Y209795D01*
X212000D01*
Y203772D01*
X212000Y203772D01*
X212023Y203074D01*
X212114Y202381D01*
X212265Y201699D01*
X212475Y201033D01*
X212743Y200388D01*
X213065Y199768D01*
X213441Y199179D01*
X213866Y198625D01*
X214338Y198110D01*
X214419Y198039D01*
X238414Y174044D01*
X238414Y174044D01*
X238924Y173567D01*
X239478Y173141D01*
X240067Y172766D01*
X240687Y172443D01*
X241332Y172176D01*
X241999Y171966D01*
X242681Y171815D01*
X243373Y171724D01*
X244071Y171693D01*
X244178Y171701D01*
X255215D01*
X255725Y170868D01*
X256390Y170090D01*
X257168Y169426D01*
X258040Y168891D01*
X258985Y168500D01*
X259980Y168261D01*
X261000Y168181D01*
X261002Y168181D01*
Y151201D01*
X257098D01*
G37*
G36*
X249857Y28047D02*Y37104D01*
X249875Y37094D01*
X250060Y37024D01*
X250254Y36985D01*
X250452Y36976D01*
X250649Y36998D01*
X250840Y37051D01*
X251020Y37133D01*
X251185Y37242D01*
X251331Y37376D01*
X251455Y37531D01*
X251552Y37703D01*
X251622Y37888D01*
X251662Y38082D01*
X251670Y38280D01*
X251648Y38477D01*
X251595Y38668D01*
X251510Y38846D01*
X251190Y39474D01*
X250937Y40132D01*
X250745Y40811D01*
X250616Y41504D01*
X250551Y42206D01*
Y42912D01*
X250616Y43614D01*
X250745Y44307D01*
X250937Y44986D01*
X251190Y45644D01*
X251503Y46276D01*
X251588Y46453D01*
X251640Y46643D01*
X251662Y46838D01*
X251654Y47035D01*
X251614Y47227D01*
X251545Y47412D01*
X251448Y47583D01*
X251326Y47737D01*
X251180Y47870D01*
X251016Y47978D01*
X250837Y48059D01*
X250647Y48112D01*
X250452Y48134D01*
X250255Y48125D01*
X250063Y48086D01*
X249878Y48017D01*
X249857Y48005D01*
Y69701D01*
X254488D01*
X254488Y69701D01*
X255186Y69724D01*
X255878Y69815D01*
X256561Y69966D01*
X257227Y70176D01*
X257872Y70443D01*
X258492Y70766D01*
X259081Y71141D01*
X259635Y71567D01*
X260150Y72039D01*
X260221Y72120D01*
X261002Y72901D01*
Y52349D01*
X260540Y52479D01*
X259620Y52650D01*
X258688Y52736D01*
X257753D01*
X256821Y52650D01*
X255901Y52479D01*
X255000Y52225D01*
X254127Y51888D01*
X253288Y51474D01*
X253123Y51365D01*
X252976Y51232D01*
X252853Y51077D01*
X252755Y50905D01*
X252686Y50719D01*
X252646Y50525D01*
X252637Y50327D01*
X252660Y50131D01*
X252712Y49940D01*
X252794Y49759D01*
X252904Y49594D01*
X253037Y49448D01*
X253192Y49325D01*
X253364Y49227D01*
X253550Y49158D01*
X253744Y49118D01*
X253942Y49109D01*
X254138Y49131D01*
X254329Y49184D01*
X254508Y49270D01*
X255136Y49589D01*
X255794Y49843D01*
X256472Y50035D01*
X257166Y50163D01*
X257868Y50228D01*
X258573D01*
X259275Y50163D01*
X259968Y50035D01*
X260647Y49843D01*
X261002Y49706D01*
Y35412D01*
X260647Y35275D01*
X259968Y35084D01*
X259275Y34955D01*
X258573Y34890D01*
X257868D01*
X257166Y34955D01*
X256472Y35084D01*
X255794Y35275D01*
X255136Y35529D01*
X254504Y35842D01*
X254327Y35926D01*
X254137Y35979D01*
X253941Y36001D01*
X253745Y35992D01*
X253552Y35953D01*
X253368Y35884D01*
X253197Y35787D01*
X253043Y35664D01*
X252910Y35519D01*
X252802Y35355D01*
X252720Y35176D01*
X252668Y34986D01*
X252646Y34791D01*
X252654Y34594D01*
X252694Y34401D01*
X252763Y34217D01*
X252860Y34046D01*
X252982Y33892D01*
X253128Y33759D01*
X253294Y33654D01*
X254127Y33230D01*
X255000Y32893D01*
X255901Y32639D01*
X256821Y32468D01*
X257753Y32382D01*
X258688D01*
X259620Y32468D01*
X260540Y32639D01*
X261002Y32769D01*
Y28047D01*
X249857D01*
G37*
G36*
X183171D02*Y69701D01*
X203000D01*
X249857Y69701D01*
Y48005D01*
X249707Y47920D01*
X249553Y47797D01*
X249421Y47652D01*
X249315Y47486D01*
X248891Y46652D01*
X248555Y45779D01*
X248300Y44879D01*
X248129Y43959D01*
X248043Y43027D01*
Y42091D01*
X248129Y41159D01*
X248300Y40239D01*
X248555Y39339D01*
X248891Y38466D01*
X249306Y37627D01*
X249414Y37461D01*
X249548Y37315D01*
X249703Y37192D01*
X249857Y37104D01*
Y28047D01*
X183171D01*
G37*
G36*
Y19732D02*Y22047D01*
X261002D01*
Y19732D01*
X183171D01*
G37*
G36*
X160734Y103787D02*Y336333D01*
X160937Y336418D01*
X161206Y336582D01*
X161445Y336786D01*
X161649Y337026D01*
X161814Y337294D01*
X161934Y337585D01*
X162008Y337891D01*
X162033Y338205D01*
X162026Y338283D01*
Y354830D01*
X162033Y354908D01*
X162008Y355222D01*
X162008Y355222D01*
X161934Y355528D01*
X161814Y355819D01*
X161649Y356088D01*
X161445Y356327D01*
X161206Y356531D01*
X160937Y356696D01*
X160734Y356780D01*
Y370314D01*
X183171Y367993D01*
Y356908D01*
X174898D01*
X174819Y356915D01*
X174506Y356890D01*
X174505Y356890D01*
X174199Y356816D01*
X173908Y356696D01*
X173640Y356531D01*
X173401Y356327D01*
X173196Y356088D01*
X173032Y355819D01*
X172911Y355528D01*
X172838Y355222D01*
X172813Y354908D01*
X172819Y354830D01*
Y338283D01*
X172813Y338205D01*
X172838Y337891D01*
X172838Y337891D01*
X172911Y337585D01*
X173032Y337294D01*
X173196Y337026D01*
X173401Y336786D01*
X173640Y336582D01*
X173908Y336418D01*
X174199Y336297D01*
X174505Y336224D01*
X174819Y336199D01*
X174898Y336205D01*
X183171D01*
Y103787D01*
X160734D01*
G37*
G36*
Y28047D02*Y69701D01*
X183171D01*
Y28047D01*
X160734D01*
G37*
G36*
Y19732D02*Y22047D01*
X183171D01*
Y19732D01*
X160734D01*
G37*
G36*
X73143Y129701D02*X73616D01*
X74016Y129677D01*
X77818D01*
X77850Y129675D01*
X78025Y129670D01*
X78197Y129647D01*
X78368Y129609D01*
X78534Y129557D01*
X78695Y129490D01*
X78850Y129409D01*
X78997Y129315D01*
X79136Y129209D01*
X79264Y129091D01*
X79264Y129091D01*
X108225Y100131D01*
X108225Y100130D01*
X108735Y99653D01*
X109289Y99228D01*
X109878Y98853D01*
X110498Y98530D01*
X111143Y98263D01*
X111810Y98053D01*
X112492Y97901D01*
X113184Y97810D01*
X113882Y97780D01*
X113989Y97787D01*
X160734D01*
Y75701D01*
X89000D01*
Y94456D01*
X89000Y94457D01*
X88977Y95154D01*
X88886Y95847D01*
X88735Y96529D01*
X88525Y97195D01*
X88257Y97841D01*
X87935Y98460D01*
X87559Y99049D01*
X87134Y99604D01*
X86662Y100119D01*
X86581Y100189D01*
X79764Y107007D01*
X79944Y107759D01*
X80000Y108701D01*
X79944Y109642D01*
X79724Y110561D01*
X79363Y111433D01*
X78869Y112238D01*
X78256Y112957D01*
X77538Y113570D01*
X76732Y114063D01*
X75860Y114425D01*
X74942Y114645D01*
X74000Y114719D01*
X73142Y114652D01*
Y120125D01*
X73189Y120138D01*
X73297Y120186D01*
X73395Y120251D01*
X73483Y120330D01*
X73557Y120422D01*
X73613Y120526D01*
X73791Y120939D01*
X73928Y121367D01*
X74026Y121806D01*
X74085Y122252D01*
X74105Y122701D01*
X74085Y123150D01*
X74026Y123596D01*
X73928Y124035D01*
X73791Y124463D01*
X73617Y124878D01*
X73559Y124981D01*
X73485Y125074D01*
X73397Y125153D01*
X73298Y125218D01*
X73190Y125267D01*
X73142Y125280D01*
Y129699D01*
X73143Y129701D01*
G37*
G36*
X69317Y126287D02*X69631Y126245D01*
X69941Y126176D01*
X70243Y126079D01*
X70535Y125957D01*
X70645Y125913D01*
X70760Y125889D01*
X70878Y125883D01*
X70996Y125896D01*
X71109Y125927D01*
X71217Y125976D01*
X71316Y126041D01*
X71403Y126120D01*
X71477Y126212D01*
X71536Y126315D01*
X71577Y126425D01*
X71601Y126541D01*
X71607Y126658D01*
X71594Y126776D01*
X71563Y126890D01*
X71515Y126997D01*
X71450Y127096D01*
X71370Y127183D01*
X71278Y127257D01*
X71175Y127314D01*
X70762Y127492D01*
X70334Y127628D01*
X70015Y127700D01*
X70581Y127835D01*
X71322Y128143D01*
X72007Y128562D01*
X72617Y129083D01*
X73139Y129694D01*
X73142Y129699D01*
Y125280D01*
X73076Y125298D01*
X72958Y125311D01*
X72839Y125306D01*
X72723Y125282D01*
X72612Y125240D01*
X72509Y125181D01*
X72417Y125106D01*
X72337Y125019D01*
X72272Y124919D01*
X72223Y124811D01*
X72192Y124697D01*
X72179Y124579D01*
X72185Y124461D01*
X72209Y124344D01*
X72253Y124235D01*
X72379Y123944D01*
X72475Y123641D01*
X72544Y123332D01*
X72586Y123018D01*
X72600Y122701D01*
X72586Y122384D01*
X72544Y122070D01*
X72475Y121760D01*
X72379Y121458D01*
X72256Y121166D01*
X72212Y121056D01*
X72188Y120941D01*
X72183Y120823D01*
X72196Y120705D01*
X72227Y120591D01*
X72275Y120484D01*
X72340Y120385D01*
X72419Y120298D01*
X72511Y120224D01*
X72614Y120165D01*
X72724Y120123D01*
X72840Y120099D01*
X72958Y120094D01*
X73075Y120107D01*
X73142Y120125D01*
Y114652D01*
X73058Y114645D01*
X72140Y114425D01*
X71268Y114063D01*
X70462Y113570D01*
X69744Y112957D01*
X69502Y112673D01*
X69505Y112701D01*
X69486Y112936D01*
X69486Y112936D01*
X69431Y113166D01*
X69341Y113384D01*
X69217Y113585D01*
X69064Y113765D01*
X69002Y113818D01*
Y117596D01*
X69449Y117616D01*
X69895Y117675D01*
X70334Y117773D01*
X70762Y117910D01*
X71177Y118083D01*
X71280Y118141D01*
X71373Y118216D01*
X71453Y118303D01*
X71518Y118403D01*
X71566Y118511D01*
X71598Y118625D01*
X71611Y118743D01*
X71605Y118861D01*
X71581Y118978D01*
X71539Y119089D01*
X71480Y119191D01*
X71406Y119284D01*
X71318Y119364D01*
X71219Y119429D01*
X71111Y119478D01*
X70996Y119509D01*
X70878Y119522D01*
X70760Y119516D01*
X70644Y119492D01*
X70534Y119448D01*
X70243Y119322D01*
X69941Y119226D01*
X69631Y119157D01*
X69317Y119115D01*
X69002Y119101D01*
Y126301D01*
X69317Y126287D01*
G37*
G36*
X69002Y28047D02*Y33571D01*
X69610Y34090D01*
X70275Y34868D01*
X70809Y35741D01*
X71201Y36686D01*
X71440Y37681D01*
X71500Y38701D01*
X71440Y39721D01*
X71201Y40716D01*
X70809Y41661D01*
X70275Y42533D01*
X69610Y43311D01*
X69154Y43701D01*
X69610Y44090D01*
X70275Y44868D01*
X70809Y45741D01*
X71201Y46686D01*
X71440Y47681D01*
X71500Y48701D01*
X71440Y49721D01*
X71201Y50716D01*
X70809Y51661D01*
X70275Y52533D01*
X69610Y53311D01*
X69002Y53831D01*
Y103584D01*
X69064Y103637D01*
X69217Y103816D01*
X69341Y104018D01*
X69431Y104236D01*
X69486Y104465D01*
X69505Y104701D01*
X69502Y104728D01*
X69744Y104445D01*
X70462Y103832D01*
X71268Y103338D01*
X72140Y102977D01*
X73058Y102756D01*
X74000Y102682D01*
X74942Y102756D01*
X75415Y102870D01*
X82391Y95893D01*
X82413Y95869D01*
X82532Y95742D01*
X82638Y95604D01*
X82732Y95456D01*
X82813Y95302D01*
X82879Y95141D01*
X82932Y94974D01*
X82970Y94804D01*
X82992Y94631D01*
X83000Y94457D01*
X83000Y94456D01*
Y75904D01*
X82818Y76201D01*
X82211Y76912D01*
X81500Y77519D01*
X80704Y78007D01*
X79840Y78365D01*
X78932Y78583D01*
X78000Y78656D01*
X77068Y78583D01*
X76160Y78365D01*
X75296Y78007D01*
X74500Y77519D01*
X73789Y76912D01*
X73182Y76201D01*
X72694Y75404D01*
X72336Y74541D01*
X72118Y73632D01*
X72045Y72701D01*
X72118Y71769D01*
X72336Y70860D01*
X72694Y69997D01*
X73182Y69200D01*
X73789Y68490D01*
X74500Y67883D01*
X75296Y67395D01*
X76160Y67037D01*
X77068Y66819D01*
X78000Y66745D01*
X78932Y66819D01*
X79840Y67037D01*
X80704Y67395D01*
X81500Y67883D01*
X82211Y68490D01*
X82818Y69200D01*
X83125Y69701D01*
X85882D01*
X86000Y69692D01*
X86118Y69701D01*
X160734D01*
Y28047D01*
X69002D01*
G37*
G36*
X64861Y129694D02*X65383Y129083D01*
X65993Y128562D01*
X66678Y128143D01*
X67419Y127835D01*
X67985Y127700D01*
X67666Y127628D01*
X67238Y127492D01*
X66823Y127318D01*
X66720Y127260D01*
X66627Y127186D01*
X66547Y127098D01*
X66482Y126999D01*
X66434Y126891D01*
X66402Y126776D01*
X66389Y126659D01*
X66395Y126540D01*
X66419Y126424D01*
X66461Y126313D01*
X66520Y126210D01*
X66594Y126118D01*
X66682Y126038D01*
X66781Y125973D01*
X66889Y125924D01*
X67004Y125893D01*
X67122Y125880D01*
X67240Y125886D01*
X67356Y125910D01*
X67466Y125954D01*
X67757Y126079D01*
X68059Y126176D01*
X68369Y126245D01*
X68683Y126287D01*
X69000Y126301D01*
X69002Y126301D01*
Y119101D01*
X69000Y119101D01*
X68683Y119115D01*
X68369Y119157D01*
X68059Y119226D01*
X67757Y119322D01*
X67465Y119445D01*
X67355Y119488D01*
X67240Y119512D01*
X67122Y119518D01*
X67005Y119505D01*
X66891Y119474D01*
X66783Y119426D01*
X66684Y119361D01*
X66597Y119282D01*
X66523Y119190D01*
X66464Y119087D01*
X66423Y118977D01*
X66399Y118861D01*
X66393Y118743D01*
X66406Y118626D01*
X66437Y118512D01*
X66485Y118404D01*
X66550Y118306D01*
X66630Y118218D01*
X66722Y118144D01*
X66825Y118088D01*
X67238Y117910D01*
X67666Y117773D01*
X68105Y117675D01*
X68551Y117616D01*
X69000Y117596D01*
X69002Y117596D01*
Y113818D01*
X68884Y113918D01*
X68683Y114041D01*
X68465Y114132D01*
X68235Y114187D01*
X68000Y114205D01*
X67941Y114201D01*
X64858D01*
Y120121D01*
X64924Y120103D01*
X65042Y120090D01*
X65161Y120096D01*
X65277Y120120D01*
X65388Y120162D01*
X65491Y120221D01*
X65583Y120295D01*
X65663Y120383D01*
X65728Y120482D01*
X65777Y120590D01*
X65808Y120705D01*
X65821Y120823D01*
X65815Y120941D01*
X65791Y121057D01*
X65747Y121167D01*
X65621Y121458D01*
X65525Y121760D01*
X65456Y122070D01*
X65414Y122384D01*
X65400Y122701D01*
X65414Y123018D01*
X65456Y123332D01*
X65525Y123641D01*
X65621Y123944D01*
X65744Y124236D01*
X65788Y124345D01*
X65812Y124461D01*
X65817Y124579D01*
X65804Y124696D01*
X65773Y124810D01*
X65725Y124918D01*
X65660Y125017D01*
X65581Y125104D01*
X65489Y125178D01*
X65386Y125236D01*
X65276Y125278D01*
X65160Y125302D01*
X65042Y125308D01*
X64925Y125295D01*
X64858Y125277D01*
Y129699D01*
X64861Y129694D01*
G37*
G36*
X68832Y53976D02*X67960Y54510D01*
X67015Y54902D01*
X66020Y55141D01*
X65000Y55221D01*
X64858Y55210D01*
Y103201D01*
X67941D01*
X68000Y103196D01*
X68235Y103215D01*
X68235Y103215D01*
X68465Y103270D01*
X68683Y103360D01*
X68884Y103484D01*
X69002Y103584D01*
Y53831D01*
X68832Y53976D01*
G37*
G36*
X63980Y55141D02*X62985Y54902D01*
X62040Y54510D01*
X61168Y53976D01*
X60390Y53311D01*
X59725Y52533D01*
X59191Y51661D01*
X58799Y50716D01*
X58560Y49721D01*
X58480Y48701D01*
X58560Y47681D01*
X58799Y46686D01*
X59191Y45741D01*
X59725Y44868D01*
X60390Y44090D01*
X60846Y43701D01*
X60390Y43311D01*
X59725Y42533D01*
X59215Y41701D01*
X57103D01*
X57071Y41703D01*
X56897Y41708D01*
X56724Y41731D01*
X56553Y41769D01*
X56387Y41821D01*
X56226Y41888D01*
X56071Y41969D01*
X55924Y42062D01*
X55785Y42169D01*
X55657Y42287D01*
X55657Y42287D01*
X51640Y46303D01*
X51619Y46327D01*
X51499Y46455D01*
X51393Y46593D01*
X51299Y46740D01*
X51219Y46895D01*
X51152Y47056D01*
X51100Y47223D01*
X51062Y47393D01*
X51039Y47566D01*
X51031Y47740D01*
Y116794D01*
X51033Y116827D01*
X51039Y117001D01*
X51062Y117174D01*
X51100Y117344D01*
X51152Y117511D01*
X51219Y117672D01*
X51299Y117827D01*
X51393Y117974D01*
X51499Y118112D01*
X51617Y118241D01*
X51617Y118241D01*
X62469Y129092D01*
X62493Y129114D01*
X62620Y129233D01*
X62759Y129339D01*
X62906Y129433D01*
X63060Y129513D01*
X63222Y129580D01*
X63388Y129633D01*
X63558Y129670D01*
X63731Y129693D01*
X63906Y129701D01*
X63906Y129701D01*
X64857D01*
X64858Y129699D01*
Y125277D01*
X64811Y125264D01*
X64703Y125215D01*
X64605Y125151D01*
X64517Y125071D01*
X64443Y124979D01*
X64387Y124876D01*
X64209Y124463D01*
X64072Y124035D01*
X63974Y123596D01*
X63915Y123150D01*
X63895Y122701D01*
X63915Y122252D01*
X63974Y121806D01*
X64072Y121367D01*
X64209Y120939D01*
X64383Y120524D01*
X64441Y120420D01*
X64515Y120328D01*
X64603Y120248D01*
X64702Y120183D01*
X64810Y120134D01*
X64858Y120121D01*
Y114201D01*
X60059D01*
X60000Y114205D01*
X59765Y114187D01*
X59765Y114187D01*
X59535Y114132D01*
X59317Y114041D01*
X59116Y113918D01*
X58936Y113765D01*
X58783Y113585D01*
X58659Y113384D01*
X58569Y113166D01*
X58514Y112936D01*
X58495Y112701D01*
X58500Y112642D01*
Y104760D01*
X58495Y104701D01*
X58514Y104466D01*
X58514Y104465D01*
X58569Y104236D01*
X58659Y104018D01*
X58783Y103816D01*
X58936Y103637D01*
X59116Y103484D01*
X59317Y103360D01*
X59535Y103270D01*
X59765Y103215D01*
X60000Y103196D01*
X60059Y103201D01*
X64858D01*
Y55210D01*
X63980Y55141D01*
G37*
G36*
X50757Y28047D02*X50725Y28049D01*
X50550Y28055D01*
X50377Y28078D01*
X50207Y28115D01*
X50041Y28168D01*
X49879Y28235D01*
X49725Y28315D01*
X49577Y28409D01*
X49439Y28515D01*
X49310Y28633D01*
X49310Y28633D01*
X48586Y29358D01*
X48586Y29358D01*
X48076Y29835D01*
X47522Y30260D01*
X46933Y30636D01*
X46313Y30958D01*
X45668Y31225D01*
X45001Y31436D01*
X44319Y31587D01*
X43627Y31678D01*
X42929Y31708D01*
X42822Y31701D01*
X41500D01*
Y32603D01*
X41508Y32701D01*
X41477Y33093D01*
X41477Y33093D01*
X41385Y33476D01*
X41292Y33701D01*
X41385Y33926D01*
X41477Y34308D01*
X41508Y34701D01*
X41500Y34799D01*
Y42603D01*
X41508Y42701D01*
X41477Y43093D01*
X41477Y43093D01*
X41385Y43476D01*
X41292Y43701D01*
X41385Y43926D01*
X41477Y44308D01*
X41508Y44701D01*
X41500Y44799D01*
Y50629D01*
X43177Y52306D01*
X43177Y52306D01*
X43654Y52815D01*
X44079Y53370D01*
X44454Y53959D01*
X44777Y54578D01*
X45031Y55193D01*
Y47740D01*
X45032Y47740D01*
X45054Y47042D01*
X45146Y46350D01*
X45297Y45668D01*
X45507Y45002D01*
X45774Y44356D01*
X46097Y43737D01*
X46472Y43147D01*
X46897Y42593D01*
X47369Y42078D01*
X47450Y42008D01*
X51414Y38044D01*
X51414Y38044D01*
X51924Y37567D01*
X52478Y37141D01*
X53067Y36766D01*
X53687Y36443D01*
X54332Y36176D01*
X54999Y35966D01*
X55681Y35815D01*
X56373Y35724D01*
X57071Y35693D01*
X57178Y35701D01*
X59215D01*
X59725Y34868D01*
X60390Y34090D01*
X61168Y33426D01*
X62040Y32891D01*
X62985Y32500D01*
X63980Y32261D01*
X65000Y32181D01*
X66020Y32261D01*
X67015Y32500D01*
X67960Y32891D01*
X68832Y33426D01*
X69002Y33571D01*
Y28047D01*
X50757D01*
G37*
G36*
X25002Y19732D02*Y22201D01*
X25287D01*
X25860Y22251D01*
X26425Y22352D01*
X26980Y22503D01*
X27163Y22576D01*
X27332Y22679D01*
X27483Y22806D01*
X27611Y22955D01*
X27715Y23123D01*
X27792Y23305D01*
X27839Y23497D01*
X27855Y23694D01*
X27841Y23890D01*
X27796Y24083D01*
X27721Y24265D01*
X27619Y24434D01*
X27491Y24585D01*
X27342Y24714D01*
X27174Y24818D01*
X26992Y24894D01*
X26801Y24941D01*
X26604Y24958D01*
X26407Y24943D01*
X26216Y24894D01*
X25876Y24798D01*
X25529Y24736D01*
X25177Y24705D01*
X25002D01*
Y32697D01*
X25177D01*
X25529Y32666D01*
X25876Y32604D01*
X26217Y32511D01*
X26408Y32462D01*
X26604Y32448D01*
X26800Y32464D01*
X26991Y32511D01*
X27172Y32587D01*
X27340Y32691D01*
X27489Y32820D01*
X27616Y32970D01*
X27718Y33138D01*
X27792Y33320D01*
X27837Y33512D01*
X27851Y33708D01*
X27835Y33904D01*
X27788Y34095D01*
X27712Y34277D01*
X27608Y34444D01*
X27480Y34593D01*
X27330Y34720D01*
X27161Y34822D01*
X26978Y34893D01*
X26425Y35049D01*
X25860Y35150D01*
X25287Y35201D01*
X25002D01*
Y97863D01*
X63000Y293701D01*
X67000Y305701D01*
X76000Y323701D01*
Y327701D01*
X80000Y332701D01*
X99000Y348701D01*
X111000Y358701D01*
X131000Y365701D01*
X157000Y370701D01*
X160734Y370314D01*
Y356780D01*
X160646Y356816D01*
X160340Y356890D01*
X160026Y356915D01*
X159948Y356908D01*
X143402D01*
X143323Y356915D01*
X143010Y356890D01*
X143009Y356890D01*
X142703Y356816D01*
X142412Y356696D01*
X142144Y356531D01*
X141905Y356327D01*
X141700Y356088D01*
X141536Y355819D01*
X141415Y355528D01*
X141342Y355222D01*
X141317Y354908D01*
X141323Y354830D01*
Y338283D01*
X141317Y338205D01*
X141342Y337891D01*
X141342Y337891D01*
X141415Y337585D01*
X141536Y337294D01*
X141700Y337026D01*
X141905Y336786D01*
X142144Y336582D01*
X142412Y336418D01*
X142703Y336297D01*
X143009Y336224D01*
X143323Y336199D01*
X143402Y336205D01*
X159948D01*
X160026Y336199D01*
X160340Y336224D01*
X160340Y336224D01*
X160646Y336297D01*
X160734Y336333D01*
Y103787D01*
X113914D01*
X113882Y103789D01*
X113708Y103795D01*
X113535Y103818D01*
X113364Y103856D01*
X113198Y103908D01*
X113037Y103975D01*
X112882Y104055D01*
X112735Y104149D01*
X112597Y104255D01*
X112468Y104373D01*
X112468Y104373D01*
X83507Y133334D01*
X83507Y133334D01*
X82997Y133811D01*
X82443Y134237D01*
X81854Y134612D01*
X81234Y134935D01*
X80589Y135202D01*
X79923Y135412D01*
X79241Y135563D01*
X78548Y135654D01*
X77850Y135685D01*
X77743Y135677D01*
X74329D01*
X73929Y135701D01*
X73143D01*
X73139Y135708D01*
X72617Y136318D01*
X72007Y136840D01*
X71322Y137259D01*
X70581Y137566D01*
X70437Y137601D01*
X72541D01*
X72600Y137596D01*
X72835Y137615D01*
X72835Y137615D01*
X73065Y137670D01*
X73283Y137760D01*
X73484Y137884D01*
X73664Y138037D01*
X73817Y138216D01*
X73941Y138418D01*
X74031Y138636D01*
X74086Y138865D01*
X74105Y139101D01*
X74100Y139160D01*
Y139701D01*
X76063D01*
X76063Y139701D01*
X76761Y139724D01*
X77453Y139815D01*
X78135Y139966D01*
X78802Y140176D01*
X79447Y140443D01*
X80067Y140766D01*
X80656Y141141D01*
X81210Y141567D01*
X81725Y142039D01*
X81795Y142120D01*
X118657Y178981D01*
X118657Y178981D01*
X119134Y179491D01*
X119559Y180045D01*
X119935Y180634D01*
X120257Y181254D01*
X120525Y181899D01*
X120735Y182565D01*
X120886Y183247D01*
X120977Y183940D01*
X121008Y184638D01*
X121000Y184745D01*
Y212795D01*
X121347D01*
X121425Y212789D01*
X121739Y212814D01*
X121739Y212814D01*
X122045Y212887D01*
X122336Y213008D01*
X122604Y213172D01*
X122844Y213377D01*
X122980Y213537D01*
X123117Y213377D01*
X123356Y213172D01*
X123625Y213008D01*
X123915Y212887D01*
X124222Y212814D01*
X124535Y212789D01*
X124614Y212795D01*
X131347D01*
X131425Y212789D01*
X131739Y212814D01*
X131739Y212814D01*
X132045Y212887D01*
X132336Y213008D01*
X132604Y213172D01*
X132844Y213377D01*
X133048Y213616D01*
X133213Y213884D01*
X133333Y214175D01*
X133407Y214481D01*
X133431Y214795D01*
X133425Y214874D01*
Y217701D01*
X135929D01*
X135929Y217701D01*
X136627Y217724D01*
X137319Y217815D01*
X138001Y217966D01*
X138668Y218176D01*
X139313Y218443D01*
X139933Y218766D01*
X140522Y219141D01*
X141076Y219567D01*
X141591Y220039D01*
X141661Y220120D01*
X143657Y222115D01*
X143657Y222115D01*
X144134Y222625D01*
X144559Y223179D01*
X144935Y223768D01*
X145257Y224388D01*
X145525Y225033D01*
X145735Y225699D01*
X145886Y226381D01*
X145977Y227074D01*
X146008Y227772D01*
X146000Y227879D01*
Y242630D01*
X146000Y242630D01*
X145977Y243328D01*
X145886Y244020D01*
X145735Y244702D01*
X145525Y245368D01*
X145257Y246014D01*
X144935Y246634D01*
X144559Y247223D01*
X144134Y247777D01*
X143662Y248292D01*
X143581Y248362D01*
X136586Y255358D01*
X136586Y255358D01*
X136076Y255835D01*
X135522Y256260D01*
X134933Y256636D01*
X134313Y256958D01*
X133668Y257225D01*
X133001Y257436D01*
X132319Y257587D01*
X131627Y257678D01*
X130929Y257708D01*
X130822Y257701D01*
X106071D01*
X106071Y257701D01*
X105373Y257678D01*
X104681Y257587D01*
X103999Y257436D01*
X103332Y257225D01*
X102687Y256958D01*
X102067Y256636D01*
X101478Y256260D01*
X100924Y255835D01*
X100409Y255363D01*
X100339Y255282D01*
X68343Y223287D01*
X68343Y223286D01*
X67866Y222777D01*
X67441Y222223D01*
X67065Y221634D01*
X66743Y221014D01*
X66475Y220368D01*
X66265Y219702D01*
X66114Y219020D01*
X66023Y218328D01*
X65992Y217630D01*
X66000Y217523D01*
Y188486D01*
X65168Y187976D01*
X64390Y187311D01*
X63725Y186533D01*
X63191Y185661D01*
X62799Y184716D01*
X62560Y183721D01*
X62480Y182701D01*
X62560Y181681D01*
X62799Y180686D01*
X63191Y179741D01*
X63725Y178868D01*
X64390Y178090D01*
X65168Y177426D01*
X66040Y176891D01*
X66985Y176500D01*
X67980Y176261D01*
X69000Y176181D01*
X70020Y176261D01*
X71015Y176500D01*
X71960Y176891D01*
X72832Y177426D01*
X73610Y178090D01*
X74275Y178868D01*
X74809Y179741D01*
X75201Y180686D01*
X75440Y181681D01*
X75500Y182701D01*
X75440Y183721D01*
X75201Y184716D01*
X74809Y185661D01*
X74275Y186533D01*
X73610Y187311D01*
X72832Y187976D01*
X72000Y188486D01*
Y217598D01*
X72002Y217630D01*
X72008Y217804D01*
X72030Y217977D01*
X72068Y218147D01*
X72121Y218314D01*
X72187Y218475D01*
X72268Y218630D01*
X72362Y218777D01*
X72468Y218915D01*
X72586Y219044D01*
X72586Y219044D01*
X104634Y251092D01*
X104658Y251114D01*
X104785Y251233D01*
X104924Y251339D01*
X105071Y251433D01*
X105226Y251513D01*
X105387Y251580D01*
X105553Y251633D01*
X105724Y251670D01*
X105897Y251693D01*
X106071Y251701D01*
X130897D01*
X130929Y251699D01*
X131103Y251693D01*
X131276Y251670D01*
X131447Y251633D01*
X131613Y251580D01*
X131774Y251513D01*
X131929Y251433D01*
X132076Y251339D01*
X132215Y251233D01*
X132343Y251115D01*
X132343Y251115D01*
X139391Y244067D01*
X139413Y244043D01*
X139532Y243915D01*
X139638Y243777D01*
X139732Y243630D01*
X139813Y243475D01*
X139879Y243314D01*
X139932Y243147D01*
X139970Y242977D01*
X139992Y242804D01*
X140000Y242630D01*
Y227804D01*
X139998Y227772D01*
X139992Y227598D01*
X139970Y227425D01*
X139932Y227254D01*
X139879Y227088D01*
X139813Y226927D01*
X139732Y226772D01*
X139638Y226625D01*
X139532Y226486D01*
X139414Y226358D01*
X139414Y226358D01*
X137366Y224309D01*
X137342Y224288D01*
X137215Y224169D01*
X137076Y224062D01*
X136929Y223969D01*
X136774Y223888D01*
X136613Y223821D01*
X136447Y223769D01*
X136276Y223731D01*
X136103Y223708D01*
X135929Y223701D01*
X135929Y223701D01*
X133425D01*
Y226528D01*
X133431Y226606D01*
X133407Y226920D01*
X133333Y227226D01*
X133213Y227517D01*
X133048Y227785D01*
X132844Y228025D01*
X132604Y228229D01*
X132336Y228394D01*
X132045Y228514D01*
X131739Y228588D01*
X131425Y228612D01*
X131347Y228606D01*
X125457D01*
X129921Y233071D01*
Y238189D01*
X125197Y242913D01*
X120866D01*
X116142Y238189D01*
Y233071D01*
X120606Y228606D01*
X114614D01*
X114535Y228612D01*
X114222Y228588D01*
X114222Y228588D01*
X113915Y228514D01*
X113625Y228394D01*
X113356Y228229D01*
X113117Y228025D01*
X112912Y227785D01*
X112748Y227517D01*
X112627Y227226D01*
X112554Y226920D01*
X112529Y226606D01*
X112535Y226528D01*
Y214874D01*
X112529Y214795D01*
X112554Y214481D01*
X112627Y214175D01*
X112748Y213884D01*
X112912Y213616D01*
X113117Y213377D01*
X113356Y213172D01*
X113625Y213008D01*
X113915Y212887D01*
X114222Y212814D01*
X114535Y212789D01*
X114614Y212795D01*
X115000D01*
Y184670D01*
X114998Y184638D01*
X114992Y184464D01*
X114970Y184291D01*
X114932Y184120D01*
X114879Y183954D01*
X114813Y183793D01*
X114732Y183638D01*
X114638Y183491D01*
X114532Y183352D01*
X114414Y183224D01*
X114414Y183224D01*
X77500Y146309D01*
X77476Y146288D01*
X77348Y146169D01*
X77210Y146062D01*
X77063Y145969D01*
X76908Y145888D01*
X76747Y145821D01*
X76580Y145769D01*
X76410Y145731D01*
X76237Y145708D01*
X76063Y145701D01*
X76063Y145701D01*
X74100D01*
Y146242D01*
X74105Y146301D01*
X74093Y146448D01*
X74138Y146466D01*
X74474Y146672D01*
X74773Y146928D01*
X75029Y147227D01*
X75234Y147562D01*
X75385Y147926D01*
X75477Y148308D01*
X75508Y148701D01*
X75500Y148799D01*
Y156603D01*
X75508Y156701D01*
X75477Y157093D01*
X75477Y157093D01*
X75385Y157476D01*
X75234Y157839D01*
X75029Y158175D01*
X74773Y158474D01*
X74474Y158730D01*
X74138Y158935D01*
X73775Y159086D01*
X73392Y159178D01*
X73000Y159208D01*
X72902Y159201D01*
X65098D01*
X65000Y159208D01*
X64608Y159178D01*
X64608Y159178D01*
X64225Y159086D01*
X63862Y158935D01*
X63526Y158730D01*
X63227Y158474D01*
X62971Y158175D01*
X62766Y157839D01*
X62615Y157476D01*
X62523Y157093D01*
X62492Y156701D01*
X62500Y156603D01*
Y154108D01*
X62145Y153835D01*
X61630Y153363D01*
X61559Y153282D01*
X41863Y133586D01*
X41863Y133585D01*
X41385Y133076D01*
X40960Y132522D01*
X40585Y131933D01*
X40262Y131313D01*
X39995Y130667D01*
X39785Y130001D01*
X39634Y129319D01*
X39543Y128627D01*
X39512Y127929D01*
X39520Y127822D01*
Y57995D01*
X39518Y57963D01*
X39512Y57788D01*
X39489Y57615D01*
X39452Y57445D01*
X39399Y57279D01*
X39332Y57117D01*
X39252Y56963D01*
X39158Y56815D01*
X39052Y56677D01*
X38934Y56548D01*
X38934Y56548D01*
X37586Y55201D01*
X31098D01*
X31000Y55208D01*
X30608Y55178D01*
X30608Y55178D01*
X30225Y55086D01*
X29862Y54935D01*
X29526Y54730D01*
X29227Y54474D01*
X28971Y54175D01*
X28766Y53839D01*
X28615Y53476D01*
X28523Y53093D01*
X28492Y52701D01*
X28500Y52603D01*
Y44799D01*
X28492Y44701D01*
X28523Y44309D01*
X28523Y44308D01*
X28615Y43926D01*
X28708Y43701D01*
X28615Y43476D01*
X28523Y43093D01*
X28492Y42701D01*
X28500Y42603D01*
Y34799D01*
X28492Y34701D01*
X28523Y34309D01*
X28523Y34308D01*
X28615Y33926D01*
X28708Y33701D01*
X28615Y33476D01*
X28523Y33093D01*
X28492Y32701D01*
X28500Y32603D01*
Y24799D01*
X28492Y24701D01*
X28523Y24309D01*
X28523Y24308D01*
X28615Y23926D01*
X28766Y23562D01*
X28971Y23227D01*
X29227Y22928D01*
X29526Y22672D01*
X29862Y22466D01*
X30225Y22316D01*
X30608Y22224D01*
X31000Y22193D01*
X31098Y22201D01*
X38902D01*
X39000Y22193D01*
X39392Y22224D01*
X39392Y22224D01*
X39775Y22316D01*
X40138Y22466D01*
X40474Y22672D01*
X40773Y22928D01*
X41029Y23227D01*
X41234Y23562D01*
X41385Y23926D01*
X41477Y24308D01*
X41508Y24701D01*
X41500Y24799D01*
Y25701D01*
X42897D01*
X42929Y25699D01*
X43103Y25693D01*
X43276Y25670D01*
X43447Y25633D01*
X43613Y25580D01*
X43774Y25513D01*
X43929Y25433D01*
X44076Y25339D01*
X44215Y25233D01*
X44343Y25115D01*
X44343Y25115D01*
X45068Y24390D01*
X45068Y24390D01*
X45577Y23913D01*
X46132Y23488D01*
X46721Y23112D01*
X47340Y22790D01*
X47986Y22523D01*
X48652Y22312D01*
X49334Y22161D01*
X50027Y22070D01*
X50725Y22040D01*
X50832Y22047D01*
X160734D01*
Y19732D01*
X25002D01*
G37*
G36*
X19878D02*Y25855D01*
X19993Y25845D01*
X20190Y25860D01*
X20382Y25905D01*
X20564Y25980D01*
X20733Y26082D01*
X20884Y26209D01*
X21013Y26359D01*
X21117Y26527D01*
X21193Y26709D01*
X21240Y26900D01*
X21257Y27097D01*
X21242Y27294D01*
X21193Y27485D01*
X21097Y27825D01*
X21035Y28172D01*
X21004Y28524D01*
Y28877D01*
X21035Y29229D01*
X21097Y29577D01*
X21190Y29918D01*
X21238Y30108D01*
X21253Y30305D01*
X21236Y30501D01*
X21190Y30692D01*
X21113Y30873D01*
X21010Y31040D01*
X20881Y31189D01*
X20731Y31316D01*
X20563Y31418D01*
X20381Y31493D01*
X20189Y31538D01*
X19993Y31552D01*
X19878Y31543D01*
Y71456D01*
X25002Y97863D01*
Y35201D01*
X24713D01*
X24140Y35150D01*
X23575Y35049D01*
X23020Y34899D01*
X22837Y34825D01*
X22668Y34723D01*
X22517Y34596D01*
X22389Y34446D01*
X22285Y34278D01*
X22208Y34096D01*
X22161Y33905D01*
X22145Y33708D01*
X22159Y33511D01*
X22204Y33319D01*
X22279Y33136D01*
X22381Y32968D01*
X22509Y32817D01*
X22658Y32688D01*
X22826Y32584D01*
X23008Y32508D01*
X23199Y32461D01*
X23396Y32444D01*
X23593Y32459D01*
X23784Y32507D01*
X24124Y32604D01*
X24471Y32666D01*
X24823Y32697D01*
X25002D01*
Y24705D01*
X24823D01*
X24471Y24736D01*
X24124Y24798D01*
X23783Y24890D01*
X23592Y24939D01*
X23396Y24954D01*
X23200Y24937D01*
X23009Y24890D01*
X22828Y24814D01*
X22660Y24710D01*
X22511Y24582D01*
X22384Y24432D01*
X22282Y24263D01*
X22208Y24081D01*
X22163Y23890D01*
X22149Y23694D01*
X22165Y23498D01*
X22212Y23306D01*
X22288Y23125D01*
X22392Y22958D01*
X22520Y22809D01*
X22670Y22682D01*
X22839Y22580D01*
X23022Y22509D01*
X23575Y22352D01*
X24140Y22251D01*
X24713Y22201D01*
X25002D01*
Y19732D01*
X19878D01*
G37*
G36*
X9843D02*X19878Y71456D01*
Y31543D01*
X19797Y31536D01*
X19606Y31489D01*
X19424Y31413D01*
X19257Y31309D01*
X19108Y31181D01*
X18981Y31030D01*
X18879Y30862D01*
X18808Y30679D01*
X18652Y30126D01*
X18551Y29560D01*
X18500Y28988D01*
Y28413D01*
X18551Y27841D01*
X18652Y27275D01*
X18802Y26721D01*
X18875Y26538D01*
X18978Y26369D01*
X19105Y26218D01*
X19255Y26089D01*
X19422Y25985D01*
X19604Y25909D01*
X19796Y25862D01*
X19878Y25855D01*
Y19732D01*
X9843D01*
G37*
G54D34*X69000Y152701D02*X67292D01*
X69000Y182701D02*Y217630D01*
X118000Y220701D02*Y219701D01*
Y184638D02*Y220701D01*
X135929D02*X128000D01*
X141536Y224236D02*X139464Y222165D01*
X129000Y220701D02*X130000Y219701D01*
X128000Y220701D02*X129000D01*
Y219701D02*X128000Y220701D01*
X79598Y144165D02*X116536Y181102D01*
X35264Y48636D02*X41055Y54427D01*
X78000Y72701D02*X128000D01*
X57071Y38701D02*X65000D01*
X53536Y40165D02*X49496Y44205D01*
X35000Y48701D02*Y28701D01*
X69000Y142701D02*X76063Y142701D01*
X73929Y132701D02*X63906D01*
X49496Y120362D02*X60370Y131236D01*
X42520Y127929D02*Y57963D01*
X73976Y108551D02*X84536Y97992D01*
X74016Y132677D02*X77850D01*
X81386Y131213D02*X110347Y102252D01*
X63756Y151236D02*X43984Y131464D01*
X48031Y47740D02*Y116827D01*
X86000Y94456D02*Y72701D01*
X46464Y27236D02*X47189Y26512D01*
X35000Y28701D02*X42929D01*
X278189Y25047D02*X50725D01*
X143000Y242630D02*Y227772D01*
X215000Y203772D02*Y217701D01*
X205000Y173772D02*Y217701D01*
Y216701D01*
X240536Y176165D02*X216464Y200236D01*
X261000Y174701D02*X244071D01*
X206464Y170236D02*X240536Y136165D01*
X203000Y72701D02*X254488Y72701D01*
X113882Y100787D02*X256299D01*
X128000Y72701D02*X203000D01*
X261024Y134646D02*X244094D01*
X261000Y144701D02*X271412D01*
X275126Y143236D02*X281591Y136772D01*
X271412Y144701D02*X271590D01*
X266535Y124701D02*X261000D01*
X272945Y120362D02*X270071Y123236D01*
X281591Y75291D02*X274000Y67701D01*
X258024Y74165D02*X272945Y89087D01*
X283055Y133236D02*Y78827D01*
X274409Y116827D02*Y92622D01*
X134464Y253236D02*X141536Y246165D01*
X106071Y254701D02*X130929D01*
X70464Y221165D02*X102536Y253236D01*
X139464Y222165D02*G75*G02X135929Y220701I-3536J3536D01*G01*
X143000Y227772D02*G75*G02X141536Y224236I-5000J0D01*G01*
X141536Y246165D02*G75*G02X143000Y242630I-3536J-3536D01*G01*
X130929Y254701D02*G75*G02X134464Y253236I0J-5000D01*G01*
X42929Y28701D02*G75*G02X46464Y27236I0J-5000D01*G01*
X286843Y33701D02*G75*G02X278189Y25047I-8654J0D01*G01*
X50725D02*G75*G02X47189Y26512I0J5000D01*G01*
X53536Y40165D02*G75*G03X57071Y38701I3536J3536D01*G01*
X41055Y54427D02*G75*G03X42520Y57963I-3536J3536D01*G01*
X49496Y44205D02*G75*G02X48031Y47740I3536J3536D01*G01*
X102536Y253236D02*G75*G02X106071Y254701I3536J-3536D01*G01*
X116536Y181102D02*G75*G03X118000Y184638I-3536J3536D01*G01*
X110347Y102252D02*G75*G03X113882Y100787I3536J3536D01*G01*
X69000Y217630D02*G75*G02X70464Y221165I5000J0D01*G01*
X60370Y131236D02*G75*G02X63906Y132701I3536J-3536D01*G01*
X76063Y142701D02*G75*G03X79598Y144165I0J5000D01*G01*
X67292Y152701D02*G75*G03X63756Y151236I0J-5000D01*G01*
X77850Y132677D02*G75*G02X81386Y131213I0J-5000D01*G01*
X48031Y116827D02*G75*G02X49496Y120362I5000J0D01*G01*
X43984Y131464D02*G75*G03X42520Y127929I3536J-3536D01*G01*
X84536Y97992D02*G75*G02X86000Y94456I-3536J-3536D01*G01*
X216464Y200236D02*G75*G02X215000Y203772I3536J3536D01*G01*
X206464Y170236D02*G75*G02X205000Y173772I3536J3536D01*G01*
X244071Y174701D02*G75*G02X240536Y176165I0J5000D01*G01*
X244071Y134701D02*G75*G02X240536Y136165I0J5000D01*G01*
X271590Y144701D02*G75*G02X275126Y143236I0J-5000D01*G01*
X283055Y78827D02*G75*G02X281591Y75291I-5000J0D01*G01*
X281591Y136772D02*G75*G02X283055Y133236I-3536J-3536D01*G01*
X254488Y72701D02*G75*G03X258024Y74165I0J5000D01*G01*
X270071Y123236D02*G75*G03X266535Y124701I-3536J-3536D01*G01*
X272945Y89087D02*G75*G03X274409Y92622I-3536J3536D01*G01*
Y116827D02*G75*G03X272945Y120362I-5000J0D01*G01*
G54D33*G36*
X143323Y354908D02*X160026D01*
Y338205D01*
X143323D01*
Y354908D01*
G37*
G36*
X174819D02*X191523D01*
Y338205D01*
X174819D01*
Y354908D01*
G37*
G36*
X208425Y211795D02*X201535D01*
Y223606D01*
X208425D01*
Y211795D01*
G37*
G36*
X121425Y214795D02*X114535D01*
Y226606D01*
X121425D01*
Y214795D01*
G37*
G36*
X131425D02*X124535D01*
Y226606D01*
X131425D01*
Y214795D01*
G37*
G54D35*X78000Y72701D03*
G54D33*G36*
X218425Y211795D02*X211535D01*
Y223606D01*
X218425D01*
Y211795D01*
G37*
G36*
X60000Y112701D02*X68000D01*
Y104701D01*
X60000D01*
Y112701D01*
G37*
G54D36*X74000Y108701D03*
G54D33*G36*
X65400Y139101D02*Y146301D01*
X72600D01*
Y139101D01*
X65400D01*
G37*
G36*
X257400Y131101D02*Y138301D01*
X264600D01*
Y131101D01*
X257400D01*
G37*
G54D37*X261000Y124701D03*
Y114701D03*
G54D33*G36*
X270000Y96701D02*X262000D01*
Y104701D01*
X270000D01*
Y96701D01*
G37*
G54D36*X256000Y100701D03*
G54D33*G36*
X257000Y140701D02*Y148701D01*
X265000D01*
Y140701D01*
X257000D01*
G37*
G54D36*X261000Y174701D03*
G54D37*X69000Y132701D03*
Y122701D03*
G54D33*G36*
X65000Y148701D02*Y156701D01*
X73000D01*
Y148701D01*
X65000D01*
G37*
G54D36*X69000Y182701D03*
G54D33*G36*
X31000Y24701D02*Y32701D01*
X39000D01*
Y24701D01*
X31000D01*
G37*
G36*
Y42701D02*X39000D01*
Y34701D01*
X31000D01*
Y42701D01*
G37*
G36*
Y52701D02*X39000D01*
Y44701D01*
X31000D01*
Y52701D01*
G37*
G54D38*X274000Y67701D03*
G54D39*X258220Y42559D03*
G54D36*X65000Y38701D03*
Y48701D03*
X25000Y28701D03*
G54D39*X305622Y42559D03*
G54D40*X286843Y33701D03*
X277000D03*
X286843Y46299D03*
X277000D03*
G54D41*G54D42*G54D43*G54D44*G54D43*G54D45*G54D44*G54D45*G54D46*G54D45*G54D46*G54D47*M02*
