G04 start of page 2 for group 12 layer_idx 5 *
G04 Title: (unknown), bottom_silk *
G04 Creator: pcb-rnd 3.1.4-dev *
G04 CreationDate: 2024-02-11 09:28:28 UTC *
G04 For: STEM4ukraine *
G04 Format: Gerber/RS-274X *
G04 PCB-Dimensions: 334646 393701 *
G04 PCB-Coordinate-Origin: lower left *
%MOIN*%
%FSLAX25Y25*%
%LNBOTTOM_SILK_NONE_12*%
%ADD61C,0.0137*%
%ADD60C,0.0070*%
%ADD59C,0.0200*%
%ADD58C,0.0080*%
%ADD57C,0.0100*%
%ADD56C,0.0001*%
G54D56*G36*
X113305Y57024D02*X114187Y57533D01*
X114908Y58254D01*
X115417Y59136D01*
X115681Y60120D01*
Y61139D01*
X115417Y62124D01*
X114908Y63006D01*
X114187Y63727D01*
X113305Y64236D01*
X112321Y64500D01*
X111302D01*
X110317Y64236D01*
X109435Y63727D01*
X108714Y63006D01*
X108205Y62124D01*
X107941Y61139D01*
Y60120D01*
X108205Y59136D01*
X108714Y58254D01*
X109435Y57533D01*
X110317Y57024D01*
X107882Y51145D01*
X106477Y51752D01*
X103418Y49691D01*
X100728Y52429D01*
X102842Y55451D01*
X101762Y58124D01*
X98141Y58830D01*
X98175Y62668D01*
X101807Y63310D01*
X102933Y65964D01*
X100873Y69023D01*
X103610Y71713D01*
X106633Y69599D01*
X109305Y70679D01*
X110011Y74300D01*
X113849Y74266D01*
X114492Y70634D01*
X117145Y69507D01*
X120204Y71568D01*
X122894Y68831D01*
X120780Y65808D01*
X121860Y63135D01*
X125481Y62430D01*
X125447Y58592D01*
X121815Y57949D01*
X120689Y55296D01*
X122750Y52237D01*
X120012Y49547D01*
X116989Y51661D01*
X115740Y51145D01*
X113305Y57024D01*
G37*
G54D57*X176710Y61151D02*Y33281D01*
Y61151D02*X181360D01*
X203488Y237042D02*Y228360D01*
G54D58*X193740Y154061D02*X194505D01*
X194730Y154016D02*X194505Y154061D01*
X192345D02*X192975Y153431D01*
X192345Y154061D02*Y151091D01*
X193740D02*X194505D01*
X195045Y153476D02*Y151676D01*
X195000Y151451D02*X195045Y151676D01*
Y153476D02*X195000Y153701D01*
X194910Y153881D01*
X194730Y154016D01*
X194505Y151091D02*X194730Y151136D01*
X194910Y151271D01*
X195000Y151451D01*
X194595Y147086D02*X195225Y146456D01*
X193425Y146951D02*X193335Y147041D01*
X192840Y146951D02*X192975Y147041D01*
X193335D02*X193155Y147086D01*
X192975Y147041D01*
X193830Y145646D02*Y145601D01*
X193740Y144881D02*X193830Y145601D01*
X192840Y144296D02*X192975Y144161D01*
X193155Y144116D01*
X194595Y147086D02*Y144116D01*
X193335Y144161D02*X193425Y144296D01*
X193740Y144881D01*
X193155Y144116D02*X193335Y144161D01*
X193830Y145646D02*X193740Y146321D01*
X193425Y146951D01*
X192570Y144881D02*X192840Y144296D01*
X191715Y146096D02*Y144521D01*
X191580Y144251D02*X191715Y144521D01*
X190365Y144116D02*X191310D01*
X191580Y144251D01*
X190365Y146096D02*Y144116D01*
X192435Y145646D02*Y145601D01*
X192840Y146951D02*X192570Y146321D01*
X192435Y145646D01*
Y145601D02*X192570Y144881D01*
G54D59*X164669Y369685D02*X169976D01*
X173512Y368221D02*X181606Y360126D01*
X161134Y368221D02*X153039Y360126D01*
G54D57*X151185Y142744D02*X151125Y142534D01*
X151005Y142354D01*
X150825Y142234D01*
X150630Y142717D02*X182669Y119497D01*
X182662Y142174D02*X182422Y142234D01*
X182242Y142354D01*
X182122Y142534D01*
X182062Y142744D01*
X182122Y142984D01*
X182242Y143164D01*
X182422Y143284D01*
X182662Y143344D01*
X182677Y142717D02*X150591Y119488D01*
X150825Y142234D02*X150615Y142174D01*
Y199046D02*X150825Y199016D01*
X151005Y198896D01*
X182109Y198457D02*X182169Y198697D01*
X182289Y198877D01*
X182469Y198997D01*
Y197917D02*X182289Y198037D01*
X182169Y198247D01*
X182109Y198457D01*
X180369Y189187D02*Y175237D01*
G54D58*X176600Y187821D02*X177500D01*
X175880Y187101D02*Y186876D01*
X176600Y187821D02*X176285Y187731D01*
X176105Y187596D01*
X175925Y187371D02*X175880Y187101D01*
X176105Y187596D02*X175925Y187371D01*
X175880Y186876D02*X175925Y186606D01*
X176105Y186381D01*
X177500Y187821D02*Y184851D01*
X176510Y186201D02*X175880Y184851D01*
X176105Y186381D02*X176285Y186246D01*
X176600Y186201D01*
X173810Y184851D02*X175115D01*
X173855Y186741D02*X175115Y184851D01*
Y187326D02*X175025Y187506D01*
X174485Y187821D02*X174215Y187731D01*
X173990Y187596D01*
X173810Y187371D01*
X173765Y187101D01*
X175025Y187506D02*X174890Y187686D01*
X174665Y187776D01*
X174485Y187821D01*
X173765Y187101D02*X173855Y186741D01*
X176870Y180846D02*X177500Y180216D01*
X176600Y186201D02*X177500D01*
X175115Y180666D02*X175250Y180801D01*
X174710Y179406D02*Y179316D01*
X175115Y180666D02*X174845Y180081D01*
X174710Y179406D01*
X176105D02*Y179316D01*
Y179406D02*X176015Y180081D01*
X175700Y180666D01*
X173540D02*X173450Y180801D01*
X173000Y180666D02*X173090Y180801D01*
X173000Y180666D02*X172685Y180081D01*
X173855D02*X173540Y180666D01*
X173450Y180801D02*X173270Y180846D01*
X173090Y180801D01*
X172550Y179406D02*Y179316D01*
X172685Y180081D02*X172550Y179406D01*
X173945D02*Y179316D01*
Y179406D02*X173855Y180081D01*
X175115Y178056D02*X175250Y177921D01*
X176015Y178641D02*X176105Y179316D01*
X175250Y177921D02*X175430Y177876D01*
X175610Y177921D01*
Y180801D02*X175430Y180846D01*
X175250Y180801D01*
X176870Y180846D02*Y177876D01*
X175610Y177921D02*X175700Y178056D01*
X176015Y178641D01*
X174710Y179316D02*X174845Y178641D01*
X173000Y178056D02*X173090Y177921D01*
X173855Y178641D02*X173945Y179316D01*
X172550D02*X172685Y178641D01*
X173000Y178056D01*
X174845Y178641D02*X175115Y178056D01*
X173450Y177921D02*X173540Y178056D01*
X173855Y178641D01*
X173090Y177921D02*X173270Y177876D01*
X173450Y177921D01*
X171830Y180846D02*Y177876D01*
Y178821D02*X170480Y179856D01*
X171245Y179271D02*X170480Y177876D01*
X175700Y180666D02*X175610Y180801D01*
G54D57*X151005Y198896D02*X151125Y198716D01*
X151185Y198476D01*
X151125Y198266D01*
X152925Y189206D02*Y175256D01*
X151125Y198266D02*X151005Y198056D01*
X150825Y197936D01*
X150615Y197906D01*
Y198476D02*Y189206D01*
Y175256D02*X150630Y142717D01*
X150615Y143344D02*X150825Y143284D01*
X151005Y143164D01*
X151125Y142984D01*
X151185Y142744D01*
G54D58*X165190Y64961D02*X164110Y67931D01*
X163390Y66581D02*Y65321D01*
X162400Y66941D02*X163030D01*
X163390Y66581D02*X163255Y66851D01*
X163030Y64961D02*X163255Y65051D01*
X163390Y65321D01*
X165190Y64961D02*X166225Y67931D01*
X162400Y64961D02*X163030D01*
X163255Y66851D02*X163030Y66941D01*
X151500Y65676D02*X152805D01*
Y64326D01*
X152175D02*X152805D01*
X151500Y63651D02*Y63426D01*
X151545Y63156D01*
X151680Y62931D01*
X151905Y62796D01*
X151545Y63921D02*X151500Y63651D01*
X160645Y64961D02*X161275D01*
X161545Y65051D01*
X152175Y62706D02*X152805D01*
X151905Y62796D02*X152175Y62706D01*
Y64326D02*X151905Y64281D01*
X151680Y64146D01*
X151545Y63921D01*
X161635Y66581D02*Y65321D01*
X161545Y65051D02*X161635Y65321D01*
X160645Y66941D02*X161275D01*
X161545Y66851D02*X161275Y66941D01*
X161635Y66581D02*X161545Y66851D01*
X178660Y62701D02*X179020D01*
X178480Y62746D02*X178660Y62701D01*
X179020D02*X179470Y62791D01*
X179830Y63016D01*
X181360Y62701D02*X181630D01*
X181090Y62791D02*X181360Y62701D01*
X181540D02*X181855Y62791D01*
X182080Y62926D01*
X182260Y63196D01*
X182305Y63466D01*
Y65671D02*Y63466D01*
X179875Y65041D02*X179830Y65266D01*
X179695Y65491D01*
X179470Y65626D01*
X179245Y65671D01*
X179425Y64366D02*X178525Y63916D01*
X179425Y64366D02*X179740Y64636D01*
X179875Y65041D01*
X179020Y65671D02*X178660Y65626D01*
X178345Y65491D01*
X176635Y64321D02*X176320Y64276D01*
X176050Y64096D01*
X175870Y63826D01*
X175825Y63601D02*Y63376D01*
X175870Y63826D02*X175825Y63511D01*
Y63421D02*X175870Y63151D01*
X176005Y62926D01*
X176230Y62791D01*
X176500Y62701D01*
X176545Y65671D02*X176320Y65626D01*
X176095Y65491D01*
X175960Y65266D01*
X175915Y65041D01*
X177445Y65671D02*Y62701D01*
X176500D02*X177445D01*
X176635Y64321D02*X177445D01*
X175915Y65041D02*X175960Y64771D01*
X176140Y64546D01*
X176365Y64411D01*
X176635Y64321D01*
X176545Y65671D02*X177445D01*
X179020D02*X179245D01*
X178165Y63286D02*Y63196D01*
X178300Y63646D02*X178165Y63286D01*
Y63196D02*X178210Y63016D01*
X178300Y62836D01*
X178480Y62746D01*
X178525Y63916D02*X178300Y63646D01*
X180640Y65671D02*Y63466D01*
X180685Y63196D01*
X180865Y62926D01*
X181090Y62791D01*
G54D57*X162790Y63461D02*Y58811D01*
X159880Y63461D02*X165700D01*
X172090Y54161D02*X176710D01*
G54D58*X174800Y52961D02*X174680Y53021D01*
X174530Y53051D01*
X174350Y53021D01*
X174140Y52361D02*X174950Y51071D01*
X174980Y52751D02*X174920Y52871D01*
X174800Y52961D01*
X174350Y53021D02*X174200Y52931D01*
X174110Y52781D01*
X174080Y52601D01*
X174140Y52361D01*
G54D57*X172090Y49541D02*X176710D01*
G54D58*X174110Y51071D02*X174950D01*
X174590Y48401D02*X175100D01*
X174590D02*X174440Y48371D01*
X174320Y48311D01*
X174230Y48161D01*
X174620Y47531D02*X174470Y47501D01*
X174320Y47381D01*
X174230Y47261D01*
X174590Y47531D02*X174890D01*
X174200Y47081D02*Y46901D01*
X174230Y46721D01*
Y47261D02*X174200Y47081D01*
G54D57*X172090Y44891D02*X176710D01*
G54D58*X174680Y46451D02*X175100D01*
X174230Y46721D02*X174350Y46571D01*
X174500Y46481D01*
X174680Y46451D01*
X174200Y48011D02*X174230Y47831D01*
Y48161D02*X174200Y48011D01*
X174230Y47831D02*X174350Y47681D01*
X174500Y47561D01*
X174710Y47531D01*
G54D57*X162790Y54161D02*Y30941D01*
G54D58*X175100Y42221D02*X174680Y43781D01*
X174350Y42671D02*Y41801D01*
X174110Y33341D02*X174080Y33191D01*
X174470Y33581D02*X174320Y33551D01*
X174200Y33461D01*
X174110Y33341D01*
X174740Y32531D02*X174860Y32621D01*
X174950Y32741D01*
X174980Y32891D01*
X174200Y32621D02*X174320Y32531D01*
X174470Y32501D01*
X174590D02*X174740Y32531D01*
X174590Y34391D02*X174320Y34481D01*
X174080Y32891D02*X174110Y32741D01*
X174200Y32621D01*
X174980Y33731D02*X174920Y34001D01*
X174800Y34241D01*
X174590Y34391D01*
X174980Y33731D02*Y32891D01*
X174080Y33191D02*Y32891D01*
X174470Y32501D02*X174590D01*
X174350Y38111D02*X174230Y37961D01*
X174200Y37781D01*
X174470Y33581D02*X174980D01*
X174350Y37271D02*X174500Y37181D01*
X174680Y37151D01*
Y38231D02*X174500Y38201D01*
X174350Y38111D01*
X174200Y37781D02*Y37601D01*
X174230Y37421D01*
X174350Y37271D01*
X175100Y39131D02*Y38231D01*
X174680D02*X175100D01*
X174680Y37151D02*X175100D01*
G54D57*X172090Y44891D02*Y35591D01*
Y40241D02*X176710D01*
G54D58*X174020Y42221D02*X175100D01*
X174200Y39131D02*X175100D01*
G54D57*X159880Y30941D02*X165700D01*
X162790Y35591D02*X176710D01*
G54D58*X174680Y57701D02*X175100Y57281D01*
X174680Y57701D02*Y55721D01*
G54D57*X181360Y61151D02*Y33281D01*
G54D59*X258220Y19134D02*Y60866D01*
X305622Y19134D02*Y60866D01*
X258220D02*X305622D01*
Y19134D02*X258220D01*
G54D57*X95681Y30843D02*X94681Y29843D01*
X95681Y32843D02*X94681Y33843D01*
X91681D02*X94681D01*
X91681Y29843D02*Y38843D01*
X94681Y29843D02*X91681D01*
X95681Y32843D02*Y30843D01*
X176710Y33281D02*X181360D01*
X161050Y29801D02*X164530D01*
X162220Y28631D02*X163360D01*
X40000Y23701D02*X20000D01*
Y33701D02*Y23701D01*
Y33701D02*X40000D01*
X30000Y23701D02*Y33701D01*
X40000D02*X30000D01*
X97681Y32843D02*X98681Y33843D01*
X40000Y23701D02*Y33701D01*
X35000Y38701D02*X42500D01*
X57500Y41201D02*X42500D01*
X57500Y38701D02*X65000D01*
X57500Y41201D02*Y36201D01*
X42500D02*Y41201D01*
Y36201D02*X57500D01*
X97681Y32843D02*Y29843D01*
X106681Y33843D02*X103681D01*
X107681Y32843D02*X106681Y33843D01*
X107681D02*Y29843D01*
X117681Y30843D02*X118681Y29843D01*
Y33843D02*X117681Y32843D01*
Y30843D02*Y32843D01*
X114681Y31843D02*X110681D01*
X130681Y33843D02*X129681Y32843D01*
X127681D02*X126681Y33843D01*
X127681Y32843D02*Y30843D01*
X130681Y29843D02*X129681Y30843D01*
X127681D02*X126681Y29843D01*
X129681Y32843D02*Y30843D01*
X130681Y29843D02*X133681D01*
Y33843D02*X130681D01*
X133681D02*Y25843D01*
X118681Y33843D02*X121681D01*
X126681D02*X123681D01*
X121681Y29843D02*X118681D01*
X126681D02*X123681D01*
X121681Y38843D02*Y29843D01*
X100681Y33843D02*X98681D01*
X101681Y32843D02*X100681Y33843D01*
X101681D02*Y29843D01*
X153490Y61151D02*Y51851D01*
X35000Y48701D02*X42500D01*
Y46201D02*Y51201D01*
Y46201D02*X57500D01*
Y51201D02*X42500D01*
X57500D02*Y46201D01*
X148870Y51851D02*X153490D01*
Y54161D02*X162790D01*
X57500Y48701D02*X65000D01*
G54D58*X101912Y155306D02*X100232Y154706D01*
X101372Y157046D02*X103712D01*
X101372Y155876D02*X100232Y154706D01*
X103712Y157046D01*
G54D57*X115742Y158996D02*X111092Y154346D01*
X106442Y158996D02*X115742D01*
X106442Y154346D02*X115742D01*
X111092D02*X106442Y158996D01*
G54D58*X106322Y151019D02*Y148049D01*
X105017D02*X106322D01*
X104297Y151019D02*Y148049D01*
X102992Y151019D02*X104297D01*
X102992Y148049D02*X104297D01*
X103307Y149669D02*X104297D01*
G54D57*X110552Y142976D02*X110672Y143156D01*
X110852Y143276D01*
X111092Y143336D01*
G54D58*X98312Y154346D02*X101792Y156686D01*
X99482D02*X101792D01*
X99482Y155516D02*X98312Y154346D01*
G54D57*X76000Y125701D02*Y139701D01*
G54D58*X99992Y154946D02*X98312Y154346D01*
X98582Y148049D02*X99842D01*
X98627Y149939D02*X99842Y148049D01*
Y150524D02*X99752Y150749D01*
X99212Y151019D02*X98942Y150974D01*
X98717Y150794D01*
X98582Y150569D01*
X98492Y150299D01*
X99752Y150749D02*X99617Y150884D01*
X99437Y150974D01*
X99212Y151019D01*
X98492Y150299D02*X98627Y149939D01*
G54D57*X81000Y108701D02*X85000D01*
X53000D02*X57000D01*
X55000Y106701D02*Y110701D01*
G54D58*X101192Y151019D02*X102227D01*
X101192D02*X100967Y150974D01*
X100787Y150839D01*
X100652Y150659D01*
X101192Y148049D02*X102227D01*
X100967Y148094D02*X101192Y148049D01*
X100607Y150434D02*Y148634D01*
X100652Y148409D01*
X100787Y148229D01*
X100967Y148094D01*
X100652Y150659D02*X100607Y150434D01*
X102227Y151019D02*Y148049D01*
X99482Y156686D02*X102962Y158996D01*
X101372Y157046D02*X104852Y159356D01*
G54D57*X110492Y142736D02*X110552Y142976D01*
X111092Y143336D02*X111302Y143276D01*
X111482Y143156D01*
X110552Y142526D02*X110492Y142736D01*
X111482Y143156D02*X111632Y142976D01*
X111662Y142736D01*
X111632Y142526D01*
X111482Y142346D01*
X113912Y125876D02*X113282Y125786D01*
X112682Y125636D01*
X112082Y125426D01*
X113102Y117446D02*X114302Y115436D01*
X112322Y115616D02*X113102Y117446D01*
X114572Y125906D02*X113912Y125876D01*
X112082Y125426D02*X111512Y125156D01*
X114302Y115436D02*X112322Y115616D01*
X111512Y113906D02*X112082Y113636D01*
X112682Y113426D01*
X113282Y113276D01*
X113912Y113186D01*
X114572Y113156D01*
X115232Y113186D01*
X115862Y113276D01*
X116462Y113426D01*
X148870Y61151D02*Y51851D01*
X148599Y119516D02*X148232D01*
X116462Y113426D02*X117062Y113636D01*
X117602Y113906D01*
X118142Y114236D01*
X118622Y114596D01*
X119072Y115016D01*
X119492Y115466D01*
X119852Y115946D01*
X120182Y116486D01*
X120452Y117056D01*
X120932Y118886D02*X120962Y119516D01*
X120932Y120176D01*
X120812Y120806D01*
X120662Y121436D01*
X120452Y117056D02*X120662Y117626D01*
X120812Y118226D01*
X120932Y118886D01*
X120662Y121436D02*X120452Y122006D01*
X120182Y122576D01*
X119852Y123086D01*
X134953Y138281D02*X135223Y136841D01*
X134743Y139721D02*X134953Y138281D01*
X134623Y141161D02*X134743Y139721D01*
X134593Y142631D02*X134623Y141161D01*
G54D58*X126510Y125951D02*X126780D01*
X126510D02*X126240Y125906D01*
X126015Y125771D01*
X125880Y125546D01*
X127050Y125906D02*X126780Y125951D01*
X126510Y122981D02*X126780D01*
X126240Y123071D02*X126510Y122981D01*
X123405D02*X124665D01*
X123450Y124916D02*X124665Y122981D01*
X126780D02*X127050Y123071D01*
X127275Y123206D01*
X127455Y123431D01*
X124710Y125501D02*X124620Y125681D01*
X124440Y125816D01*
X124260Y125906D01*
X124035Y125951D01*
X123765Y125906D01*
X123540Y125771D01*
X123405Y125546D01*
X123360Y125276D01*
X123450Y124916D01*
X127500Y125276D02*Y123701D01*
X127455Y123431D02*X127500Y123701D01*
Y125276D02*X127455Y125546D01*
X127275Y125771D01*
X127050Y125906D01*
X125790Y125276D02*Y123701D01*
X125475Y122981D02*X126150Y123656D01*
X125880Y125546D02*X125790Y125276D01*
Y123701D02*X125880Y123431D01*
X126015Y123206D01*
X126240Y123071D01*
G54D57*X118622Y124466D02*X118142Y124826D01*
X117602Y125156D01*
X117062Y125426D01*
X116462Y125636D01*
X119852Y123086D02*X119492Y123596D01*
X119072Y124046D01*
X118622Y124466D01*
X116462Y125636D02*X115862Y125786D01*
X115232Y125876D01*
X114572Y125906D01*
X116882Y124166D02*Y114896D01*
X111092D02*X116882Y118376D01*
X111092Y124166D02*X116882Y120686D01*
X111092Y114896D02*Y87026D01*
X111024Y142717D02*X132283D01*
X129943Y147251D02*Y144941D01*
X128803Y146111D02*X131113D01*
X135223Y148391D02*X134953Y146981D01*
X134623Y144071D02*X134593Y142631D01*
X134743Y145511D02*X134623Y144071D01*
X134953Y146981D02*X134743Y145511D01*
G54D58*X139125Y146321D02*Y144746D01*
X140565Y147311D02*X140385Y147266D01*
X140745D02*X140565Y147311D01*
X140295Y147176D02*X139980Y146546D01*
X140295Y147176D02*X140385Y147266D01*
X139890Y145826D02*X139980Y145106D01*
Y146546D02*X139890Y145871D01*
Y145826D01*
X138990Y144476D02*X139125Y144746D01*
X141150Y146546D02*X140835Y147176D01*
X141285Y145871D02*X141150Y146546D01*
Y145106D02*X141285Y145826D01*
X140835Y144521D02*X141150Y145106D01*
X141285Y145871D02*Y145826D01*
X140565Y144341D02*X140745Y144386D01*
X140385D02*X140565Y144341D01*
X139980Y145106D02*X140295Y144521D01*
X140385Y144386D01*
X140745D02*X140835Y144521D01*
Y147176D02*X140745Y147266D01*
X142005Y147311D02*Y144341D01*
Y147311D02*X142635Y146681D01*
X138720Y144341D02*X138990Y144476D01*
X137775Y146321D02*Y144341D01*
X138720D01*
G54D57*X132283Y148421D02*Y136811D01*
G54D58*X139035Y153566D02*X139125Y153206D01*
X139080Y153836D02*X139035Y153566D01*
X139260Y154061D02*X139080Y153836D01*
X139440Y154241D02*X139260Y154061D01*
X139710Y154286D02*X139440Y154241D01*
X139935D02*X139710Y154286D01*
X140160Y154151D02*X139935Y154241D01*
X140295Y154016D02*X140160Y154151D01*
X140385Y153791D02*X140295Y154016D01*
X139125Y153206D02*X140385Y151316D01*
X139080D02*X140385D01*
X142140Y154241D02*X141915Y154286D01*
X142320Y154106D02*X142140Y154241D01*
X142455Y153926D02*X142320Y154106D01*
X142500Y153701D02*X142455Y153926D01*
Y151676D02*X142500Y151901D01*
X142320Y151496D02*X142455Y151676D01*
X142140Y151361D02*X142320Y151496D01*
X141915Y151316D02*X142140Y151361D01*
X142500Y153701D02*Y151901D01*
X141150Y151316D02*X141915D01*
X141150Y154286D02*X141915D01*
G54D57*X111482Y142346D02*X111302Y142226D01*
X111092Y142166D01*
X110852Y142226D01*
X110672Y142346D01*
X110552Y142526D01*
X111512Y125156D02*X111002Y124826D01*
X110492Y124466D01*
X110042Y124046D01*
X109652Y123596D01*
X109262Y123086D01*
X108962Y122576D01*
X108692Y122006D01*
X108182Y119516D02*X108212Y118886D01*
X108692Y122006D02*X108482Y121436D01*
X108302Y120806D01*
X108212Y120176D01*
X108182Y119516D01*
X108212Y118886D02*X108302Y118226D01*
X108482Y117626D01*
X108692Y117056D01*
X108962Y116486D01*
X109262Y115946D01*
X109652Y115466D01*
X110042Y115016D01*
X110492Y114596D01*
X111002Y114236D01*
X111512Y113906D01*
X108752Y189206D02*X113402D01*
X111092Y198476D02*Y189206D01*
X116488Y240042D02*Y231360D01*
X113402Y189206D02*Y175256D01*
X111092Y154346D02*Y124166D01*
Y175256D02*Y158996D01*
X108752Y175256D02*X113402D01*
G54D58*X104970Y180846D02*X105600Y180216D01*
X104205Y180351D02*X104115Y180576D01*
X103980Y180711D01*
X103800Y180801D01*
X103575Y180846D01*
X103305Y180801D01*
X103080Y180621D01*
X102945Y180396D01*
X104700Y187821D02*X104430Y187731D01*
X104205Y187596D01*
X104070Y187371D01*
X103980Y187101D02*Y186876D01*
X104070Y187371D02*X103980Y187101D01*
Y186876D02*X104070Y186606D01*
X105600Y187821D02*Y184851D01*
X104655Y186201D02*X103980Y184851D01*
X104070Y186606D02*X104205Y186381D01*
X104430Y186246D01*
X104700Y186201D01*
X102945Y179766D02*X104205Y177876D01*
X104700Y186201D02*X105600D01*
G54D57*X108752Y189206D02*Y175256D01*
G54D58*X104970Y180846D02*Y177876D01*
X102945D02*X104205D01*
X104700Y187821D02*X105600D01*
X103260Y185481D02*X102585Y187821D01*
X101595Y185481D02*X103260D01*
X102135Y186201D02*Y184851D01*
X102945Y180396D02*X102855Y180126D01*
X102990Y179766D01*
X101145Y180666D02*X101235Y180801D01*
X101145Y180666D02*X100830Y180081D01*
X99030Y179226D02*X99975D01*
X99030Y180846D02*X99975D01*
X101685Y180666D02*X101595Y180801D01*
X100830Y180081D02*X100740Y179406D01*
X99975Y180846D02*Y177876D01*
X98355Y180126D02*Y179901D01*
X98400Y180396D02*X98355Y180126D01*
Y179901D02*X98400Y179631D01*
X98535Y179406D01*
X98985Y179226D02*X98355Y177876D01*
X98535Y179406D02*X98760Y179271D01*
X99030Y179226D01*
Y180846D02*X98760Y180801D01*
X98535Y180621D01*
X98400Y180396D01*
X100740Y179406D02*Y179316D01*
X102135Y179406D02*Y179316D01*
X102000Y178641D02*X102135Y179316D01*
X100740D02*X100830Y178641D01*
X102135Y179406D02*X102000Y180081D01*
X101685Y180666D01*
X101595Y180801D02*X101415Y180846D01*
X101235Y180801D01*
X101145Y178056D02*X101235Y177921D01*
X101595D02*X101685Y178056D01*
X102000Y178641D01*
X100830D02*X101145Y178056D01*
X101235Y177921D02*X101415Y177876D01*
X101595Y177921D01*
X141585Y180666D02*X141450Y180801D01*
X141000Y180666D02*X141090Y180801D01*
X141000Y180666D02*X140685Y180081D01*
X141450Y180801D02*X141270Y180846D01*
X141090Y180801D01*
X143700Y180666D02*X143610Y180801D01*
X143115Y180666D02*X143250Y180801D01*
X141855Y180081D02*X141585Y180666D01*
X144870Y180846D02*X145500Y180216D01*
X144105Y179406D02*Y179316D01*
X143700Y178056D02*X144015Y178641D01*
X144105Y179316D01*
X143115Y178056D02*X143250Y177921D01*
X143430Y177876D01*
X144105Y179406D02*X144015Y180081D01*
X143700Y180666D01*
X144600Y187821D02*X145500D01*
X143880Y187101D02*Y186876D01*
X144600Y187821D02*X144330Y187731D01*
X144105Y187596D01*
X143925Y187371D02*X143880Y187101D01*
X144105Y187596D02*X143925Y187371D01*
X143880Y186876D02*X143925Y186606D01*
X144105Y186381D01*
X145500Y187821D02*Y184851D01*
X144510Y186201D02*X143880Y184851D01*
X144105Y186381D02*X144330Y186246D01*
X144600Y186201D01*
X143430Y177876D02*X143610Y177921D01*
Y180801D02*X143430Y180846D01*
G54D57*X148275Y189206D02*Y175256D01*
G54D58*X144870Y180846D02*Y177876D01*
X143610Y177921D02*X143700Y178056D01*
X144600Y186201D02*X145500D01*
X143430Y180846D02*X143250Y180801D01*
X142395Y187821D02*X143115D01*
X142395D02*X142170Y187776D01*
X141990Y187641D01*
X141855Y187461D01*
X142170Y186426D02*X141990Y186291D01*
X141810Y187236D02*X141855Y186921D01*
X142035Y186696D01*
X142260Y186516D01*
X142395Y186471D02*X142845D01*
X142440D02*X142170Y186426D01*
X141990Y186291D02*X141855Y186066D01*
X142260Y186516D02*X142530Y186471D01*
X141855Y187461D02*X141810Y187236D01*
Y185841D02*Y185526D01*
X141855Y185256D01*
X141990Y185031D01*
X142215Y184896D01*
X141855Y186066D02*X141810Y185841D01*
X142485Y184851D02*X143115D01*
X142215Y184896D02*X142485Y184851D01*
X142710Y179406D02*Y179316D01*
X143115Y180666D02*X142845Y180081D01*
X142710Y179406D01*
X140595D02*Y179316D01*
X141990Y179406D02*Y179316D01*
X140685Y180081D02*X140595Y179406D01*
X141990D02*X141855Y180081D01*
X141000Y178056D02*X141090Y177921D01*
X141585Y178056D02*X141855Y178641D01*
X141990Y179316D01*
X140595D02*X140685Y178641D01*
X141000Y178056D01*
X141090Y177921D02*X141270Y177876D01*
X141450Y177921D01*
X139830Y180846D02*Y177876D01*
Y178821D02*X138480Y179856D01*
X139245Y179271D02*X138480Y177876D01*
X142710Y179316D02*X142845Y178641D01*
X143115Y178056D01*
X141450Y177921D02*X141585Y178056D01*
G54D57*X148870Y61151D02*X153490D01*
Y58811D02*X176710D01*
G54D58*X149700Y62706D02*X150735Y65676D01*
X149700Y62706D02*X148665Y65676D01*
G54D57*X182679Y175237D02*X182677Y142717D01*
X182872Y143284D02*X183052Y143164D01*
X183172Y142984D01*
X183232Y142744D01*
X197795Y136927D02*X198065Y138367D01*
X198275Y139807D01*
X198395Y141247D01*
X200735Y148507D02*Y136897D01*
X201905Y139207D02*X204215D01*
X203075Y140377D02*Y138067D01*
X221986Y142717D02*X222016Y142957D01*
X222166Y143137D01*
G54D58*X216760Y148019D02*X218020D01*
X214735D02*X215995D01*
X212935D02*X213970D01*
X212350Y148604D02*X212395Y148379D01*
X212530Y148199D01*
X212710Y148064D01*
X212935Y148019D01*
G54D57*X198395Y141247D02*X198425Y142717D01*
X198395Y144157D01*
X198275Y145597D01*
X198065Y147067D01*
X197795Y148477D01*
X182677Y142717D02*X198084D01*
G54D58*X218020Y150989D02*Y148019D01*
X212350Y150404D02*Y148604D01*
X212935Y150989D02*X212710Y150944D01*
X212530Y150809D01*
X212395Y150629D01*
X212350Y150404D01*
X215995Y150989D02*Y148019D01*
X215005Y149639D02*X215995D01*
X213970Y150989D02*Y148019D01*
X210955Y150989D02*X211585Y150359D01*
X210955Y150989D02*Y148019D01*
X214735Y150989D02*X215995D01*
X212935D02*X213970D01*
G54D57*X222346Y142207D02*X222166Y142327D01*
X222016Y142507D01*
X221986Y142717D01*
X220546Y117427D02*X219346Y115417D01*
X221326Y115597D02*X220546Y117427D01*
X221566Y125407D02*X220966Y125617D01*
X220366Y125767D01*
X219736Y125857D01*
X219346Y115417D02*X221326Y115597D01*
X222136Y125137D02*X221566Y125407D01*
X222556Y142147D02*X222346Y142207D01*
X219076Y125887D02*X218416Y125857D01*
X217786Y125767D01*
X217186Y125617D01*
X216586Y125407D01*
X216046Y125137D01*
X215506Y124807D01*
X215026Y124447D01*
X214576Y124027D01*
X214156Y123577D01*
X213796Y123067D01*
X213466Y122557D01*
X213196Y121987D01*
X212986Y121417D01*
X212836Y120787D01*
X212716Y120157D01*
X212686Y119497D01*
X212716Y118867D01*
X219736Y125857D02*X219076Y125887D01*
X212716Y118867D02*X212836Y118207D01*
X212986Y117607D01*
X213196Y117037D01*
X213466Y116467D01*
X213796Y115927D01*
X214156Y115447D01*
X214576Y114997D01*
X215026Y114577D01*
X215506Y114217D01*
X216046Y113887D01*
X216586Y113617D01*
X217186Y113407D01*
X217786Y113257D01*
X218416Y113167D01*
X219076Y113137D01*
X219736Y113167D01*
X220366Y113257D01*
X220966Y113407D01*
X221566Y113617D01*
X216766Y124147D02*Y114877D01*
X222556Y124147D02*X216766Y120667D01*
X222556Y114877D02*X216766Y118357D01*
X182699Y119498D02*X216766Y119497D01*
X116814D02*X150591Y119488D01*
X150015Y142744D02*X150075Y142984D01*
X150195Y143164D01*
X150375Y142234D02*X150195Y142354D01*
X150075Y142534D01*
X150015Y142744D01*
X150615Y142174D02*X150375Y142234D01*
X183232Y142744D02*X183172Y142534D01*
X183052Y142354D01*
X182872Y142234D01*
X182662Y142174D01*
X222166Y143137D02*X222346Y143257D01*
X134646Y142717D02*X150630D01*
G54D58*X209010Y125951D02*X209280D01*
X209010D02*X208740Y125906D01*
X208515Y125771D01*
X208335Y125546D01*
X208290Y125276D01*
X206535Y125951D02*X207210Y125321D01*
X209010Y122981D02*X209280D01*
X208290Y125276D02*Y123701D01*
X208335Y123431D01*
X208515Y123206D01*
X210000Y125276D02*Y123701D01*
X207930Y122981D02*X208650Y123656D01*
X208515Y123206D02*X208740Y123071D01*
X209010Y122981D01*
X209775Y123206D02*X209910Y123431D01*
X210000Y123701D01*
X209280Y122981D02*X209550Y123071D01*
X209775Y123206D01*
X206535Y125951D02*Y122981D01*
X210000Y125276D02*X209910Y125546D01*
X209775Y125771D01*
X209550Y125906D01*
X209280Y125951D01*
G54D57*X221942Y87036D02*X222002Y87276D01*
X222122Y87456D01*
X222302Y87576D01*
X111092Y87026D02*X222556Y87008D01*
X200735Y142717D02*X222556D01*
X221566Y113617D02*X222136Y113887D01*
X222302Y87576D02*X222542Y87636D01*
X150195Y143164D02*X150375Y143284D01*
X150615Y143344D01*
X182662D02*X182872Y143284D01*
X150015Y198476D02*X150075Y198716D01*
X150195Y198896D01*
X150375Y199016D01*
Y197936D02*X150195Y198056D01*
X150075Y198266D01*
X150015Y198476D01*
X150375Y199016D02*X150615Y199046D01*
Y197906D02*X150375Y197936D01*
X111092Y198476D02*X222624D01*
X182469Y198997D02*X182679Y199027D01*
X182919Y198997D01*
X183099Y198877D01*
X183219Y198697D01*
X183279Y198457D01*
X183219Y198247D01*
X183099Y198037D01*
X182919Y197917D01*
X148275Y189206D02*X152925D01*
G54D58*X215880Y187101D02*Y186876D01*
X216060Y187596D02*X215925Y187371D01*
X214485Y187821D02*X215115Y187146D01*
X216555Y187821D02*X216285Y187731D01*
X216060Y187596D01*
X215925Y187371D02*X215880Y187101D01*
X216510Y186201D02*X215880Y184851D01*
Y186876D02*X215925Y186606D01*
X216060Y186381D01*
X216285Y186246D01*
X216555Y186201D01*
X214485Y187821D02*Y184851D01*
X217500Y187821D02*Y184851D01*
X216555Y186201D02*X217500D01*
X216555Y187821D02*X217500D01*
X214845Y179766D02*X216105Y177876D01*
Y180351D02*X216015Y180576D01*
X215835Y180711D01*
X215655Y180801D01*
X215430Y180846D01*
X215160Y180801D01*
X216870Y180846D02*X217500Y180216D01*
X216870Y180846D02*Y177876D01*
X214800D02*X216105D01*
X215160Y180801D02*X214935Y180621D01*
X214800Y180396D01*
X214755Y180126D01*
X214845Y179766D01*
X213000Y180666D02*X213135Y180801D01*
X213000Y180666D02*X212685Y180081D01*
X210930Y179226D02*X211830D01*
X210930Y180846D02*X211830D01*
X213585Y180666D02*X213495Y180801D01*
X212685Y180081D02*X212595Y179406D01*
X211830Y180846D02*Y177876D01*
X210210Y180126D02*Y179901D01*
X210255Y180396D02*X210210Y180126D01*
Y179901D02*X210255Y179631D01*
X210435Y179406D01*
X210840Y179226D02*X210210Y177876D01*
X210435Y179406D02*X210660Y179271D01*
X210930Y179226D01*
Y180846D02*X210660Y180801D01*
X210435Y180621D01*
X210255Y180396D01*
X212595Y179406D02*Y179316D01*
X213990Y179406D02*Y179316D01*
X213900Y178641D02*X213990Y179316D01*
X212595D02*X212685Y178641D01*
X213990Y179406D02*X213900Y180081D01*
X213585Y180666D01*
X213495Y180801D02*X213315Y180846D01*
X213135Y180801D01*
X213000Y178056D02*X213135Y177921D01*
X213495D02*X213585Y178056D01*
X213900Y178641D01*
X212685D02*X213000Y178056D01*
X213135Y177921D02*X213315Y177876D01*
X213495Y177921D01*
G54D57*X148275Y175256D02*X152925D01*
X182919Y197917D02*X182679Y197887D01*
X180369Y189187D02*X185019D01*
Y175237D01*
X180369D02*X185019D01*
X182679Y198457D02*Y189187D01*
Y197887D02*X182469Y197917D01*
X222559Y197934D02*X222349Y197964D01*
X222169Y198084D01*
X222049Y198294D01*
X209806Y154327D02*X213286Y156667D01*
X210946Y155497D02*X209806Y154327D01*
X211486Y154927D02*X209806Y154327D01*
X210946Y156667D02*X214426Y158977D01*
X210946Y156667D02*X213286D01*
X212866Y155857D02*X211696Y154687D01*
X213406Y155287D02*X211696Y154687D01*
X222346Y143257D02*X222556Y143317D01*
X211696Y154687D02*X215176Y157027D01*
X212866D02*X215176D01*
X212866D02*X216346Y159337D01*
X220246Y189187D02*X224896D01*
X220246D02*Y175237D01*
X224896Y189187D02*Y175237D01*
X217906Y158977D02*X227206D01*
X220246Y175237D02*X224896D01*
X222556D02*Y158977D01*
Y143317D02*X222796Y143257D01*
X227206Y158977D02*X222556Y154327D01*
X217906D02*X227206D01*
X222556D02*X217906Y158977D01*
G54D58*X224590Y204429D02*X223555Y207399D01*
X222790Y206049D02*Y204789D01*
X221800Y206409D02*X222430D01*
X222700Y206319D02*X222430Y206409D01*
Y204429D02*X222700Y204519D01*
X222790Y204789D01*
Y206049D02*X222700Y206319D01*
X220045Y204429D02*X220720D01*
X221035Y206049D02*Y204789D01*
Y206049D02*X220945Y206319D01*
X220720Y204429D02*X220945Y204519D01*
X221035Y204789D01*
G54D57*X219676Y203107D02*X225466D01*
G54D58*X224590Y204429D02*X225625Y207399D01*
X221800Y204429D02*X222430D01*
X220045Y206409D02*X220720D01*
X220945Y206319D02*X220720Y206409D01*
G54D57*X222169Y198924D02*X222349Y199044D01*
X222556Y203107D02*Y189187D01*
X221989Y198504D02*X222049Y198744D01*
X222169Y198924D01*
X222349Y199044D02*X222559Y199074D01*
X222049Y198294D02*X221989Y198504D01*
X222559Y199074D02*X222799Y199044D01*
X222979Y198924D01*
X223099Y198744D01*
X223159Y198504D01*
X223099Y198294D01*
X222979Y198084D01*
X222799Y197964D01*
X222559Y197934D01*
X222796Y143257D02*X222976Y143137D01*
X249000Y100701D02*X245000D01*
X268000Y117701D02*Y131701D01*
X277000Y100701D02*X273000D01*
X275000Y102701D02*Y98701D01*
X222976Y143137D02*X223096Y142957D01*
X223156Y142717D01*
X223096Y142507D01*
X222976Y142327D01*
X222796Y142207D01*
X222556Y142147D01*
X224386Y123067D02*X223996Y123577D01*
X223606Y124027D01*
X223156Y124447D01*
X222136Y113887D02*X222646Y114217D01*
X223156Y114577D01*
X223606Y114997D01*
X222556Y114877D02*Y82357D01*
X222932Y87456D02*X223052Y87276D01*
X223112Y87036D01*
X223052Y86826D01*
X222932Y86646D01*
X222752Y86526D01*
X222542Y86466D01*
X222302Y86526D01*
X220816Y81187D02*X224296D01*
X222542Y87636D02*X222752Y87576D01*
X222932Y87456D01*
X222302Y86526D02*X222122Y86646D01*
X222002Y86826D01*
X221942Y87036D01*
X223606Y114997D02*X223996Y115447D01*
X224386Y115927D01*
X223156Y124447D02*X222646Y124807D01*
X222136Y125137D01*
X222556Y154327D02*Y124147D01*
X224386Y115927D02*X224686Y116467D01*
X224956Y117037D01*
X225166Y117607D01*
X221986Y80047D02*X223156D01*
X219676Y82357D02*X225466D01*
Y119497D02*X225436Y120157D01*
X225166Y117607D02*X225346Y118207D01*
X225436Y118867D01*
X225466Y119497D01*
X225436Y120157D02*X225346Y120787D01*
X225166Y121417D01*
X224956Y121987D01*
X224686Y122557D01*
X224386Y123067D01*
G54D59*X164669Y369685D02*G75*G03X161134Y368221I0J-5000D01*G01*
X169976Y369685D02*G75*G02X173512Y368221I0J-5000D01*G01*
X153039Y360126D02*G75*G03X151575Y356590I3536J-3536D01*G01*
X181606Y360126D02*G75*G02X183071Y356590I-3536J-3536D01*G01*
G54D57*X92681Y39843D02*G75*G02X90681Y39843I-1000J0D01*G01*
G75*G02X92681Y39843I1000J0D01*G01*
X122681D02*G75*G02X120681Y39843I-1000J0D01*G01*
G75*G02X122681Y39843I1000J0D01*G01*
X134681Y24843D02*G75*G02X132681Y24843I-1000J0D01*G01*
G75*G02X134681Y24843I1000J0D01*G01*
X116488Y240042D02*G75*G02X129512Y231360I6512J-4341D01*G01*
X129512Y231360D02*G75*G02X116488Y231360I-6512J4341D01*G01*
X203488Y237042D02*G75*G02X216512Y228360I6512J-4341D01*G01*
X216512Y228360D02*G75*G02X203488Y228360I-6512J4341D01*G01*
X59000Y108701D02*G75*G02X79000Y108701I10000J0D01*G01*
G75*G02X59000Y108701I-10000J0D01*G01*
X76071Y125630D02*G75*G02X61929Y139772I-7071J7071D01*G01*
X61929Y139772D02*G75*G02X76071Y139772I7071J-7071D01*G01*
X268071Y117630D02*G75*G02X253929Y131772I-7071J7071D01*G01*
X253929Y131772D02*G75*G02X268071Y131772I7071J-7071D01*G01*
X271000Y100701D02*G75*G02X251000Y100701I-10000J0D01*G01*
G75*G02X271000Y100701I10000J0D01*G01*
G54D60*X81890Y128528D02*Y124528D01*
Y128528D02*X79414D01*
X81890Y126623D02*X80367D01*
X81890Y124528D02*X79414D01*
X79033Y139780D02*X79224Y140160D01*
X79605Y140541D01*
X79985Y140732D01*
X80748D01*
X81128Y140541D01*
X81510Y140160D01*
X81700Y139780D01*
X81890Y139208D01*
Y138255D01*
X81700Y137684D01*
X81510Y137303D01*
X81128Y136923D01*
X80748Y136732D01*
X79985D01*
X79605Y136923D01*
X79224Y137303D01*
X79033Y137684D01*
X81890Y134630D02*Y130630D01*
Y134630D02*X80176D01*
X79605Y134439D01*
X79414Y134249D01*
X79224Y133867D01*
Y133487D01*
X79414Y133106D01*
X79605Y132915D01*
X80176Y132725D01*
X81890D02*X80176D01*
X79605Y132535D01*
X79414Y132344D01*
X79224Y131963D01*
Y131392D01*
X79414Y131010D01*
X79605Y130821D01*
X80176Y130630D01*
X81890D01*
X71345Y93007D02*X70045D01*
X72045Y93707D02*X71345Y93007D01*
X72045Y96307D02*Y93707D01*
Y96307D02*X71345Y97007D01*
X70045D01*
X68845Y96207D02*X68045Y97007D01*
Y93007D01*
X68845D02*X67345D01*
X55839Y134154D02*Y131154D01*
Y134154D02*X55339Y134654D01*
X54339D01*
X53839Y134154D01*
Y131654D01*
X54839Y130654D02*X53839Y131654D01*
X55339Y130654D02*X54839D01*
X55839Y131154D02*X55339Y130654D01*
X54839Y132154D02*X53839Y130654D01*
X52639Y133854D02*X51839Y134654D01*
Y130654D01*
X52639D02*X51139D01*
X198143Y104249D02*X198334Y104629D01*
X198715Y105010D01*
X199095Y105201D01*
X199858D01*
X200238Y105010D01*
X200620Y104629D01*
X200810Y104249D01*
X201000Y103677D01*
Y102724D01*
X200810Y102153D01*
X200620Y101772D01*
X200238Y101392D01*
X199858Y101201D01*
X199095D01*
X198715Y101392D01*
X198334Y101772D01*
X198143Y102153D01*
X196943Y105201D02*Y101201D01*
X194791Y103868D02*X195173Y103679D01*
X195554Y103298D01*
X195743Y102727D01*
Y102345D01*
X195554Y101774D01*
X195173Y101393D01*
X194791Y101202D01*
X194220D01*
X193839Y101393D01*
X193459Y101774D01*
X193268Y102345D01*
Y102727D01*
X193459Y103298D01*
X193839Y103679D01*
X194220Y103868D01*
X194791D01*
X192068D02*X191307Y101202D01*
X190545Y103868D02*X191307Y101202D01*
X190545Y103868D02*X189782Y101202D01*
X189021Y103868D02*X189782Y101202D01*
X187821Y103868D02*Y101202D01*
Y103107D02*X187249Y103679D01*
X186869Y103868D01*
X186297D01*
X185917Y103679D01*
X185726Y103107D01*
Y101202D01*
X184526Y103201D02*X182026D01*
X180826Y105201D02*Y101201D01*
Y105201D02*X179112D01*
X178541Y105010D01*
X178350Y104820D01*
X178160Y104438D01*
Y104058D01*
X178350Y103677D01*
X178541Y103486D01*
X179112Y103296D01*
X180826D02*X179112D01*
X178541Y103106D01*
X178350Y102915D01*
X178160Y102534D01*
Y101963D01*
X178350Y101581D01*
X178541Y101392D01*
X179112Y101201D01*
X180826D01*
X176960Y105201D02*Y101201D01*
X175570Y103877D02*Y101211D01*
X175760Y105211D02*X175570Y105020D01*
X175379Y105211D01*
X175570Y105401D01*
X175760Y105211D01*
X174179Y103868D02*Y101202D01*
Y103107D02*X173607Y103679D01*
X173227Y103868D01*
X172655D01*
X172275Y103679D01*
X172084Y103107D01*
Y101202D01*
X170884Y105201D02*Y101201D01*
X168980Y103868D02*X170884Y101963D01*
X170123Y102726D02*X168789Y101201D01*
X167399Y103868D02*X166256Y101202D01*
X165113Y103868D02*X166256Y101202D01*
X166637Y100441D01*
X167017Y100059D01*
X167399Y99868D01*
X167589D01*
X163913Y103201D02*X161413D01*
X158689Y105201D02*X160213Y101201D01*
X158689Y105201D02*X157165Y101201D01*
X159641Y102534D02*X157736D01*
X155965Y103868D02*Y101202D01*
Y103107D02*X155393Y103679D01*
X155013Y103868D01*
X154441D01*
X154061Y103679D01*
X153870Y103107D01*
Y101202D01*
X150384Y103868D02*Y101202D01*
Y103298D02*X150766Y103679D01*
X151146Y103868D01*
X151718D01*
X152098Y103679D01*
X152480Y103298D01*
X152670Y102727D01*
Y102345D01*
X152480Y101774D01*
X152098Y101393D01*
X151718Y101202D01*
X151146D01*
X150766Y101393D01*
X150384Y101774D01*
X149184Y105201D02*Y101201D01*
X147032Y103868D02*X147414Y103679D01*
X147795Y103298D01*
X147984Y102727D01*
Y102345D01*
X147795Y101774D01*
X147414Y101393D01*
X147032Y101202D01*
X146461D01*
X146080Y101393D01*
X145700Y101774D01*
X145509Y102345D01*
Y102727D01*
X145700Y103298D01*
X146080Y103679D01*
X146461Y103868D01*
X147032D01*
X142023D02*Y100822D01*
X142214Y100250D01*
X142405Y100059D01*
X142785Y99870D01*
X143357D01*
X143737Y100059D01*
X142023Y103298D02*X142405Y103679D01*
X142785Y103868D01*
X143357D01*
X143737Y103679D01*
X144119Y103298D01*
X144309Y102727D01*
Y102345D01*
X144119Y101774D01*
X143737Y101393D01*
X143357Y101202D01*
X142785D01*
X142405Y101393D01*
X142023Y101774D01*
X140823Y103201D02*X138323D01*
X137123Y103868D02*X135981Y101202D01*
X134839Y103868D02*X135981Y101202D01*
X133639Y104440D02*X133259Y104630D01*
X132687Y105201D01*
Y101201D01*
X271033Y131780D02*X271224Y132160D01*
X271605Y132541D01*
X271985Y132732D01*
X272748D01*
X273128Y132541D01*
X273510Y132160D01*
X273700Y131780D01*
X273890Y131208D01*
Y130255D01*
X273700Y129684D01*
X273510Y129303D01*
X273128Y128923D01*
X272748Y128732D01*
X271985D01*
X271605Y128923D01*
X271224Y129303D01*
X271033Y129684D01*
X273890Y126630D02*Y122630D01*
Y126630D02*X272176D01*
X271605Y126439D01*
X271414Y126249D01*
X271224Y125867D01*
Y125487D01*
X271414Y125106D01*
X271605Y124915D01*
X272176Y124725D01*
X273890D02*X272176D01*
X271605Y124535D01*
X271414Y124344D01*
X271224Y123963D01*
Y123392D01*
X271414Y123010D01*
X271605Y122821D01*
X272176Y122630D01*
X273890D01*
Y120528D02*Y116528D01*
Y120528D02*X271414D01*
X273890Y118623D02*X272367D01*
X273890Y116528D02*X271414D01*
X242406Y26035D02*Y22035D01*
X240121D01*
X238921Y26035D02*Y22035D01*
Y26035D02*X236445D01*
X238921Y24130D02*X237398D01*
X238921Y22035D02*X236445D01*
X235245Y26035D02*Y22035D01*
Y26035D02*X233911D01*
X233340Y25844D01*
X232959Y25463D01*
X232769Y25083D01*
X232579Y24511D01*
Y23558D01*
X232769Y22987D01*
X232959Y22606D01*
X233340Y22226D01*
X233911Y22035D01*
X235245D01*
X231378Y25274D02*X230998Y25464D01*
X230426Y26035D01*
Y22035D01*
X228845Y22144D02*X229035Y21955D01*
X229226Y22144D01*
X229035Y22335D01*
X228845Y22144D01*
Y21764D01*
X229226Y21383D01*
X225845Y26035D02*Y22035D01*
X223560D01*
X222360Y26035D02*Y22035D01*
Y26035D02*X219884D01*
X222360Y24130D02*X220837D01*
X222360Y22035D02*X219884D01*
X218684Y26035D02*Y22035D01*
Y26035D02*X217350D01*
X216779Y25844D01*
X216398Y25463D01*
X216208Y25083D01*
X216018Y24511D01*
Y23558D01*
X216208Y22987D01*
X216398Y22606D01*
X216779Y22226D01*
X217350Y22035D01*
X218684D01*
X214628Y25083D02*Y25274D01*
X214437Y25654D01*
X214248Y25845D01*
X213866Y26035D01*
X213105D01*
X212723Y25845D01*
X212533Y25654D01*
X212343Y25274D01*
Y24892D01*
X212533Y24511D01*
X212914Y23940D01*
X214818Y22035D01*
X212152D01*
X210762Y23635D02*X210952Y23444D01*
X210762Y23254D01*
X210572Y23444D01*
X210762Y23635D01*
Y22301D02*X210952Y22110D01*
X210762Y21921D01*
X210572Y22110D01*
X210762Y22301D01*
X203592Y26035D02*X201497D01*
X202640Y24511D01*
X202068D01*
X201688Y24322D01*
X201497Y24131D01*
X201306Y23559D01*
Y23179D01*
X201497Y22607D01*
X201877Y22226D01*
X202449Y22035D01*
X203020D01*
X203592Y22226D01*
X203782Y22417D01*
X203972Y22797D01*
X200106Y24702D02*Y22036D01*
Y23941D02*X199536Y24513D01*
X199154Y24702D01*
X198583D01*
X198202Y24513D01*
X198012Y23941D01*
Y22036D01*
Y23941D02*X197440Y24513D01*
X197060Y24702D01*
X196488D01*
X196108Y24513D01*
X195917Y23941D01*
Y22036D01*
X194717Y24702D02*Y22036D01*
Y23941D02*X194147Y24513D01*
X193765Y24702D01*
X193194D01*
X192813Y24513D01*
X192623Y23941D01*
Y22036D01*
Y23941D02*X192051Y24513D01*
X191671Y24702D01*
X191099D01*
X190719Y24513D01*
X190528Y23941D01*
Y22036D01*
X239549Y34083D02*X239740Y34463D01*
X240121Y34844D01*
X240501Y35035D01*
X241264D01*
X241644Y34844D01*
X242026Y34463D01*
X242216Y34083D01*
X242406Y33511D01*
Y32558D01*
X242216Y31987D01*
X242026Y31606D01*
X241644Y31226D01*
X241264Y31035D01*
X240501D01*
X240121Y31226D01*
X239740Y31606D01*
X239549Y31987D01*
X238349Y34274D02*X237969Y34464D01*
X237397Y35035D01*
Y31035D01*
X235816Y31144D02*X236006Y30955D01*
X236197Y31144D01*
X236006Y31335D01*
X235816Y31144D01*
Y30764D01*
X236197Y30383D01*
X229958Y34083D02*X230150Y34463D01*
X230530Y34844D01*
X230910Y35035D01*
X231674D01*
X232054Y34844D01*
X232436Y34463D01*
X232626Y34083D01*
X232816Y33511D01*
Y32558D01*
X232626Y31987D01*
X232436Y31606D01*
X232054Y31226D01*
X231674Y31035D01*
X230910D01*
X230530Y31226D01*
X230150Y31606D01*
X229958Y31987D01*
X228568Y34083D02*Y34274D01*
X228377Y34654D01*
X228188Y34845D01*
X227806Y35035D01*
X227045D01*
X226663Y34845D01*
X226473Y34654D01*
X226283Y34274D01*
Y33892D01*
X226473Y33511D01*
X226854Y32940D01*
X228758Y31035D01*
X226092D01*
X224702Y32635D02*X224892Y32444D01*
X224702Y32254D01*
X224512Y32444D01*
X224702Y32635D01*
Y31301D02*X224892Y31110D01*
X224702Y30921D01*
X224512Y31110D01*
X224702Y31301D01*
X216112Y34274D02*X215732Y34464D01*
X215160Y35035D01*
Y31035D01*
X212817Y35035D02*X213388Y34845D01*
X213770Y34274D01*
X213960Y33322D01*
Y32750D01*
X213770Y31797D01*
X213388Y31226D01*
X212817Y31035D01*
X212436D01*
X211865Y31226D01*
X211484Y31797D01*
X211293Y32750D01*
Y33322D01*
X211484Y34274D01*
X211865Y34845D01*
X212436Y35035D01*
X212817D01*
X210093Y33702D02*Y31798D01*
X209903Y31227D01*
X209521Y31036D01*
X208950D01*
X208569Y31227D01*
X207998Y31798D01*
Y33702D02*Y31036D01*
X242406Y44035D02*Y40035D01*
Y44035D02*X240692D01*
X240121Y43844D01*
X239930Y43654D01*
X239740Y43273D01*
Y42892D01*
X239930Y42511D01*
X240121Y42321D01*
X240692Y42130D01*
X242406D01*
X241073D02*X239740Y40035D01*
X238350Y43083D02*Y43274D01*
X238159Y43654D01*
X237970Y43845D01*
X237588Y44035D01*
X236827D01*
X236445Y43845D01*
X236255Y43654D01*
X236065Y43274D01*
Y42892D01*
X236255Y42511D01*
X236636Y41940D01*
X238540Y40035D01*
X235874D01*
X234293Y40144D02*X234483Y39955D01*
X234674Y40144D01*
X234483Y40335D01*
X234293Y40144D01*
Y39764D01*
X234674Y39383D01*
X231293Y44035D02*Y40035D01*
Y44035D02*X229578D01*
X229007Y43844D01*
X228816Y43654D01*
X228626Y43273D01*
Y42892D01*
X228816Y42511D01*
X229007Y42321D01*
X229578Y42130D01*
X231293D01*
X229959D02*X228626Y40035D01*
X227046Y44035D02*X224951D01*
X226094Y42511D01*
X225522D01*
X225142Y42322D01*
X224951Y42131D01*
X224760Y41559D01*
Y41179D01*
X224951Y40607D01*
X225331Y40226D01*
X225903Y40035D01*
X226474D01*
X227046Y40226D01*
X227236Y40417D01*
X227426Y40797D01*
X223370Y41635D02*X223560Y41444D01*
X223370Y41254D01*
X223180Y41444D01*
X223370Y41635D01*
Y40301D02*X223560Y40110D01*
X223370Y39921D01*
X223180Y40110D01*
X223370Y40301D01*
X216580Y43274D02*X216200Y43464D01*
X215628Y44035D01*
Y40035D01*
X213285Y44035D02*X213856Y43845D01*
X214238Y43274D01*
X214428Y42322D01*
Y41750D01*
X214238Y40797D01*
X213856Y40226D01*
X213285Y40035D01*
X212904D01*
X212333Y40226D01*
X211952Y40797D01*
X211761Y41750D01*
Y42322D01*
X211952Y43274D01*
X212333Y43845D01*
X212904Y44035D01*
X213285D01*
X209418D02*X209989Y43845D01*
X210371Y43274D01*
X210561Y42322D01*
Y41750D01*
X210371Y40797D01*
X209989Y40226D01*
X209418Y40035D01*
X209037D01*
X208466Y40226D01*
X208085Y40797D01*
X207894Y41750D01*
Y42322D01*
X208085Y43274D01*
X208466Y43845D01*
X209037Y44035D01*
X209418D01*
X206694D02*Y40035D01*
X204790Y42702D02*X206694Y40797D01*
X205933Y41560D02*X204599Y40035D01*
X242406Y53035D02*Y49035D01*
Y53035D02*X240692D01*
X240121Y52844D01*
X239930Y52654D01*
X239740Y52273D01*
Y51892D01*
X239930Y51511D01*
X240121Y51321D01*
X240692Y51130D01*
X242406D01*
X241073D02*X239740Y49035D01*
X238540Y52274D02*X238160Y52464D01*
X237588Y53035D01*
Y49035D01*
X236007Y49144D02*X236197Y48955D01*
X236388Y49144D01*
X236197Y49335D01*
X236007Y49144D01*
Y48764D01*
X236388Y48383D01*
X233006Y53035D02*Y49035D01*
Y53035D02*X231293D01*
X230722Y52844D01*
X230530Y52654D01*
X230341Y52273D01*
Y51892D01*
X230530Y51511D01*
X230722Y51321D01*
X231293Y51130D01*
X233006D01*
X231674D02*X230341Y49035D01*
X227236Y53035D02*X229140Y50369D01*
X226284D01*
X227236Y53035D02*Y49035D01*
X224894Y50635D02*X225084Y50444D01*
X224894Y50254D01*
X224704Y50444D01*
X224894Y50635D01*
Y49301D02*X225084Y49110D01*
X224894Y48921D01*
X224704Y49110D01*
X224894Y49301D01*
X216304Y52274D02*X215924Y52464D01*
X215352Y53035D01*
Y49035D01*
X213962Y52083D02*Y52274D01*
X213771Y52654D01*
X213582Y52845D01*
X213200Y53035D01*
X212439D01*
X212057Y52845D01*
X211867Y52654D01*
X211677Y52274D01*
Y51892D01*
X211867Y51511D01*
X212248Y50940D01*
X214152Y49035D01*
X211486D01*
X209143Y53035D02*X209714Y52845D01*
X210096Y52274D01*
X210286Y51322D01*
Y50750D01*
X210096Y49797D01*
X209714Y49226D01*
X209143Y49035D01*
X208762D01*
X208191Y49226D01*
X207810Y49797D01*
X207619Y50750D01*
Y51322D01*
X207810Y52274D01*
X208191Y52845D01*
X208762Y53035D01*
X209143D01*
X206419D02*Y49035D01*
Y53035D02*X204705D01*
X204134Y52844D01*
X203943Y52654D01*
X203753Y52273D01*
Y51892D01*
X203943Y51511D01*
X204134Y51321D01*
X204705Y51130D01*
X206419D01*
X205086D02*X203753Y49035D01*
X241264Y62091D02*X241644Y61900D01*
X242026Y61519D01*
X242216Y61139D01*
X242406Y60567D01*
Y59615D01*
X242216Y59043D01*
X242026Y58662D01*
X241644Y58282D01*
X241264Y58091D01*
X240501D01*
X240121Y58282D01*
X239740Y58662D01*
X239549Y59043D01*
X239359Y59615D01*
Y60567D01*
X239549Y61139D01*
X239740Y61519D01*
X240121Y61900D01*
X240501Y62091D01*
X241264D01*
X240692Y58853D02*X239549Y57710D01*
X238159Y61330D02*X237779Y61520D01*
X237207Y62091D01*
Y58091D01*
X235626Y58200D02*X235816Y58011D01*
X236007Y58200D01*
X235816Y58391D01*
X235626Y58200D01*
Y57820D01*
X236007Y57439D01*
X231484Y62091D02*X231864Y61900D01*
X232246Y61519D01*
X232436Y61139D01*
X232626Y60567D01*
Y59615D01*
X232436Y59043D01*
X232246Y58662D01*
X231864Y58282D01*
X231484Y58091D01*
X230720D01*
X230341Y58282D01*
X229959Y58662D01*
X229768Y59043D01*
X229578Y59615D01*
Y60567D01*
X229768Y61139D01*
X229959Y61519D01*
X230341Y61900D01*
X230720Y62091D01*
X231484D01*
X230911Y58853D02*X229768Y57710D01*
X228188Y61139D02*Y61330D01*
X227997Y61710D01*
X227808Y61901D01*
X227426Y62091D01*
X226665D01*
X226283Y61901D01*
X226093Y61710D01*
X225903Y61330D01*
Y60948D01*
X226093Y60567D01*
X226474Y59996D01*
X228378Y58091D01*
X225712D01*
X224322Y59691D02*X224512Y59500D01*
X224322Y59310D01*
X224132Y59500D01*
X224322Y59691D01*
Y58357D02*X224512Y58166D01*
X224322Y57977D01*
X224132Y58166D01*
X224322Y58357D01*
X215732Y62091D02*Y58091D01*
Y62091D02*X213066Y58091D01*
Y62091D02*Y58091D01*
X211866Y62091D02*Y58091D01*
Y62091D02*X210152D01*
X209581Y61900D01*
X209390Y61710D01*
X209200Y61329D01*
Y60757D01*
X209390Y60377D01*
X209581Y60186D01*
X210152Y59996D01*
X211866D01*
X208000Y62091D02*Y58091D01*
Y62091D02*X205334Y58091D01*
Y62091D02*Y58091D01*
X262211Y85078D02*X260911D01*
X262911Y85778D02*X262211Y85078D01*
X262911Y88378D02*Y85778D01*
Y88378D02*X262211Y89078D01*
X260911D01*
X259711Y88578D02*X259211Y89078D01*
X257711D01*
X257211Y88578D01*
Y87578D01*
X259711Y85078D02*X257211Y87578D01*
X259711Y85078D02*X257211D01*
X248079Y126091D02*Y123091D01*
Y126091D02*X247579Y126591D01*
X246579D01*
X246079Y126091D01*
Y123591D01*
X247079Y122591D02*X246079Y123591D01*
X247579Y122591D02*X247079D01*
X248079Y123091D02*X247579Y122591D01*
X247079Y124091D02*X246079Y122591D01*
X244879Y126091D02*X244379Y126591D01*
X242879D01*
X242379Y126091D01*
Y125091D01*
X244879Y122591D02*X242379Y125091D01*
X244879Y122591D02*X242379D01*
X289663Y55528D02*X289854Y55908D01*
X290234Y56289D01*
X290615Y56480D01*
X291377D01*
X291758Y56289D01*
X292139Y55908D01*
X292329Y55528D01*
X292520Y54956D01*
Y54003D01*
X292329Y53432D01*
X292139Y53051D01*
X291758Y52671D01*
X291377Y52480D01*
X290615D01*
X290234Y52671D01*
X289854Y53051D01*
X289663Y53432D01*
Y54003D01*
X290615D02*X289663D01*
X288463Y56480D02*Y52480D01*
Y56480D02*X285797Y52480D01*
Y56480D02*Y52480D01*
X284597Y56480D02*Y52480D01*
Y56480D02*X283263D01*
X282692Y56289D01*
X282311Y55908D01*
X282121Y55528D01*
X281931Y54956D01*
Y54003D01*
X282121Y53432D01*
X282311Y53051D01*
X282692Y52671D01*
X283263Y52480D01*
X284597D01*
X305906Y68299D02*Y64799D01*
X305406Y64299D01*
X304406D01*
X303906Y64799D01*
Y68299D02*Y64799D01*
X300706Y68299D02*X300206Y67799D01*
X302206Y68299D02*X300706D01*
X302706Y67799D02*X302206Y68299D01*
X302706Y67799D02*Y66799D01*
X302206Y66299D01*
X300706D01*
X300206Y65799D01*
Y64799D01*
X300706Y64299D02*X300206Y64799D01*
X302206Y64299D02*X300706D01*
X302706Y64799D02*X302206Y64299D01*
X299006D02*X297006D01*
X296506Y64799D01*
Y65999D02*Y64799D01*
X297006Y66499D02*X296506Y65999D01*
X298506Y66499D02*X297006D01*
X298506Y68299D02*Y64299D01*
X299006Y68299D02*X297006D01*
X296506Y67799D01*
Y66999D01*
X297006Y66499D02*X296506Y66999D01*
X288068Y27150D02*X289973D01*
X290164Y25437D01*
X289973Y25626D01*
X289402Y25817D01*
X288830D01*
X288259Y25626D01*
X287878Y25246D01*
X287687Y24674D01*
Y24294D01*
X287878Y23722D01*
X288259Y23341D01*
X288830Y23150D01*
X289402D01*
X289973Y23341D01*
X290164Y23532D01*
X290354Y23912D01*
X286487Y27150D02*X284964Y23150D01*
X283439Y27150D02*X284964Y23150D01*
X17536Y26282D02*X17916Y26091D01*
X18297Y25711D01*
X18488Y25330D01*
Y24568D01*
X18297Y24187D01*
X17916Y23806D01*
X17536Y23616D01*
X16964Y23425D01*
X16011D01*
X15440Y23616D01*
X15059Y23806D01*
X14679Y24187D01*
X14488Y24568D01*
Y25330D01*
X14679Y25711D01*
X15059Y26091D01*
X15440Y26282D01*
X16011D01*
Y25330D02*Y26282D01*
X18488Y27482D02*X14488D01*
X18488D02*X14488Y30148D01*
X18488D02*X14488D01*
X18488Y31348D02*X14488D01*
X18488D02*Y32682D01*
X18297Y33253D01*
X17916Y33634D01*
X17536Y33824D01*
X16964Y34014D01*
X16011D01*
X15440Y33824D01*
X15059Y33634D01*
X14679Y33253D01*
X14488Y32682D01*
Y31348D01*
X119181Y37343D02*Y35843D01*
Y37343D02*X118681Y37843D01*
X118181D01*
X117681Y37343D01*
Y35843D01*
Y37343D02*X117181Y37843D01*
X116681D01*
X116181Y37343D01*
Y35843D01*
X119681Y37843D02*X119181Y37343D01*
X113481Y37843D02*X112981Y37343D01*
X114481Y37843D02*X113481D01*
X114981Y37343D02*X114481Y37843D01*
X114981Y37343D02*Y36343D01*
X114481Y35843D01*
X112981Y37843D02*Y36343D01*
X112481Y35843D01*
X114481D02*X113481D01*
X112981Y36343D01*
X109281Y39843D02*Y35843D01*
X109781D02*X109281Y36343D01*
X110781Y35843D02*X109781D01*
X111281Y36343D02*X110781Y35843D01*
X111281Y37343D02*Y36343D01*
Y37343D02*X110781Y37843D01*
X109781D01*
X109281Y37343D01*
X107581Y35843D02*X106081D01*
X108081Y36343D02*X107581Y35843D01*
X108081Y37343D02*Y36343D01*
Y37343D02*X107581Y37843D01*
X106581D01*
X106081Y37343D01*
X108081Y36843D02*X106081D01*
Y37343D01*
X103081Y37843D02*Y36343D01*
X102581Y35843D01*
X102081D01*
X101581Y36343D01*
Y37843D02*Y36343D01*
X101081Y35843D01*
X100581D01*
X100081Y36343D01*
Y37843D02*Y36343D01*
X98881Y38843D02*Y38743D01*
Y37343D02*Y35843D01*
X97381Y39843D02*Y36343D01*
X96881Y35843D01*
X97881Y38343D02*X96881D01*
X95881Y39843D02*Y35843D01*
Y37343D02*X95381Y37843D01*
X94381D01*
X93881Y37343D01*
Y35843D01*
X45562Y26137D02*Y28137D01*
Y26137D02*X43562D01*
X44062Y26637D01*
Y27637D01*
X43562Y28137D01*
X42062D01*
X41562Y27637D02*X42062Y28137D01*
X41562Y26637D02*Y27637D01*
X42062Y26137D02*X41562Y26637D01*
X45562Y29337D02*X41562Y30337D01*
X45562Y31337D01*
X56228Y50685D02*X54228D01*
X53728Y50185D01*
Y49185D01*
X54228Y48685D02*X53728Y49185D01*
X55728Y48685D02*X54228D01*
X55728Y50685D02*Y46685D01*
X54928Y48685D02*X53728Y46685D01*
X52528Y50185D02*X52028Y50685D01*
X50528D01*
X50028Y50185D01*
Y49185D01*
X52528Y46685D02*X50028Y49185D01*
X52528Y46685D02*X50028D01*
X56197Y40543D02*X54197D01*
X53697Y40043D01*
Y39043D01*
X54197Y38543D02*X53697Y39043D01*
X55697Y38543D02*X54197D01*
X55697Y40543D02*Y36543D01*
X54897Y38543D02*X53697Y36543D01*
X52497Y40043D02*X51997Y40543D01*
X50997D01*
X50497Y40043D01*
X50997Y36543D02*X50497Y37043D01*
X51997Y36543D02*X50997D01*
X52497Y37043D02*X51997Y36543D01*
Y38743D02*X50997D01*
X50497Y40043D02*Y39243D01*
Y38243D02*Y37043D01*
Y38243D02*X50997Y38743D01*
X50497Y39243D02*X50997Y38743D01*
G54D61*X217853Y322056D02*Y308780D01*
X217221Y322056D02*Y308780D01*
X219752Y322056D02*X212166D01*
X210271Y321424D01*
X209635Y320792D01*
X209004Y319528D01*
Y318261D01*
X209635Y316997D01*
X210271Y316365D01*
X212166Y315734D01*
Y322056D02*X210903Y321424D01*
X210271Y320792D01*
X209635Y319528D01*
Y318261D01*
X210271Y316997D01*
X210903Y316365D01*
X212166Y315734D01*
X217221D02*X212166D01*
X210271Y315102D01*
X209635Y314470D01*
X209004Y313206D01*
Y311311D01*
X209635Y310044D01*
X210271Y309412D01*
X212166Y308780D01*
X219752D01*
X212166Y315734D02*X210903Y315102D01*
X210271Y314470D01*
X209635Y313206D01*
Y311311D01*
X210271Y310044D01*
X210903Y309412D01*
X212166Y308780D01*
X198255Y317629D02*X200151Y316997D01*
X201414Y315734D01*
X202050Y313838D01*
Y312575D01*
X201414Y310679D01*
X200151Y309412D01*
X198255Y308780D01*
X196992D01*
X195096Y309412D01*
X193833Y310679D01*
X193197Y312575D01*
Y313838D01*
X193833Y315734D01*
X195096Y316997D01*
X196992Y317629D01*
X198255D01*
X199519Y316997D01*
X200782Y315734D01*
X201414Y313838D01*
Y312575D01*
X200782Y310679D01*
X199519Y309412D01*
X198255Y308780D01*
X196992D02*X195728Y309412D01*
X194464Y310679D01*
X193833Y312575D01*
Y313838D01*
X194464Y315734D01*
X195728Y316997D01*
X196992Y317629D01*
X186239Y313838D02*X178658D01*
Y315102D01*
X179289Y316365D01*
X179921Y316997D01*
X181185Y317629D01*
X183080D01*
X184976Y316997D01*
X186239Y315734D01*
X186875Y313838D01*
Y312575D01*
X186239Y310679D01*
X184976Y309412D01*
X183080Y308780D01*
X181817D01*
X179921Y309412D01*
X178658Y310679D01*
X179289Y313838D02*Y315734D01*
X179921Y316997D01*
X183080Y317629D02*X184344Y316997D01*
X185607Y315734D01*
X186239Y313838D01*
Y312575D01*
X185607Y310679D01*
X184344Y309412D01*
X183080Y308780D01*
X170436Y317629D02*Y308780D01*
X169805Y317629D02*Y308780D01*
X163487Y317629D02*Y308780D01*
X162855Y317629D02*Y308780D01*
X172336Y317629D02*X167909D01*
X165382D02*X160956D01*
X169805Y313206D02*X163487D01*
X172336Y308780D02*X167909D01*
X165382D02*X160956D01*
X152103Y317629D02*Y308780D01*
X151471Y317629D02*Y308780D01*
X145153Y317629D02*Y308780D01*
X144521Y317629D02*Y308780D01*
X154002Y317629D02*X149575D01*
X147048D02*X142622D01*
X151471Y313206D02*X145153D01*
X154002Y308780D02*X149575D01*
X147048D02*X142622D01*
X131873Y317629D02*X133769Y316997D01*
X135032Y315734D01*
X135668Y313838D01*
Y312575D01*
X135032Y310679D01*
X133769Y309412D01*
X131873Y308780D01*
X130610D01*
X128714Y309412D01*
X127451Y310679D01*
X126815Y312575D01*
Y313838D01*
X127451Y315734D01*
X128714Y316997D01*
X130610Y317629D01*
X131873D01*
X133137Y316997D01*
X134400Y315734D01*
X135032Y313838D01*
Y312575D01*
X134400Y310679D01*
X133137Y309412D01*
X131873Y308780D01*
X130610D02*X129346Y309412D01*
X128082Y310679D01*
X127451Y312575D01*
Y313838D01*
X128082Y315734D01*
X129346Y316997D01*
X130610Y317629D01*
X119857Y313838D02*X112276D01*
Y315102D01*
X112907Y316365D01*
X113539Y316997D01*
X114803Y317629D01*
X116698D01*
X118594Y316997D01*
X119857Y315734D01*
X120493Y313838D01*
Y312575D01*
X119857Y310679D01*
X118594Y309412D01*
X116698Y308780D01*
X115435D01*
X113539Y309412D01*
X112276Y310679D01*
X112907Y313838D02*Y315734D01*
X113539Y316997D01*
X116698Y317629D02*X117962Y316997D01*
X119225Y315734D01*
X119857Y313838D01*
Y312575D01*
X119225Y310679D01*
X117962Y309412D01*
X116698Y308780D01*
X259979Y286920D02*Y278071D01*
X259347Y286920D02*Y278071D01*
X253029Y286920D02*Y278071D01*
X252397Y286920D02*Y278071D01*
X261878Y286920D02*X250498D01*
X261878Y278071D02*X257451D01*
X254924D02*X250498D01*
X241645Y286920D02*Y273645D01*
X241013Y286920D02*Y273645D01*
Y285025D02*X239749Y286289D01*
X238486Y286920D01*
X237222D01*
X235327Y286289D01*
X234063Y285025D01*
X233427Y283130D01*
Y281866D01*
X234063Y279971D01*
X235327Y278703D01*
X237222Y278071D01*
X238486D01*
X239749Y278703D01*
X241013Y279971D01*
X237222Y286920D02*X235959Y286289D01*
X234695Y285025D01*
X234063Y283130D01*
Y281866D01*
X234695Y279971D01*
X235959Y278703D01*
X237222Y278071D01*
X243544Y286920D02*X241013D01*
X243544Y273645D02*X239118D01*
X225838Y283130D02*X218256D01*
Y284393D01*
X218888Y285657D01*
X219520Y286289D01*
X220784Y286920D01*
X222679D01*
X224574Y286289D01*
X225838Y285025D01*
X226474Y283130D01*
Y281866D01*
X225838Y279971D01*
X224574Y278703D01*
X222679Y278071D01*
X221415D01*
X219520Y278703D01*
X218256Y279971D01*
X218888Y283130D02*Y285025D01*
X219520Y286289D01*
X222679Y286920D02*X223943Y286289D01*
X225206Y285025D01*
X225838Y283130D01*
Y281866D01*
X225206Y279971D01*
X223943Y278703D01*
X222679Y278071D01*
X204349Y285025D02*X204981Y284393D01*
X204349Y283761D01*
X203717Y284393D01*
Y285025D01*
X204981Y286289D01*
X206244Y286920D01*
X208140D01*
X210035Y286289D01*
X211299Y285025D01*
X211935Y283130D01*
Y281866D01*
X211299Y279971D01*
X210035Y278703D01*
X208140Y278071D01*
X206876D01*
X204981Y278703D01*
X203717Y279971D01*
X208140Y286920D02*X209403Y286289D01*
X210667Y285025D01*
X211299Y283130D01*
Y281866D01*
X210667Y279971D01*
X209403Y278703D01*
X208140Y278071D01*
X193604Y286920D02*Y278071D01*
X192973Y286920D02*Y278071D01*
X196763Y286920D02*X197395Y283761D01*
Y286920D01*
X189178D01*
Y283761D01*
X189814Y286920D01*
X195500Y278071D02*X191077D01*
X182220Y286920D02*X178430Y278071D01*
X181589Y286920D02*X178430Y279335D01*
X174639Y286920D02*X178430Y278071D01*
X179693Y275540D01*
X180957Y274277D01*
X182220Y273645D01*
X182856D01*
X183488Y274277D01*
X182856Y274908D01*
X182220Y274277D01*
X183488Y286920D02*X179693D01*
X177166D02*X173371D01*
X165782D02*Y278071D01*
X165150Y286920D02*Y278071D01*
X158832Y286920D02*Y278071D01*
X158200Y286920D02*Y278071D01*
X167681Y286920D02*X156301D01*
X167681Y278071D02*X163255D01*
X160727D02*X156301D01*
X146184Y286920D02*Y284393D01*
X146816Y280602D01*
X147448Y278703D01*
X148084Y278071D01*
X148715D01*
X149347Y278703D01*
X148715Y279335D01*
X148084Y278703D01*
X140498Y286920D02*Y278071D01*
X139866Y286920D02*Y278071D01*
X148084Y286920D02*X137967D01*
X142394Y278071D02*X137967D01*
X130378Y283130D02*X122796D01*
Y284393D01*
X123428Y285657D01*
X124060Y286289D01*
X125323Y286920D01*
X127219D01*
X129114Y286289D01*
X130378Y285025D01*
X131013Y283130D01*
Y281866D01*
X130378Y279971D01*
X129114Y278703D01*
X127219Y278071D01*
X125955D01*
X124060Y278703D01*
X122796Y279971D01*
X123428Y283130D02*Y285025D01*
X124060Y286289D01*
X127219Y286920D02*X128482Y286289D01*
X129746Y285025D01*
X130378Y283130D01*
Y281866D01*
X129746Y279971D01*
X128482Y278703D01*
X127219Y278071D01*
X114575Y286920D02*Y278071D01*
X113943Y286920D02*Y278071D01*
X107625Y286920D02*Y278071D01*
X106993Y286920D02*Y278071D01*
X116474Y286920D02*X112048D01*
X109520D02*X105094D01*
X113943Y282498D02*X107625D01*
X116474Y278071D02*X112048D01*
X109520D02*X105094D01*
X96241Y286920D02*Y278071D01*
X95609Y286920D02*Y278071D01*
X89291Y286920D02*Y278071D01*
X88659Y286920D02*Y278071D01*
X98140Y286920D02*X93714D01*
X91186D02*X86760D01*
X98140Y278071D02*X93714D01*
X91186D02*X86760D01*
X89291Y286289D02*X95609Y278703D01*
X79171Y283130D02*X71589D01*
Y284393D01*
X72221Y285657D01*
X72853Y286289D01*
X74116Y286920D01*
X76012D01*
X77907Y286289D01*
X79171Y285025D01*
X79806Y283130D01*
Y281866D01*
X79171Y279971D01*
X77907Y278703D01*
X76012Y278071D01*
X74748D01*
X72853Y278703D01*
X71589Y279971D01*
X72221Y283130D02*Y285025D01*
X72853Y286289D01*
X76012Y286920D02*X77275Y286289D01*
X78539Y285025D01*
X79171Y283130D01*
Y281866D01*
X78539Y279971D01*
X77275Y278703D01*
X76012Y278071D01*
G54D60*X129000Y249701D02*Y245701D01*
X127000D01*
X125800Y247901D02*X124300D01*
X125800Y245701D02*X123800D01*
X125800Y249701D02*Y245701D01*
Y249701D02*X123800D01*
X122100D02*Y245701D01*
X120800Y249701D02*X120100Y249001D01*
Y246401D01*
X120800Y245701D02*X120100Y246401D01*
X122600Y245701D02*X120800D01*
X122600Y249701D02*X120800D01*
X118900Y248901D02*X118100Y249701D01*
Y245701D01*
X118900D02*X117400D01*
X216000Y246701D02*Y242701D01*
X214000D01*
X212800Y244901D02*X211300D01*
X212800Y242701D02*X210800D01*
X212800Y246701D02*Y242701D01*
Y246701D02*X210800D01*
X209100D02*Y242701D01*
X207800Y246701D02*X207100Y246001D01*
Y243401D01*
X207800Y242701D02*X207100Y243401D01*
X209600Y242701D02*X207800D01*
X209600Y246701D02*X207800D01*
X205900Y246201D02*X205400Y246701D01*
X203900D01*
X203400Y246201D01*
Y245201D01*
X205900Y242701D02*X203400Y245201D01*
X205900Y242701D02*X203400D01*
M02*
